%TF.GenerationSoftware,KiCad,Pcbnew,10.0.4*%
%TF.CreationDate,2026-07-08T12:26:28+02:00*%
%TF.ProjectId,neptune-camera-esp,6e657074-756e-4652-9d63-616d6572612d,1.0*%
%TF.SameCoordinates,Original*%
%TF.FileFunction,Legend,Bot*%
%TF.FilePolarity,Positive*%
%FSLAX46Y46*%
G04 Gerber Fmt 4.6, Leading zero omitted, Abs format (unit mm)*
G04 Created by KiCad (PCBNEW 10.0.4) date 2026-07-08 12:26:28*
%MOMM*%
%LPD*%
G01*
G04 APERTURE LIST*
%ADD10C,0.150000*%
%ADD11C,0.200000*%
%ADD12C,0.120000*%
G04 APERTURE END LIST*
D10*
X115479887Y-49525164D02*
X115229887Y-50275164D01*
X115229887Y-50275164D02*
X114979887Y-49525164D01*
X114301316Y-50203735D02*
X114337030Y-50239450D01*
X114337030Y-50239450D02*
X114444173Y-50275164D01*
X114444173Y-50275164D02*
X114515601Y-50275164D01*
X114515601Y-50275164D02*
X114622744Y-50239450D01*
X114622744Y-50239450D02*
X114694173Y-50168021D01*
X114694173Y-50168021D02*
X114729887Y-50096592D01*
X114729887Y-50096592D02*
X114765601Y-49953735D01*
X114765601Y-49953735D02*
X114765601Y-49846592D01*
X114765601Y-49846592D02*
X114729887Y-49703735D01*
X114729887Y-49703735D02*
X114694173Y-49632307D01*
X114694173Y-49632307D02*
X114622744Y-49560878D01*
X114622744Y-49560878D02*
X114515601Y-49525164D01*
X114515601Y-49525164D02*
X114444173Y-49525164D01*
X114444173Y-49525164D02*
X114337030Y-49560878D01*
X114337030Y-49560878D02*
X114301316Y-49596592D01*
X113551316Y-50203735D02*
X113587030Y-50239450D01*
X113587030Y-50239450D02*
X113694173Y-50275164D01*
X113694173Y-50275164D02*
X113765601Y-50275164D01*
X113765601Y-50275164D02*
X113872744Y-50239450D01*
X113872744Y-50239450D02*
X113944173Y-50168021D01*
X113944173Y-50168021D02*
X113979887Y-50096592D01*
X113979887Y-50096592D02*
X114015601Y-49953735D01*
X114015601Y-49953735D02*
X114015601Y-49846592D01*
X114015601Y-49846592D02*
X113979887Y-49703735D01*
X113979887Y-49703735D02*
X113944173Y-49632307D01*
X113944173Y-49632307D02*
X113872744Y-49560878D01*
X113872744Y-49560878D02*
X113765601Y-49525164D01*
X113765601Y-49525164D02*
X113694173Y-49525164D01*
X113694173Y-49525164D02*
X113587030Y-49560878D01*
X113587030Y-49560878D02*
X113551316Y-49596592D01*
X115479887Y-52067664D02*
X115051316Y-52067664D01*
X115265601Y-52817664D02*
X115265601Y-52067664D01*
X114872744Y-52067664D02*
X114372744Y-52817664D01*
X114372744Y-52067664D02*
X114872744Y-52817664D01*
X114944173Y-55360164D02*
X115194173Y-55003021D01*
X115372744Y-55360164D02*
X115372744Y-54610164D01*
X115372744Y-54610164D02*
X115087030Y-54610164D01*
X115087030Y-54610164D02*
X115015601Y-54645878D01*
X115015601Y-54645878D02*
X114979887Y-54681592D01*
X114979887Y-54681592D02*
X114944173Y-54753021D01*
X114944173Y-54753021D02*
X114944173Y-54860164D01*
X114944173Y-54860164D02*
X114979887Y-54931592D01*
X114979887Y-54931592D02*
X115015601Y-54967307D01*
X115015601Y-54967307D02*
X115087030Y-55003021D01*
X115087030Y-55003021D02*
X115372744Y-55003021D01*
X114694173Y-54610164D02*
X114194173Y-55360164D01*
X114194173Y-54610164D02*
X114694173Y-55360164D01*
X114979887Y-57188378D02*
X115051316Y-57152664D01*
X115051316Y-57152664D02*
X115158458Y-57152664D01*
X115158458Y-57152664D02*
X115265601Y-57188378D01*
X115265601Y-57188378D02*
X115337030Y-57259807D01*
X115337030Y-57259807D02*
X115372744Y-57331235D01*
X115372744Y-57331235D02*
X115408458Y-57474092D01*
X115408458Y-57474092D02*
X115408458Y-57581235D01*
X115408458Y-57581235D02*
X115372744Y-57724092D01*
X115372744Y-57724092D02*
X115337030Y-57795521D01*
X115337030Y-57795521D02*
X115265601Y-57866950D01*
X115265601Y-57866950D02*
X115158458Y-57902664D01*
X115158458Y-57902664D02*
X115087030Y-57902664D01*
X115087030Y-57902664D02*
X114979887Y-57866950D01*
X114979887Y-57866950D02*
X114944173Y-57831235D01*
X114944173Y-57831235D02*
X114944173Y-57581235D01*
X114944173Y-57581235D02*
X115087030Y-57581235D01*
X114622744Y-57902664D02*
X114622744Y-57152664D01*
X114622744Y-57152664D02*
X114194173Y-57902664D01*
X114194173Y-57902664D02*
X114194173Y-57152664D01*
X113837030Y-57902664D02*
X113837030Y-57152664D01*
X113837030Y-57152664D02*
X113658459Y-57152664D01*
X113658459Y-57152664D02*
X113551316Y-57188378D01*
X113551316Y-57188378D02*
X113479887Y-57259807D01*
X113479887Y-57259807D02*
X113444173Y-57331235D01*
X113444173Y-57331235D02*
X113408459Y-57474092D01*
X113408459Y-57474092D02*
X113408459Y-57581235D01*
X113408459Y-57581235D02*
X113444173Y-57724092D01*
X113444173Y-57724092D02*
X113479887Y-57795521D01*
X113479887Y-57795521D02*
X113551316Y-57866950D01*
X113551316Y-57866950D02*
X113658459Y-57902664D01*
X113658459Y-57902664D02*
X113837030Y-57902664D01*
X114979887Y-59730878D02*
X115051316Y-59695164D01*
X115051316Y-59695164D02*
X115158458Y-59695164D01*
X115158458Y-59695164D02*
X115265601Y-59730878D01*
X115265601Y-59730878D02*
X115337030Y-59802307D01*
X115337030Y-59802307D02*
X115372744Y-59873735D01*
X115372744Y-59873735D02*
X115408458Y-60016592D01*
X115408458Y-60016592D02*
X115408458Y-60123735D01*
X115408458Y-60123735D02*
X115372744Y-60266592D01*
X115372744Y-60266592D02*
X115337030Y-60338021D01*
X115337030Y-60338021D02*
X115265601Y-60409450D01*
X115265601Y-60409450D02*
X115158458Y-60445164D01*
X115158458Y-60445164D02*
X115087030Y-60445164D01*
X115087030Y-60445164D02*
X114979887Y-60409450D01*
X114979887Y-60409450D02*
X114944173Y-60373735D01*
X114944173Y-60373735D02*
X114944173Y-60123735D01*
X114944173Y-60123735D02*
X115087030Y-60123735D01*
X114622744Y-60445164D02*
X114622744Y-59695164D01*
X114622744Y-59695164D02*
X114194173Y-60445164D01*
X114194173Y-60445164D02*
X114194173Y-59695164D01*
X113837030Y-60445164D02*
X113837030Y-59695164D01*
X113837030Y-59695164D02*
X113658459Y-59695164D01*
X113658459Y-59695164D02*
X113551316Y-59730878D01*
X113551316Y-59730878D02*
X113479887Y-59802307D01*
X113479887Y-59802307D02*
X113444173Y-59873735D01*
X113444173Y-59873735D02*
X113408459Y-60016592D01*
X113408459Y-60016592D02*
X113408459Y-60123735D01*
X113408459Y-60123735D02*
X113444173Y-60266592D01*
X113444173Y-60266592D02*
X113479887Y-60338021D01*
X113479887Y-60338021D02*
X113551316Y-60409450D01*
X113551316Y-60409450D02*
X113658459Y-60445164D01*
X113658459Y-60445164D02*
X113837030Y-60445164D01*
X97497999Y-85567878D02*
X97140857Y-85567878D01*
X97569428Y-85782164D02*
X97319428Y-85032164D01*
X97319428Y-85032164D02*
X97069428Y-85782164D01*
X96569428Y-85389307D02*
X96819428Y-85389307D01*
X96819428Y-85782164D02*
X96819428Y-85032164D01*
X96819428Y-85032164D02*
X96462285Y-85032164D01*
%TO.C,J3*%
D11*
X111098000Y-81154000D02*
X109348000Y-81154000D01*
X111098000Y-79954000D02*
X111098000Y-81154000D01*
X111098000Y-75804000D02*
X111098000Y-77354000D01*
X96548000Y-81154000D02*
X94698000Y-81154000D01*
X94698000Y-81154000D02*
X94698000Y-79954000D01*
X94698000Y-77354000D02*
X94698000Y-75804000D01*
X94698000Y-75804000D02*
X111098000Y-75804000D01*
%TO.C,C27*%
D12*
X95483060Y-65199745D02*
X95698732Y-65199745D01*
X95483060Y-65919745D02*
X95698732Y-65919745D01*
%TO.C,C14*%
X104985836Y-82528000D02*
X104770164Y-82528000D01*
X104985836Y-83248000D02*
X104770164Y-83248000D01*
%TO.C,C22*%
X112933000Y-39620420D02*
X112933000Y-39901580D01*
X113953000Y-39620420D02*
X113953000Y-39901580D01*
%TO.C,C12*%
X108638580Y-83628000D02*
X108357420Y-83628000D01*
X108638580Y-84648000D02*
X108357420Y-84648000D01*
%TO.C,C18*%
X102232420Y-83628000D02*
X102513580Y-83628000D01*
X102232420Y-84648000D02*
X102513580Y-84648000D01*
%TO.C,C16*%
X105588580Y-85178000D02*
X105307420Y-85178000D01*
X105588580Y-86198000D02*
X105307420Y-86198000D01*
%TO.C,C23*%
X114482000Y-39499748D02*
X114482000Y-40022252D01*
X115952000Y-39499748D02*
X115952000Y-40022252D01*
%TO.C,U1*%
X93698000Y-37721000D02*
X93698000Y-38421000D01*
X93698000Y-57321000D02*
X93698000Y-56321000D01*
X93698000Y-57321000D02*
X95198000Y-57321000D01*
X112098000Y-37721000D02*
X93698000Y-37721000D01*
X112098000Y-37721000D02*
X112098000Y-38421000D01*
X112098000Y-56321000D02*
X112098000Y-57321000D01*
X112098000Y-57321000D02*
X110598000Y-57321000D01*
%TO.C,C13*%
X108638580Y-85178000D02*
X108357420Y-85178000D01*
X108638580Y-86198000D02*
X108357420Y-86198000D01*
%TO.C,C19*%
X102835164Y-82528000D02*
X103050836Y-82528000D01*
X102835164Y-83248000D02*
X103050836Y-83248000D01*
%TO.C,C15*%
X105588580Y-83628000D02*
X105307420Y-83628000D01*
X105588580Y-84648000D02*
X105307420Y-84648000D01*
%TO.C,C11*%
X108035836Y-82528000D02*
X107820164Y-82528000D01*
X108035836Y-83248000D02*
X107820164Y-83248000D01*
%TO.C,J5*%
X119133000Y-48613500D02*
X119133000Y-61433500D01*
X127763000Y-48613500D02*
X119133000Y-48613500D01*
X127763000Y-48613500D02*
X127763000Y-61433500D01*
X127763000Y-61433500D02*
X119133000Y-61433500D01*
%TO.C,JP1*%
X95598000Y-83359000D02*
X95598000Y-83959000D01*
X96298000Y-84659000D02*
X97698000Y-84659000D01*
X97698000Y-82659000D02*
X96298000Y-82659000D01*
X98398000Y-83959000D02*
X98398000Y-83359000D01*
X95598000Y-83359000D02*
G75*
G02*
X96298000Y-82659000I699999J1D01*
G01*
X96298000Y-84659000D02*
G75*
G02*
X95598000Y-83959000I-1J699999D01*
G01*
X97698000Y-82659000D02*
G75*
G02*
X98398000Y-83359000I0J-700000D01*
G01*
X98398000Y-83959000D02*
G75*
G02*
X97698000Y-84659000I-700000J0D01*
G01*
%TO.C,C17*%
X102232420Y-85178000D02*
X102513580Y-85178000D01*
X102232420Y-86198000D02*
X102513580Y-86198000D01*
%TD*%
M02*
