M48
; DRILL file KiCad 10.0.4 date 2026-07-08T12:26:29
; FORMAT={-:-/ absolute / metric / decimal}
; #@! TF.CreationDate,2026-07-08T12:26:29+02:00
; #@! TF.GenerationSoftware,Kicad,Pcbnew,10.0.4
; #@! TF.FileFunction,Plated,1,4,PTH
FMAT,2
METRIC
; #@! TA.AperFunction,Plated,PTH,ViaDrill
T1C0.300
; #@! TA.AperFunction,Plated,PTH,ViaDrill
T2C0.400
; #@! TA.AperFunction,Plated,PTH,ViaDrill
T3C0.500
%
G90
G05
T1
X79.668Y-73.844
X80.328Y-76.354
X82.303Y-55.554
X82.628Y-64.014
X82.628Y-66.774
X82.703Y-53.554
X83.588Y-79.974
X85.348Y-73.894
X86.328Y-41.104
X86.558Y-83.744
X86.658Y-53.604
X86.758Y-69.474
X86.858Y-57.274
X86.958Y-65.814
X87.008Y-61.794
X87.078Y-77.314
X87.968Y-47.794
X88.698Y-79.984
X89.501Y-43.01
X89.718Y-54.574
X89.718Y-57.684
X89.718Y-60.904
X89.718Y-64.874
X89.788Y-39.294
X89.898Y-51.334
X90.088Y-45.404
X90.338Y-69.364
X91.718Y-40.834
X92.948Y-55.621
X93.108Y-80.004
X93.418Y-69.884
X93.724Y-62.929
X93.751Y-60.164
X94.068Y-81.684
X95.018Y-58.734
X95.078Y-61.569
X95.118Y-64.404
X95.348Y-42.921
X95.348Y-44.191
X96.298Y-51.494
X96.548Y-54.304
X96.698Y-73.524
X97.368Y-79.194
X97.398Y-76.654
X97.858Y-43.114
X99.698Y-83.594
X101.318Y-54.154
X103.868Y-79.674
X103.918Y-77.114
X104.103Y-54.109
X104.803Y-55.729
X105.538Y-42.204
X105.783Y-55.129
X107.343Y-55.779
X107.807Y-39.926
X108.448Y-79.234
X108.538Y-76.724
X109.015Y-60.339
X109.308Y-48.984
X109.332Y-64.382
X109.358Y-44.364
X109.998Y-73.384
X110.208Y-76.724
X110.465Y-51.811
X110.465Y-53.081
X110.548Y-81.684
X110.898Y-58.684
X110.958Y-61.519
X112.238Y-80.034
X112.748Y-54.351
X112.748Y-55.621
X112.848Y-49.271
X112.848Y-50.541
X115.583Y-52.478
X115.583Y-55.021
X115.838Y-45.264
X116.07Y-69.269
X116.656Y-65.167
X116.768Y-80.114
X116.978Y-85.364
X118.738Y-71.454
X118.788Y-67.784
X118.838Y-64.114
X119.298Y-47.574
X120.598Y-82.104
X122.028Y-73.084
X122.138Y-77.634
X123.008Y-69.644
X123.008Y-71.394
X124.238Y-47.814
X124.368Y-79.134
T2
X81.999Y-44.503
X81.999Y-48.024
X92.848Y-39.111
X101.598Y-82.888
X103.148Y-86.588
X104.673Y-86.588
X106.223Y-82.888
X107.723Y-86.588
X109.273Y-82.888
X116.517Y-38.811
X116.517Y-40.711
T3
X82.703Y-57.554
X82.703Y-59.554
X82.703Y-61.554
X82.703Y-69.554
X82.703Y-71.554
X89.229Y-82.799
X90.729Y-72.98
X93.748Y-78.724
X95.248Y-83.659
X95.688Y-86.554
X101.698Y-44.131
X101.698Y-46.831
X101.698Y-49.531
X104.398Y-44.131
X104.398Y-49.531
X107.098Y-44.131
X107.098Y-46.831
X107.098Y-49.531
X112.048Y-78.724
X112.767Y-82.799
X114.267Y-72.98
X117.083Y-58.836
X119.219Y-73.625
X120.65Y-51.499
X123.093Y-61.554
X123.093Y-65.554
X123.093Y-67.554
X123.2Y-50.499
X123.7Y-44.699
X125.019Y-74.125
X126.219Y-76.675
M30
