%TF.GenerationSoftware,KiCad,Pcbnew,9.0.6*%
%TF.CreationDate,2026-03-19T22:03:28+01:00*%
%TF.ProjectId,neptune-camera-esp,6e657074-756e-4652-9d63-616d6572612d,1.0*%
%TF.SameCoordinates,Original*%
%TF.FileFunction,Copper,L2,Inr*%
%TF.FilePolarity,Positive*%
%FSLAX46Y46*%
G04 Gerber Fmt 4.6, Leading zero omitted, Abs format (unit mm)*
G04 Created by KiCad (PCBNEW 9.0.6) date 2026-03-19 22:03:28*
%MOMM*%
%LPD*%
G01*
G04 APERTURE LIST*
%TA.AperFunction,ViaPad*%
%ADD10C,0.800000*%
%TD*%
%TA.AperFunction,ViaPad*%
%ADD11C,1.000000*%
%TD*%
%TA.AperFunction,ViaPad*%
%ADD12C,0.600000*%
%TD*%
G04 APERTURE END LIST*
D10*
%TO.N,VCC*%
X121916000Y-74323000D03*
D11*
%TO.N,GND*%
X89229000Y-82799500D03*
D10*
X106223000Y-82888000D03*
D11*
X112048000Y-78724000D03*
X82703000Y-61554000D03*
X82703000Y-57554000D03*
X118866000Y-81108500D03*
X98898000Y-53160000D03*
D10*
X109273000Y-82888000D03*
X98988000Y-82888000D03*
X101598000Y-82888000D03*
D11*
X103898000Y-53160000D03*
X93748000Y-78724000D03*
X82703000Y-59554000D03*
D12*
X101198000Y-78069000D03*
D11*
X101398000Y-50660000D03*
X90729000Y-72979500D03*
X123093000Y-65554000D03*
X112767000Y-82799500D03*
X117083000Y-58836000D03*
D12*
X104588000Y-77000000D03*
D10*
X112848000Y-45440000D03*
X81999000Y-48024500D03*
D11*
X82703000Y-69554000D03*
X82703000Y-71554000D03*
X89250000Y-45125000D03*
X119366000Y-75308500D03*
X101398000Y-55660000D03*
X114267000Y-72979500D03*
D12*
X89078000Y-49083000D03*
D11*
X123093000Y-67554000D03*
D12*
%TO.N,+3.3V*%
X113212000Y-58490000D03*
D10*
X103148000Y-86588000D03*
D11*
X89250000Y-47025000D03*
X93608000Y-83688000D03*
D12*
X104558000Y-75950000D03*
X91845000Y-49113000D03*
D11*
X121416000Y-82108500D03*
X92279000Y-72979500D03*
D12*
X113212000Y-53980000D03*
X101923000Y-77019000D03*
D11*
X115817000Y-72979500D03*
D10*
%TO.N,1.5V_OV5640*%
X104673000Y-86588000D03*
%TO.N,2.8V_OV5640*%
X107723000Y-86588000D03*
D11*
%TO.N,VCC*%
X123093000Y-61554000D03*
D12*
%TO.N,/PCLK*%
X102263000Y-64700000D03*
%TO.N,/Camera(OV5640)/CameraReset*%
X106148000Y-77700000D03*
%TO.N,/D9*%
X106073000Y-64700000D03*
%TO.N,/OV5640_SCL*%
X113912000Y-56870000D03*
%TO.N,/D5*%
X98453000Y-64700000D03*
%TO.N,/D6*%
X100993000Y-64700000D03*
%TO.N,/D8*%
X104803000Y-64700000D03*
%TO.N,/D3*%
X97183000Y-64700000D03*
%TO.N,/Camera(OV5640)/CameraPWDN*%
X104648000Y-79488000D03*
%TO.N,/D7*%
X103533000Y-64700000D03*
%TO.N,/OV5640_SDA*%
X113912000Y-55600000D03*
%TO.N,/D4*%
X95913000Y-64700000D03*
%TO.N,/D2*%
X99723000Y-64700000D03*
%TO.N,/VSYNC*%
X108613000Y-64700000D03*
%TO.N,/Camera(OV5640)/XCLK*%
X102648000Y-79800000D03*
%TO.N,/PRG_UART_RX*%
X112948000Y-50520000D03*
D10*
%TO.N,Net-(C25-Pad1)*%
X84549000Y-46003000D03*
D12*
%TO.N,/PRG_UART_TX*%
X112948000Y-49250000D03*
%TO.N,/HSYNC*%
X107343000Y-64700000D03*
%TO.N,/BOOT*%
X112948000Y-61950000D03*
X87317000Y-50046000D03*
%TD*%
%TA.AperFunction,Conductor*%
%TO.N,GND*%
G36*
X124493688Y-43969685D02*
G01*
X124520062Y-43992453D01*
X124680434Y-44176161D01*
X124683141Y-44179370D01*
X125290068Y-44924063D01*
X125292665Y-44927362D01*
X125874054Y-45692200D01*
X125876538Y-45695584D01*
X126431693Y-46479650D01*
X126434061Y-46483117D01*
X126962372Y-47285556D01*
X126964620Y-47289101D01*
X127379317Y-47967940D01*
X127397500Y-48032583D01*
X127397500Y-77075415D01*
X127379317Y-77140058D01*
X126964620Y-77818898D01*
X126962372Y-77822443D01*
X126434061Y-78624882D01*
X126431693Y-78628349D01*
X125876538Y-79412415D01*
X125874054Y-79415799D01*
X125292665Y-80180637D01*
X125290068Y-80183936D01*
X124683141Y-80928629D01*
X124680434Y-80931838D01*
X124048641Y-81655564D01*
X124045827Y-81658680D01*
X123389874Y-82360627D01*
X123386956Y-82363645D01*
X122707645Y-83042956D01*
X122704627Y-83045874D01*
X122002680Y-83701827D01*
X121999564Y-83704641D01*
X121275838Y-84336434D01*
X121272629Y-84339141D01*
X120527936Y-84946068D01*
X120524637Y-84948665D01*
X119759799Y-85530054D01*
X119756415Y-85532538D01*
X118972349Y-86087693D01*
X118968882Y-86090061D01*
X118166443Y-86618372D01*
X118162898Y-86620620D01*
X117572956Y-86981011D01*
X117486519Y-87033815D01*
X117484060Y-87035317D01*
X117419417Y-87053500D01*
X108690456Y-87053500D01*
X108623417Y-87033815D01*
X108577662Y-86981011D01*
X108567718Y-86911853D01*
X108575893Y-86882052D01*
X108588894Y-86850666D01*
X108623500Y-86676691D01*
X108623500Y-86499309D01*
X108623500Y-86499306D01*
X108623499Y-86499304D01*
X108588896Y-86325341D01*
X108588893Y-86325332D01*
X108521016Y-86161459D01*
X108521009Y-86161446D01*
X108422464Y-86013965D01*
X108422461Y-86013961D01*
X108297038Y-85888538D01*
X108297034Y-85888535D01*
X108149553Y-85789990D01*
X108149540Y-85789983D01*
X107985667Y-85722106D01*
X107985658Y-85722103D01*
X107811694Y-85687500D01*
X107811691Y-85687500D01*
X107634309Y-85687500D01*
X107634306Y-85687500D01*
X107460341Y-85722103D01*
X107460332Y-85722106D01*
X107296459Y-85789983D01*
X107296446Y-85789990D01*
X107148965Y-85888535D01*
X107148961Y-85888538D01*
X107023538Y-86013961D01*
X107023535Y-86013965D01*
X106924990Y-86161446D01*
X106924983Y-86161459D01*
X106857106Y-86325332D01*
X106857103Y-86325341D01*
X106822500Y-86499304D01*
X106822500Y-86676695D01*
X106857103Y-86850658D01*
X106857105Y-86850663D01*
X106857106Y-86850666D01*
X106870105Y-86882049D01*
X106877574Y-86951517D01*
X106846299Y-87013996D01*
X106786210Y-87049648D01*
X106755544Y-87053500D01*
X105640456Y-87053500D01*
X105573417Y-87033815D01*
X105527662Y-86981011D01*
X105517718Y-86911853D01*
X105525893Y-86882052D01*
X105538894Y-86850666D01*
X105573500Y-86676691D01*
X105573500Y-86499309D01*
X105573500Y-86499306D01*
X105573499Y-86499304D01*
X105538896Y-86325341D01*
X105538893Y-86325332D01*
X105471016Y-86161459D01*
X105471009Y-86161446D01*
X105372464Y-86013965D01*
X105372461Y-86013961D01*
X105247038Y-85888538D01*
X105247034Y-85888535D01*
X105099553Y-85789990D01*
X105099540Y-85789983D01*
X104935667Y-85722106D01*
X104935658Y-85722103D01*
X104761694Y-85687500D01*
X104761691Y-85687500D01*
X104584309Y-85687500D01*
X104584306Y-85687500D01*
X104410341Y-85722103D01*
X104410332Y-85722106D01*
X104246459Y-85789983D01*
X104246446Y-85789990D01*
X104098965Y-85888535D01*
X104098961Y-85888538D01*
X103998181Y-85989319D01*
X103936858Y-86022804D01*
X103867166Y-86017820D01*
X103822819Y-85989319D01*
X103722038Y-85888538D01*
X103722034Y-85888535D01*
X103574553Y-85789990D01*
X103574540Y-85789983D01*
X103410667Y-85722106D01*
X103410658Y-85722103D01*
X103236694Y-85687500D01*
X103236691Y-85687500D01*
X103059309Y-85687500D01*
X103059306Y-85687500D01*
X102885341Y-85722103D01*
X102885332Y-85722106D01*
X102721459Y-85789983D01*
X102721446Y-85789990D01*
X102573965Y-85888535D01*
X102573961Y-85888538D01*
X102448538Y-86013961D01*
X102448535Y-86013965D01*
X102349990Y-86161446D01*
X102349983Y-86161459D01*
X102282106Y-86325332D01*
X102282103Y-86325341D01*
X102247500Y-86499304D01*
X102247500Y-86676695D01*
X102282103Y-86850658D01*
X102282105Y-86850663D01*
X102282106Y-86850666D01*
X102295105Y-86882049D01*
X102302574Y-86951517D01*
X102271299Y-87013996D01*
X102211210Y-87049648D01*
X102180544Y-87053500D01*
X88376583Y-87053500D01*
X88311940Y-87035317D01*
X88309481Y-87033815D01*
X88009662Y-86850658D01*
X87633101Y-86620620D01*
X87629556Y-86618372D01*
X86827117Y-86090061D01*
X86823650Y-86087693D01*
X86039584Y-85532538D01*
X86036200Y-85530054D01*
X85271362Y-84948665D01*
X85268063Y-84946068D01*
X84523370Y-84339141D01*
X84520161Y-84336434D01*
X83890255Y-83786543D01*
X92607499Y-83786543D01*
X92645947Y-83979829D01*
X92645950Y-83979839D01*
X92721364Y-84161907D01*
X92721371Y-84161920D01*
X92830860Y-84325781D01*
X92830863Y-84325785D01*
X92970214Y-84465136D01*
X92970218Y-84465139D01*
X93134079Y-84574628D01*
X93134092Y-84574635D01*
X93316160Y-84650049D01*
X93316165Y-84650051D01*
X93316169Y-84650051D01*
X93316170Y-84650052D01*
X93509456Y-84688500D01*
X93509459Y-84688500D01*
X93706543Y-84688500D01*
X93836582Y-84662632D01*
X93899835Y-84650051D01*
X94081914Y-84574632D01*
X94245782Y-84465139D01*
X94385139Y-84325782D01*
X94494632Y-84161914D01*
X94570051Y-83979835D01*
X94608500Y-83786541D01*
X94608500Y-83589459D01*
X94608500Y-83589456D01*
X94570052Y-83396170D01*
X94570051Y-83396169D01*
X94570051Y-83396165D01*
X94570049Y-83396160D01*
X94494635Y-83214092D01*
X94494628Y-83214079D01*
X94385139Y-83050218D01*
X94385136Y-83050214D01*
X94245785Y-82910863D01*
X94245781Y-82910860D01*
X94081920Y-82801371D01*
X94081907Y-82801364D01*
X93899839Y-82725950D01*
X93899829Y-82725947D01*
X93706543Y-82687500D01*
X93706541Y-82687500D01*
X93509459Y-82687500D01*
X93509457Y-82687500D01*
X93316170Y-82725947D01*
X93316160Y-82725950D01*
X93134092Y-82801364D01*
X93134079Y-82801371D01*
X92970218Y-82910860D01*
X92970214Y-82910863D01*
X92830863Y-83050214D01*
X92830860Y-83050218D01*
X92721371Y-83214079D01*
X92721364Y-83214092D01*
X92645950Y-83396160D01*
X92645947Y-83396170D01*
X92607500Y-83589456D01*
X92607500Y-83589459D01*
X92607500Y-83786541D01*
X92607500Y-83786543D01*
X92607499Y-83786543D01*
X83890255Y-83786543D01*
X83796435Y-83704641D01*
X83793320Y-83701828D01*
X83793319Y-83701827D01*
X83091372Y-83045874D01*
X83088354Y-83042956D01*
X82409043Y-82363645D01*
X82406125Y-82360627D01*
X82262605Y-82207043D01*
X120415499Y-82207043D01*
X120453947Y-82400329D01*
X120453950Y-82400339D01*
X120529364Y-82582407D01*
X120529371Y-82582420D01*
X120638860Y-82746281D01*
X120638863Y-82746285D01*
X120778214Y-82885636D01*
X120778218Y-82885639D01*
X120942079Y-82995128D01*
X120942092Y-82995135D01*
X121075076Y-83050218D01*
X121124165Y-83070551D01*
X121124169Y-83070551D01*
X121124170Y-83070552D01*
X121317456Y-83109000D01*
X121317459Y-83109000D01*
X121514543Y-83109000D01*
X121644582Y-83083132D01*
X121707835Y-83070551D01*
X121889914Y-82995132D01*
X122053782Y-82885639D01*
X122193139Y-82746282D01*
X122302632Y-82582414D01*
X122378051Y-82400335D01*
X122416500Y-82207041D01*
X122416500Y-82009959D01*
X122416500Y-82009956D01*
X122378052Y-81816670D01*
X122378051Y-81816669D01*
X122378051Y-81816665D01*
X122312612Y-81658680D01*
X122302635Y-81634592D01*
X122302628Y-81634579D01*
X122193139Y-81470718D01*
X122193136Y-81470714D01*
X122053785Y-81331363D01*
X122053781Y-81331360D01*
X121889920Y-81221871D01*
X121889907Y-81221864D01*
X121707839Y-81146450D01*
X121707829Y-81146447D01*
X121514543Y-81108000D01*
X121514541Y-81108000D01*
X121317459Y-81108000D01*
X121317457Y-81108000D01*
X121124170Y-81146447D01*
X121124160Y-81146450D01*
X120942092Y-81221864D01*
X120942079Y-81221871D01*
X120778218Y-81331360D01*
X120778214Y-81331363D01*
X120638863Y-81470714D01*
X120638860Y-81470718D01*
X120529371Y-81634579D01*
X120529364Y-81634592D01*
X120453950Y-81816660D01*
X120453947Y-81816670D01*
X120415500Y-82009956D01*
X120415500Y-82009959D01*
X120415500Y-82207041D01*
X120415500Y-82207043D01*
X120415499Y-82207043D01*
X82262605Y-82207043D01*
X82151857Y-82088530D01*
X81750172Y-81658680D01*
X81747358Y-81655564D01*
X81729039Y-81634579D01*
X81115560Y-80931832D01*
X81112858Y-80928629D01*
X80820360Y-80569737D01*
X80505919Y-80183920D01*
X80503334Y-80180638D01*
X80503333Y-80180637D01*
X80206471Y-79790105D01*
X80206471Y-79790103D01*
X80154059Y-79721153D01*
X101847500Y-79721153D01*
X101847500Y-79878846D01*
X101878261Y-80033489D01*
X101878264Y-80033501D01*
X101938602Y-80179172D01*
X101938609Y-80179185D01*
X102026210Y-80310288D01*
X102026213Y-80310292D01*
X102137707Y-80421786D01*
X102137711Y-80421789D01*
X102268814Y-80509390D01*
X102268827Y-80509397D01*
X102414498Y-80569735D01*
X102414503Y-80569737D01*
X102569153Y-80600499D01*
X102569156Y-80600500D01*
X102569158Y-80600500D01*
X102726844Y-80600500D01*
X102726845Y-80600499D01*
X102881497Y-80569737D01*
X103027179Y-80509394D01*
X103158289Y-80421789D01*
X103269789Y-80310289D01*
X103357394Y-80179179D01*
X103417737Y-80033497D01*
X103448500Y-79878842D01*
X103448500Y-79721158D01*
X103448500Y-79721155D01*
X103448499Y-79721153D01*
X103417737Y-79566503D01*
X103357394Y-79420821D01*
X103357390Y-79420814D01*
X103349598Y-79409153D01*
X103847500Y-79409153D01*
X103847500Y-79566846D01*
X103878261Y-79721489D01*
X103878264Y-79721501D01*
X103938602Y-79867172D01*
X103938609Y-79867185D01*
X104026210Y-79998288D01*
X104026213Y-79998292D01*
X104137707Y-80109786D01*
X104137711Y-80109789D01*
X104268814Y-80197390D01*
X104268827Y-80197397D01*
X104414498Y-80257735D01*
X104414503Y-80257737D01*
X104569153Y-80288499D01*
X104569156Y-80288500D01*
X104569158Y-80288500D01*
X104726844Y-80288500D01*
X104726845Y-80288499D01*
X104881497Y-80257737D01*
X105027179Y-80197394D01*
X105158289Y-80109789D01*
X105269789Y-79998289D01*
X105357394Y-79867179D01*
X105417737Y-79721497D01*
X105448500Y-79566842D01*
X105448500Y-79409158D01*
X105448500Y-79409155D01*
X105448499Y-79409153D01*
X105424740Y-79289711D01*
X105417737Y-79254503D01*
X105386136Y-79178210D01*
X105357397Y-79108827D01*
X105357390Y-79108814D01*
X105269789Y-78977711D01*
X105269786Y-78977707D01*
X105158292Y-78866213D01*
X105158288Y-78866210D01*
X105027185Y-78778609D01*
X105027172Y-78778602D01*
X104881501Y-78718264D01*
X104881489Y-78718261D01*
X104726845Y-78687500D01*
X104726842Y-78687500D01*
X104569158Y-78687500D01*
X104569155Y-78687500D01*
X104414510Y-78718261D01*
X104414498Y-78718264D01*
X104268827Y-78778602D01*
X104268814Y-78778609D01*
X104137711Y-78866210D01*
X104137707Y-78866213D01*
X104026213Y-78977707D01*
X104026210Y-78977711D01*
X103938609Y-79108814D01*
X103938602Y-79108827D01*
X103878264Y-79254498D01*
X103878261Y-79254510D01*
X103847500Y-79409153D01*
X103349598Y-79409153D01*
X103269789Y-79289711D01*
X103269786Y-79289707D01*
X103158292Y-79178213D01*
X103158288Y-79178210D01*
X103027185Y-79090609D01*
X103027172Y-79090602D01*
X102881501Y-79030264D01*
X102881489Y-79030261D01*
X102726845Y-78999500D01*
X102726842Y-78999500D01*
X102569158Y-78999500D01*
X102569155Y-78999500D01*
X102414510Y-79030261D01*
X102414498Y-79030264D01*
X102268827Y-79090602D01*
X102268814Y-79090609D01*
X102137711Y-79178210D01*
X102137707Y-79178213D01*
X102026213Y-79289707D01*
X102026210Y-79289711D01*
X101938609Y-79420814D01*
X101938602Y-79420827D01*
X101878264Y-79566498D01*
X101878261Y-79566510D01*
X101847500Y-79721153D01*
X80154059Y-79721153D01*
X79921945Y-79415799D01*
X79919461Y-79412415D01*
X79364306Y-78628349D01*
X79361938Y-78624882D01*
X78833627Y-77822443D01*
X78831379Y-77818898D01*
X78416683Y-77140058D01*
X78412065Y-77123642D01*
X78403523Y-77110350D01*
X78398500Y-77075415D01*
X78398500Y-76940153D01*
X101122500Y-76940153D01*
X101122500Y-77097846D01*
X101153261Y-77252489D01*
X101153264Y-77252501D01*
X101213602Y-77398172D01*
X101213609Y-77398185D01*
X101301210Y-77529288D01*
X101301213Y-77529292D01*
X101412707Y-77640786D01*
X101412711Y-77640789D01*
X101543814Y-77728390D01*
X101543827Y-77728397D01*
X101689498Y-77788735D01*
X101689503Y-77788737D01*
X101841132Y-77818898D01*
X101844153Y-77819499D01*
X101844156Y-77819500D01*
X101844158Y-77819500D01*
X102001844Y-77819500D01*
X102001845Y-77819499D01*
X102156497Y-77788737D01*
X102302179Y-77728394D01*
X102433289Y-77640789D01*
X102452925Y-77621153D01*
X105347500Y-77621153D01*
X105347500Y-77778846D01*
X105378261Y-77933489D01*
X105378264Y-77933501D01*
X105438602Y-78079172D01*
X105438609Y-78079185D01*
X105526210Y-78210288D01*
X105526213Y-78210292D01*
X105637707Y-78321786D01*
X105637711Y-78321789D01*
X105768814Y-78409390D01*
X105768827Y-78409397D01*
X105914498Y-78469735D01*
X105914503Y-78469737D01*
X106069153Y-78500499D01*
X106069156Y-78500500D01*
X106069158Y-78500500D01*
X106226844Y-78500500D01*
X106226845Y-78500499D01*
X106381497Y-78469737D01*
X106527179Y-78409394D01*
X106658289Y-78321789D01*
X106769789Y-78210289D01*
X106857394Y-78079179D01*
X106917737Y-77933497D01*
X106948500Y-77778842D01*
X106948500Y-77621158D01*
X106948500Y-77621155D01*
X106948499Y-77621153D01*
X106935987Y-77558252D01*
X106917737Y-77466503D01*
X106909185Y-77445857D01*
X106857397Y-77320827D01*
X106857390Y-77320814D01*
X106769789Y-77189711D01*
X106769786Y-77189707D01*
X106658292Y-77078213D01*
X106658288Y-77078210D01*
X106527185Y-76990609D01*
X106527172Y-76990602D01*
X106381501Y-76930264D01*
X106381489Y-76930261D01*
X106226845Y-76899500D01*
X106226842Y-76899500D01*
X106069158Y-76899500D01*
X106069155Y-76899500D01*
X105914510Y-76930261D01*
X105914498Y-76930264D01*
X105768827Y-76990602D01*
X105768814Y-76990609D01*
X105637711Y-77078210D01*
X105637707Y-77078213D01*
X105526213Y-77189707D01*
X105526210Y-77189711D01*
X105438609Y-77320814D01*
X105438602Y-77320827D01*
X105378264Y-77466498D01*
X105378261Y-77466510D01*
X105347500Y-77621153D01*
X102452925Y-77621153D01*
X102544789Y-77529289D01*
X102632394Y-77398179D01*
X102692737Y-77252497D01*
X102723500Y-77097842D01*
X102723500Y-76940158D01*
X102723500Y-76940155D01*
X102723499Y-76940153D01*
X102721531Y-76930261D01*
X102692737Y-76785503D01*
X102692735Y-76785498D01*
X102632397Y-76639827D01*
X102632390Y-76639814D01*
X102544789Y-76508711D01*
X102544786Y-76508707D01*
X102433292Y-76397213D01*
X102433288Y-76397210D01*
X102302185Y-76309609D01*
X102302172Y-76309602D01*
X102156501Y-76249264D01*
X102156489Y-76249261D01*
X102001845Y-76218500D01*
X102001842Y-76218500D01*
X101844158Y-76218500D01*
X101844155Y-76218500D01*
X101689510Y-76249261D01*
X101689498Y-76249264D01*
X101543827Y-76309602D01*
X101543814Y-76309609D01*
X101412711Y-76397210D01*
X101412707Y-76397213D01*
X101301213Y-76508707D01*
X101301210Y-76508711D01*
X101213609Y-76639814D01*
X101213602Y-76639827D01*
X101153264Y-76785498D01*
X101153261Y-76785510D01*
X101122500Y-76940153D01*
X78398500Y-76940153D01*
X78398500Y-75871153D01*
X103757500Y-75871153D01*
X103757500Y-76028846D01*
X103788261Y-76183489D01*
X103788264Y-76183501D01*
X103848602Y-76329172D01*
X103848609Y-76329185D01*
X103936210Y-76460288D01*
X103936213Y-76460292D01*
X104047707Y-76571786D01*
X104047711Y-76571789D01*
X104178814Y-76659390D01*
X104178827Y-76659397D01*
X104324498Y-76719735D01*
X104324503Y-76719737D01*
X104479153Y-76750499D01*
X104479156Y-76750500D01*
X104479158Y-76750500D01*
X104636844Y-76750500D01*
X104636845Y-76750499D01*
X104791497Y-76719737D01*
X104937179Y-76659394D01*
X105068289Y-76571789D01*
X105179789Y-76460289D01*
X105267394Y-76329179D01*
X105327737Y-76183497D01*
X105358500Y-76028842D01*
X105358500Y-75871158D01*
X105358500Y-75871155D01*
X105358499Y-75871153D01*
X105327738Y-75716510D01*
X105327737Y-75716503D01*
X105327735Y-75716498D01*
X105267397Y-75570827D01*
X105267390Y-75570814D01*
X105179789Y-75439711D01*
X105179786Y-75439707D01*
X105068292Y-75328213D01*
X105068288Y-75328210D01*
X104937185Y-75240609D01*
X104937172Y-75240602D01*
X104791501Y-75180264D01*
X104791489Y-75180261D01*
X104636845Y-75149500D01*
X104636842Y-75149500D01*
X104479158Y-75149500D01*
X104479155Y-75149500D01*
X104324510Y-75180261D01*
X104324498Y-75180264D01*
X104178827Y-75240602D01*
X104178814Y-75240609D01*
X104047711Y-75328210D01*
X104047707Y-75328213D01*
X103936213Y-75439707D01*
X103936210Y-75439711D01*
X103848609Y-75570814D01*
X103848602Y-75570827D01*
X103788264Y-75716498D01*
X103788261Y-75716510D01*
X103757500Y-75871153D01*
X78398500Y-75871153D01*
X78398500Y-74234304D01*
X121015500Y-74234304D01*
X121015500Y-74411695D01*
X121050103Y-74585658D01*
X121050106Y-74585667D01*
X121117983Y-74749540D01*
X121117990Y-74749553D01*
X121216535Y-74897034D01*
X121216538Y-74897038D01*
X121341961Y-75022461D01*
X121341965Y-75022464D01*
X121489446Y-75121009D01*
X121489459Y-75121016D01*
X121558227Y-75149500D01*
X121653334Y-75188894D01*
X121653336Y-75188894D01*
X121653341Y-75188896D01*
X121827304Y-75223499D01*
X121827307Y-75223500D01*
X121827309Y-75223500D01*
X122004693Y-75223500D01*
X122004694Y-75223499D01*
X122062682Y-75211964D01*
X122178658Y-75188896D01*
X122178661Y-75188894D01*
X122178666Y-75188894D01*
X122342547Y-75121013D01*
X122490035Y-75022464D01*
X122615464Y-74897035D01*
X122714013Y-74749547D01*
X122781894Y-74585666D01*
X122816500Y-74411691D01*
X122816500Y-74234309D01*
X122816500Y-74234306D01*
X122816499Y-74234304D01*
X122781896Y-74060341D01*
X122781893Y-74060332D01*
X122714016Y-73896459D01*
X122714009Y-73896446D01*
X122615464Y-73748965D01*
X122615461Y-73748961D01*
X122490038Y-73623538D01*
X122490034Y-73623535D01*
X122342553Y-73524990D01*
X122342540Y-73524983D01*
X122178667Y-73457106D01*
X122178658Y-73457103D01*
X122004694Y-73422500D01*
X122004691Y-73422500D01*
X121827309Y-73422500D01*
X121827306Y-73422500D01*
X121653341Y-73457103D01*
X121653332Y-73457106D01*
X121489459Y-73524983D01*
X121489446Y-73524990D01*
X121341965Y-73623535D01*
X121341961Y-73623538D01*
X121216538Y-73748961D01*
X121216535Y-73748965D01*
X121117990Y-73896446D01*
X121117983Y-73896459D01*
X121050106Y-74060332D01*
X121050103Y-74060341D01*
X121015500Y-74234304D01*
X78398500Y-74234304D01*
X78398500Y-73078043D01*
X91278499Y-73078043D01*
X91316947Y-73271329D01*
X91316950Y-73271339D01*
X91392364Y-73453407D01*
X91392371Y-73453420D01*
X91501860Y-73617281D01*
X91501863Y-73617285D01*
X91641214Y-73756636D01*
X91641218Y-73756639D01*
X91805079Y-73866128D01*
X91805092Y-73866135D01*
X91878302Y-73896459D01*
X91987165Y-73941551D01*
X91987169Y-73941551D01*
X91987170Y-73941552D01*
X92180456Y-73980000D01*
X92180459Y-73980000D01*
X92377543Y-73980000D01*
X92507582Y-73954132D01*
X92570835Y-73941551D01*
X92752914Y-73866132D01*
X92916782Y-73756639D01*
X93056139Y-73617282D01*
X93165632Y-73453414D01*
X93241051Y-73271335D01*
X93279500Y-73078043D01*
X114816499Y-73078043D01*
X114854947Y-73271329D01*
X114854950Y-73271339D01*
X114930364Y-73453407D01*
X114930371Y-73453420D01*
X115039860Y-73617281D01*
X115039863Y-73617285D01*
X115179214Y-73756636D01*
X115179218Y-73756639D01*
X115343079Y-73866128D01*
X115343092Y-73866135D01*
X115416302Y-73896459D01*
X115525165Y-73941551D01*
X115525169Y-73941551D01*
X115525170Y-73941552D01*
X115718456Y-73980000D01*
X115718459Y-73980000D01*
X115915543Y-73980000D01*
X116045582Y-73954132D01*
X116108835Y-73941551D01*
X116290914Y-73866132D01*
X116454782Y-73756639D01*
X116594139Y-73617282D01*
X116703632Y-73453414D01*
X116779051Y-73271335D01*
X116817500Y-73078041D01*
X116817500Y-72880959D01*
X116817500Y-72880956D01*
X116779052Y-72687670D01*
X116779051Y-72687669D01*
X116779051Y-72687665D01*
X116779049Y-72687660D01*
X116703635Y-72505592D01*
X116703628Y-72505579D01*
X116594139Y-72341718D01*
X116594136Y-72341714D01*
X116454785Y-72202363D01*
X116454781Y-72202360D01*
X116290920Y-72092871D01*
X116290907Y-72092864D01*
X116108839Y-72017450D01*
X116108829Y-72017447D01*
X115915543Y-71979000D01*
X115915541Y-71979000D01*
X115718459Y-71979000D01*
X115718457Y-71979000D01*
X115525170Y-72017447D01*
X115525160Y-72017450D01*
X115343092Y-72092864D01*
X115343079Y-72092871D01*
X115179218Y-72202360D01*
X115179214Y-72202363D01*
X115039863Y-72341714D01*
X115039860Y-72341718D01*
X114930371Y-72505579D01*
X114930364Y-72505592D01*
X114854950Y-72687660D01*
X114854947Y-72687670D01*
X114816500Y-72880956D01*
X114816500Y-72880959D01*
X114816500Y-73078041D01*
X114816500Y-73078043D01*
X114816499Y-73078043D01*
X93279500Y-73078043D01*
X93279500Y-73078041D01*
X93279500Y-72880959D01*
X93279500Y-72880956D01*
X93241052Y-72687670D01*
X93241051Y-72687669D01*
X93241051Y-72687665D01*
X93241049Y-72687660D01*
X93165635Y-72505592D01*
X93165628Y-72505579D01*
X93056139Y-72341718D01*
X93056136Y-72341714D01*
X92916785Y-72202363D01*
X92916781Y-72202360D01*
X92752920Y-72092871D01*
X92752907Y-72092864D01*
X92570839Y-72017450D01*
X92570829Y-72017447D01*
X92377543Y-71979000D01*
X92377541Y-71979000D01*
X92180459Y-71979000D01*
X92180457Y-71979000D01*
X91987170Y-72017447D01*
X91987160Y-72017450D01*
X91805092Y-72092864D01*
X91805079Y-72092871D01*
X91641218Y-72202360D01*
X91641214Y-72202363D01*
X91501863Y-72341714D01*
X91501860Y-72341718D01*
X91392371Y-72505579D01*
X91392364Y-72505592D01*
X91316950Y-72687660D01*
X91316947Y-72687670D01*
X91278500Y-72880956D01*
X91278500Y-72880959D01*
X91278500Y-73078041D01*
X91278500Y-73078043D01*
X91278499Y-73078043D01*
X78398500Y-73078043D01*
X78398500Y-64621153D01*
X95112500Y-64621153D01*
X95112500Y-64778846D01*
X95143261Y-64933489D01*
X95143264Y-64933501D01*
X95203602Y-65079172D01*
X95203609Y-65079185D01*
X95291210Y-65210288D01*
X95291213Y-65210292D01*
X95402707Y-65321786D01*
X95402711Y-65321789D01*
X95533814Y-65409390D01*
X95533827Y-65409397D01*
X95679498Y-65469735D01*
X95679503Y-65469737D01*
X95834153Y-65500499D01*
X95834156Y-65500500D01*
X95834158Y-65500500D01*
X95991844Y-65500500D01*
X95991845Y-65500499D01*
X96146497Y-65469737D01*
X96292179Y-65409394D01*
X96423289Y-65321789D01*
X96423292Y-65321786D01*
X96460319Y-65284760D01*
X96521642Y-65251275D01*
X96591334Y-65256259D01*
X96635681Y-65284760D01*
X96672707Y-65321786D01*
X96672711Y-65321789D01*
X96803814Y-65409390D01*
X96803827Y-65409397D01*
X96949498Y-65469735D01*
X96949503Y-65469737D01*
X97104153Y-65500499D01*
X97104156Y-65500500D01*
X97104158Y-65500500D01*
X97261844Y-65500500D01*
X97261845Y-65500499D01*
X97416497Y-65469737D01*
X97562179Y-65409394D01*
X97693289Y-65321789D01*
X97693292Y-65321786D01*
X97730319Y-65284760D01*
X97791642Y-65251275D01*
X97861334Y-65256259D01*
X97905681Y-65284760D01*
X97942707Y-65321786D01*
X97942711Y-65321789D01*
X98073814Y-65409390D01*
X98073827Y-65409397D01*
X98219498Y-65469735D01*
X98219503Y-65469737D01*
X98374153Y-65500499D01*
X98374156Y-65500500D01*
X98374158Y-65500500D01*
X98531844Y-65500500D01*
X98531845Y-65500499D01*
X98686497Y-65469737D01*
X98832179Y-65409394D01*
X98963289Y-65321789D01*
X98963292Y-65321786D01*
X99000319Y-65284760D01*
X99061642Y-65251275D01*
X99131334Y-65256259D01*
X99175681Y-65284760D01*
X99212707Y-65321786D01*
X99212711Y-65321789D01*
X99343814Y-65409390D01*
X99343827Y-65409397D01*
X99489498Y-65469735D01*
X99489503Y-65469737D01*
X99644153Y-65500499D01*
X99644156Y-65500500D01*
X99644158Y-65500500D01*
X99801844Y-65500500D01*
X99801845Y-65500499D01*
X99956497Y-65469737D01*
X100102179Y-65409394D01*
X100233289Y-65321789D01*
X100233292Y-65321786D01*
X100270319Y-65284760D01*
X100331642Y-65251275D01*
X100401334Y-65256259D01*
X100445681Y-65284760D01*
X100482707Y-65321786D01*
X100482711Y-65321789D01*
X100613814Y-65409390D01*
X100613827Y-65409397D01*
X100759498Y-65469735D01*
X100759503Y-65469737D01*
X100914153Y-65500499D01*
X100914156Y-65500500D01*
X100914158Y-65500500D01*
X101071844Y-65500500D01*
X101071845Y-65500499D01*
X101226497Y-65469737D01*
X101372179Y-65409394D01*
X101503289Y-65321789D01*
X101503292Y-65321786D01*
X101540319Y-65284760D01*
X101601642Y-65251275D01*
X101671334Y-65256259D01*
X101715681Y-65284760D01*
X101752707Y-65321786D01*
X101752711Y-65321789D01*
X101883814Y-65409390D01*
X101883827Y-65409397D01*
X102029498Y-65469735D01*
X102029503Y-65469737D01*
X102184153Y-65500499D01*
X102184156Y-65500500D01*
X102184158Y-65500500D01*
X102341844Y-65500500D01*
X102341845Y-65500499D01*
X102496497Y-65469737D01*
X102642179Y-65409394D01*
X102773289Y-65321789D01*
X102773292Y-65321786D01*
X102810319Y-65284760D01*
X102871642Y-65251275D01*
X102941334Y-65256259D01*
X102985681Y-65284760D01*
X103022707Y-65321786D01*
X103022711Y-65321789D01*
X103153814Y-65409390D01*
X103153827Y-65409397D01*
X103299498Y-65469735D01*
X103299503Y-65469737D01*
X103454153Y-65500499D01*
X103454156Y-65500500D01*
X103454158Y-65500500D01*
X103611844Y-65500500D01*
X103611845Y-65500499D01*
X103766497Y-65469737D01*
X103912179Y-65409394D01*
X104043289Y-65321789D01*
X104043292Y-65321786D01*
X104080319Y-65284760D01*
X104141642Y-65251275D01*
X104211334Y-65256259D01*
X104255681Y-65284760D01*
X104292707Y-65321786D01*
X104292711Y-65321789D01*
X104423814Y-65409390D01*
X104423827Y-65409397D01*
X104569498Y-65469735D01*
X104569503Y-65469737D01*
X104724153Y-65500499D01*
X104724156Y-65500500D01*
X104724158Y-65500500D01*
X104881844Y-65500500D01*
X104881845Y-65500499D01*
X105036497Y-65469737D01*
X105182179Y-65409394D01*
X105313289Y-65321789D01*
X105313292Y-65321786D01*
X105350319Y-65284760D01*
X105411642Y-65251275D01*
X105481334Y-65256259D01*
X105525681Y-65284760D01*
X105562707Y-65321786D01*
X105562711Y-65321789D01*
X105693814Y-65409390D01*
X105693827Y-65409397D01*
X105839498Y-65469735D01*
X105839503Y-65469737D01*
X105994153Y-65500499D01*
X105994156Y-65500500D01*
X105994158Y-65500500D01*
X106151844Y-65500500D01*
X106151845Y-65500499D01*
X106306497Y-65469737D01*
X106452179Y-65409394D01*
X106583289Y-65321789D01*
X106583292Y-65321786D01*
X106620319Y-65284760D01*
X106681642Y-65251275D01*
X106751334Y-65256259D01*
X106795681Y-65284760D01*
X106832707Y-65321786D01*
X106832711Y-65321789D01*
X106963814Y-65409390D01*
X106963827Y-65409397D01*
X107109498Y-65469735D01*
X107109503Y-65469737D01*
X107264153Y-65500499D01*
X107264156Y-65500500D01*
X107264158Y-65500500D01*
X107421844Y-65500500D01*
X107421845Y-65500499D01*
X107576497Y-65469737D01*
X107722179Y-65409394D01*
X107853289Y-65321789D01*
X107853292Y-65321786D01*
X107890319Y-65284760D01*
X107951642Y-65251275D01*
X108021334Y-65256259D01*
X108065681Y-65284760D01*
X108102707Y-65321786D01*
X108102711Y-65321789D01*
X108233814Y-65409390D01*
X108233827Y-65409397D01*
X108379498Y-65469735D01*
X108379503Y-65469737D01*
X108534153Y-65500499D01*
X108534156Y-65500500D01*
X108534158Y-65500500D01*
X108691844Y-65500500D01*
X108691845Y-65500499D01*
X108846497Y-65469737D01*
X108992179Y-65409394D01*
X109123289Y-65321789D01*
X109234789Y-65210289D01*
X109322394Y-65079179D01*
X109382737Y-64933497D01*
X109413500Y-64778842D01*
X109413500Y-64621158D01*
X109413500Y-64621155D01*
X109413499Y-64621153D01*
X109382738Y-64466510D01*
X109382737Y-64466503D01*
X109382735Y-64466498D01*
X109322397Y-64320827D01*
X109322390Y-64320814D01*
X109234789Y-64189711D01*
X109234786Y-64189707D01*
X109123292Y-64078213D01*
X109123288Y-64078210D01*
X108992185Y-63990609D01*
X108992172Y-63990602D01*
X108846501Y-63930264D01*
X108846489Y-63930261D01*
X108691845Y-63899500D01*
X108691842Y-63899500D01*
X108534158Y-63899500D01*
X108534155Y-63899500D01*
X108379510Y-63930261D01*
X108379498Y-63930264D01*
X108233827Y-63990602D01*
X108233814Y-63990609D01*
X108102711Y-64078210D01*
X108102707Y-64078213D01*
X108065681Y-64115240D01*
X108004358Y-64148725D01*
X107934666Y-64143741D01*
X107890319Y-64115240D01*
X107853292Y-64078213D01*
X107853288Y-64078210D01*
X107722185Y-63990609D01*
X107722172Y-63990602D01*
X107576501Y-63930264D01*
X107576489Y-63930261D01*
X107421845Y-63899500D01*
X107421842Y-63899500D01*
X107264158Y-63899500D01*
X107264155Y-63899500D01*
X107109510Y-63930261D01*
X107109498Y-63930264D01*
X106963827Y-63990602D01*
X106963814Y-63990609D01*
X106832711Y-64078210D01*
X106832707Y-64078213D01*
X106795681Y-64115240D01*
X106734358Y-64148725D01*
X106664666Y-64143741D01*
X106620319Y-64115240D01*
X106583292Y-64078213D01*
X106583288Y-64078210D01*
X106452185Y-63990609D01*
X106452172Y-63990602D01*
X106306501Y-63930264D01*
X106306489Y-63930261D01*
X106151845Y-63899500D01*
X106151842Y-63899500D01*
X105994158Y-63899500D01*
X105994155Y-63899500D01*
X105839510Y-63930261D01*
X105839498Y-63930264D01*
X105693827Y-63990602D01*
X105693814Y-63990609D01*
X105562711Y-64078210D01*
X105562707Y-64078213D01*
X105525681Y-64115240D01*
X105464358Y-64148725D01*
X105394666Y-64143741D01*
X105350319Y-64115240D01*
X105313292Y-64078213D01*
X105313288Y-64078210D01*
X105182185Y-63990609D01*
X105182172Y-63990602D01*
X105036501Y-63930264D01*
X105036489Y-63930261D01*
X104881845Y-63899500D01*
X104881842Y-63899500D01*
X104724158Y-63899500D01*
X104724155Y-63899500D01*
X104569510Y-63930261D01*
X104569498Y-63930264D01*
X104423827Y-63990602D01*
X104423814Y-63990609D01*
X104292711Y-64078210D01*
X104292707Y-64078213D01*
X104255681Y-64115240D01*
X104194358Y-64148725D01*
X104124666Y-64143741D01*
X104080319Y-64115240D01*
X104043292Y-64078213D01*
X104043288Y-64078210D01*
X103912185Y-63990609D01*
X103912172Y-63990602D01*
X103766501Y-63930264D01*
X103766489Y-63930261D01*
X103611845Y-63899500D01*
X103611842Y-63899500D01*
X103454158Y-63899500D01*
X103454155Y-63899500D01*
X103299510Y-63930261D01*
X103299498Y-63930264D01*
X103153827Y-63990602D01*
X103153814Y-63990609D01*
X103022711Y-64078210D01*
X103022707Y-64078213D01*
X102985681Y-64115240D01*
X102924358Y-64148725D01*
X102854666Y-64143741D01*
X102810319Y-64115240D01*
X102773292Y-64078213D01*
X102773288Y-64078210D01*
X102642185Y-63990609D01*
X102642172Y-63990602D01*
X102496501Y-63930264D01*
X102496489Y-63930261D01*
X102341845Y-63899500D01*
X102341842Y-63899500D01*
X102184158Y-63899500D01*
X102184155Y-63899500D01*
X102029510Y-63930261D01*
X102029498Y-63930264D01*
X101883827Y-63990602D01*
X101883814Y-63990609D01*
X101752711Y-64078210D01*
X101752707Y-64078213D01*
X101715681Y-64115240D01*
X101654358Y-64148725D01*
X101584666Y-64143741D01*
X101540319Y-64115240D01*
X101503292Y-64078213D01*
X101503288Y-64078210D01*
X101372185Y-63990609D01*
X101372172Y-63990602D01*
X101226501Y-63930264D01*
X101226489Y-63930261D01*
X101071845Y-63899500D01*
X101071842Y-63899500D01*
X100914158Y-63899500D01*
X100914155Y-63899500D01*
X100759510Y-63930261D01*
X100759498Y-63930264D01*
X100613827Y-63990602D01*
X100613814Y-63990609D01*
X100482711Y-64078210D01*
X100482707Y-64078213D01*
X100445681Y-64115240D01*
X100384358Y-64148725D01*
X100314666Y-64143741D01*
X100270319Y-64115240D01*
X100233292Y-64078213D01*
X100233288Y-64078210D01*
X100102185Y-63990609D01*
X100102172Y-63990602D01*
X99956501Y-63930264D01*
X99956489Y-63930261D01*
X99801845Y-63899500D01*
X99801842Y-63899500D01*
X99644158Y-63899500D01*
X99644155Y-63899500D01*
X99489510Y-63930261D01*
X99489498Y-63930264D01*
X99343827Y-63990602D01*
X99343814Y-63990609D01*
X99212711Y-64078210D01*
X99212707Y-64078213D01*
X99175681Y-64115240D01*
X99114358Y-64148725D01*
X99044666Y-64143741D01*
X99000319Y-64115240D01*
X98963292Y-64078213D01*
X98963288Y-64078210D01*
X98832185Y-63990609D01*
X98832172Y-63990602D01*
X98686501Y-63930264D01*
X98686489Y-63930261D01*
X98531845Y-63899500D01*
X98531842Y-63899500D01*
X98374158Y-63899500D01*
X98374155Y-63899500D01*
X98219510Y-63930261D01*
X98219498Y-63930264D01*
X98073827Y-63990602D01*
X98073814Y-63990609D01*
X97942711Y-64078210D01*
X97942707Y-64078213D01*
X97905681Y-64115240D01*
X97844358Y-64148725D01*
X97774666Y-64143741D01*
X97730319Y-64115240D01*
X97693292Y-64078213D01*
X97693288Y-64078210D01*
X97562185Y-63990609D01*
X97562172Y-63990602D01*
X97416501Y-63930264D01*
X97416489Y-63930261D01*
X97261845Y-63899500D01*
X97261842Y-63899500D01*
X97104158Y-63899500D01*
X97104155Y-63899500D01*
X96949510Y-63930261D01*
X96949498Y-63930264D01*
X96803827Y-63990602D01*
X96803814Y-63990609D01*
X96672711Y-64078210D01*
X96672707Y-64078213D01*
X96635681Y-64115240D01*
X96574358Y-64148725D01*
X96504666Y-64143741D01*
X96460319Y-64115240D01*
X96423292Y-64078213D01*
X96423288Y-64078210D01*
X96292185Y-63990609D01*
X96292172Y-63990602D01*
X96146501Y-63930264D01*
X96146489Y-63930261D01*
X95991845Y-63899500D01*
X95991842Y-63899500D01*
X95834158Y-63899500D01*
X95834155Y-63899500D01*
X95679510Y-63930261D01*
X95679498Y-63930264D01*
X95533827Y-63990602D01*
X95533814Y-63990609D01*
X95402711Y-64078210D01*
X95402707Y-64078213D01*
X95291213Y-64189707D01*
X95291210Y-64189711D01*
X95203609Y-64320814D01*
X95203602Y-64320827D01*
X95143264Y-64466498D01*
X95143261Y-64466510D01*
X95112500Y-64621153D01*
X78398500Y-64621153D01*
X78398500Y-61871153D01*
X112147500Y-61871153D01*
X112147500Y-62028846D01*
X112178261Y-62183489D01*
X112178264Y-62183501D01*
X112238602Y-62329172D01*
X112238609Y-62329185D01*
X112326210Y-62460288D01*
X112326213Y-62460292D01*
X112437707Y-62571786D01*
X112437711Y-62571789D01*
X112568814Y-62659390D01*
X112568827Y-62659397D01*
X112714498Y-62719735D01*
X112714503Y-62719737D01*
X112869153Y-62750499D01*
X112869156Y-62750500D01*
X112869158Y-62750500D01*
X113026844Y-62750500D01*
X113026845Y-62750499D01*
X113181497Y-62719737D01*
X113327179Y-62659394D01*
X113458289Y-62571789D01*
X113569789Y-62460289D01*
X113657394Y-62329179D01*
X113717737Y-62183497D01*
X113748500Y-62028842D01*
X113748500Y-61871158D01*
X113748500Y-61871155D01*
X113748499Y-61871153D01*
X113717738Y-61716510D01*
X113717737Y-61716503D01*
X113691244Y-61652543D01*
X122092499Y-61652543D01*
X122130947Y-61845829D01*
X122130950Y-61845839D01*
X122206364Y-62027907D01*
X122206371Y-62027920D01*
X122315860Y-62191781D01*
X122315863Y-62191785D01*
X122455214Y-62331136D01*
X122455218Y-62331139D01*
X122619079Y-62440628D01*
X122619092Y-62440635D01*
X122801160Y-62516049D01*
X122801165Y-62516051D01*
X122801169Y-62516051D01*
X122801170Y-62516052D01*
X122994456Y-62554500D01*
X122994459Y-62554500D01*
X123191543Y-62554500D01*
X123321582Y-62528632D01*
X123384835Y-62516051D01*
X123566914Y-62440632D01*
X123730782Y-62331139D01*
X123870139Y-62191782D01*
X123979632Y-62027914D01*
X124055051Y-61845835D01*
X124093500Y-61652541D01*
X124093500Y-61455459D01*
X124093500Y-61455456D01*
X124055052Y-61262170D01*
X124055051Y-61262169D01*
X124055051Y-61262165D01*
X124046121Y-61240606D01*
X123979635Y-61080092D01*
X123979628Y-61080079D01*
X123870139Y-60916218D01*
X123870136Y-60916214D01*
X123730785Y-60776863D01*
X123730781Y-60776860D01*
X123566920Y-60667371D01*
X123566907Y-60667364D01*
X123384839Y-60591950D01*
X123384829Y-60591947D01*
X123191543Y-60553500D01*
X123191541Y-60553500D01*
X122994459Y-60553500D01*
X122994457Y-60553500D01*
X122801170Y-60591947D01*
X122801160Y-60591950D01*
X122619092Y-60667364D01*
X122619079Y-60667371D01*
X122455218Y-60776860D01*
X122455214Y-60776863D01*
X122315863Y-60916214D01*
X122315860Y-60916218D01*
X122206371Y-61080079D01*
X122206364Y-61080092D01*
X122130950Y-61262160D01*
X122130947Y-61262170D01*
X122092500Y-61455456D01*
X122092500Y-61455459D01*
X122092500Y-61652541D01*
X122092500Y-61652543D01*
X122092499Y-61652543D01*
X113691244Y-61652543D01*
X113657397Y-61570827D01*
X113657390Y-61570814D01*
X113622273Y-61518258D01*
X113569789Y-61439711D01*
X113569786Y-61439707D01*
X113458292Y-61328213D01*
X113458288Y-61328210D01*
X113327185Y-61240609D01*
X113327172Y-61240602D01*
X113181501Y-61180264D01*
X113181489Y-61180261D01*
X113026845Y-61149500D01*
X113026842Y-61149500D01*
X112869158Y-61149500D01*
X112869155Y-61149500D01*
X112714510Y-61180261D01*
X112714498Y-61180264D01*
X112568827Y-61240602D01*
X112568814Y-61240609D01*
X112437711Y-61328210D01*
X112437707Y-61328213D01*
X112326213Y-61439707D01*
X112326210Y-61439711D01*
X112238609Y-61570814D01*
X112238602Y-61570827D01*
X112178264Y-61716498D01*
X112178261Y-61716510D01*
X112147500Y-61871153D01*
X78398500Y-61871153D01*
X78398500Y-53901153D01*
X112411500Y-53901153D01*
X112411500Y-54058846D01*
X112442261Y-54213489D01*
X112442264Y-54213501D01*
X112502602Y-54359172D01*
X112502609Y-54359185D01*
X112590210Y-54490288D01*
X112590213Y-54490292D01*
X112701707Y-54601786D01*
X112701711Y-54601789D01*
X112832814Y-54689390D01*
X112832827Y-54689397D01*
X112978498Y-54749735D01*
X112978503Y-54749737D01*
X113133153Y-54780499D01*
X113133156Y-54780500D01*
X113296934Y-54780500D01*
X113296934Y-54782407D01*
X113356872Y-54793764D01*
X113407591Y-54841820D01*
X113424278Y-54909667D01*
X113401634Y-54975766D01*
X113388082Y-54991839D01*
X113290210Y-55089711D01*
X113202609Y-55220814D01*
X113202602Y-55220827D01*
X113142264Y-55366498D01*
X113142261Y-55366510D01*
X113111500Y-55521153D01*
X113111500Y-55678846D01*
X113142261Y-55833489D01*
X113142264Y-55833501D01*
X113202602Y-55979172D01*
X113202609Y-55979185D01*
X113290210Y-56110288D01*
X113290213Y-56110292D01*
X113327240Y-56147319D01*
X113360725Y-56208642D01*
X113355741Y-56278334D01*
X113327240Y-56322681D01*
X113290213Y-56359707D01*
X113290210Y-56359711D01*
X113202609Y-56490814D01*
X113202602Y-56490827D01*
X113142264Y-56636498D01*
X113142261Y-56636510D01*
X113111500Y-56791153D01*
X113111500Y-56948846D01*
X113142261Y-57103489D01*
X113142264Y-57103501D01*
X113202602Y-57249172D01*
X113202609Y-57249185D01*
X113290210Y-57380288D01*
X113290213Y-57380292D01*
X113388081Y-57478160D01*
X113421566Y-57539483D01*
X113416582Y-57609175D01*
X113374710Y-57665108D01*
X113309246Y-57689525D01*
X113296934Y-57689360D01*
X113296934Y-57689500D01*
X113133155Y-57689500D01*
X112978510Y-57720261D01*
X112978498Y-57720264D01*
X112832827Y-57780602D01*
X112832814Y-57780609D01*
X112701711Y-57868210D01*
X112701707Y-57868213D01*
X112590213Y-57979707D01*
X112590210Y-57979711D01*
X112502609Y-58110814D01*
X112502602Y-58110827D01*
X112442264Y-58256498D01*
X112442261Y-58256510D01*
X112411500Y-58411153D01*
X112411500Y-58568846D01*
X112442261Y-58723489D01*
X112442264Y-58723501D01*
X112502602Y-58869172D01*
X112502609Y-58869185D01*
X112590210Y-59000288D01*
X112590213Y-59000292D01*
X112701707Y-59111786D01*
X112701711Y-59111789D01*
X112832814Y-59199390D01*
X112832827Y-59199397D01*
X112978498Y-59259735D01*
X112978503Y-59259737D01*
X113133153Y-59290499D01*
X113133156Y-59290500D01*
X113133158Y-59290500D01*
X113290844Y-59290500D01*
X113290845Y-59290499D01*
X113445497Y-59259737D01*
X113591179Y-59199394D01*
X113722289Y-59111789D01*
X113833789Y-59000289D01*
X113921394Y-58869179D01*
X113981737Y-58723497D01*
X114012500Y-58568842D01*
X114012500Y-58411158D01*
X114012500Y-58411155D01*
X114012499Y-58411153D01*
X113981738Y-58256510D01*
X113981737Y-58256503D01*
X113981735Y-58256498D01*
X113921397Y-58110827D01*
X113921390Y-58110814D01*
X113833789Y-57979711D01*
X113833786Y-57979707D01*
X113735918Y-57881839D01*
X113702433Y-57820516D01*
X113707417Y-57750824D01*
X113749289Y-57694891D01*
X113814753Y-57670474D01*
X113827066Y-57670639D01*
X113827066Y-57670500D01*
X113990844Y-57670500D01*
X113990845Y-57670499D01*
X114145497Y-57639737D01*
X114291179Y-57579394D01*
X114422289Y-57491789D01*
X114533789Y-57380289D01*
X114621394Y-57249179D01*
X114681737Y-57103497D01*
X114712500Y-56948842D01*
X114712500Y-56791158D01*
X114712500Y-56791155D01*
X114712499Y-56791153D01*
X114681738Y-56636510D01*
X114681737Y-56636503D01*
X114681735Y-56636498D01*
X114621397Y-56490827D01*
X114621390Y-56490814D01*
X114533789Y-56359711D01*
X114533786Y-56359707D01*
X114496760Y-56322681D01*
X114463275Y-56261358D01*
X114468259Y-56191666D01*
X114496760Y-56147319D01*
X114533786Y-56110292D01*
X114533789Y-56110289D01*
X114621394Y-55979179D01*
X114681737Y-55833497D01*
X114712500Y-55678842D01*
X114712500Y-55521158D01*
X114712500Y-55521155D01*
X114712499Y-55521153D01*
X114681738Y-55366510D01*
X114681737Y-55366503D01*
X114681735Y-55366498D01*
X114621397Y-55220827D01*
X114621390Y-55220814D01*
X114533789Y-55089711D01*
X114533786Y-55089707D01*
X114422292Y-54978213D01*
X114422288Y-54978210D01*
X114291185Y-54890609D01*
X114291172Y-54890602D01*
X114145501Y-54830264D01*
X114145489Y-54830261D01*
X113990845Y-54799500D01*
X113990842Y-54799500D01*
X113833158Y-54799500D01*
X113827066Y-54799500D01*
X113827066Y-54797600D01*
X113767092Y-54786218D01*
X113716388Y-54738146D01*
X113699723Y-54670293D01*
X113722388Y-54604201D01*
X113735912Y-54588165D01*
X113833789Y-54490289D01*
X113921394Y-54359179D01*
X113981737Y-54213497D01*
X114012500Y-54058842D01*
X114012500Y-53901158D01*
X114012500Y-53901155D01*
X114012499Y-53901153D01*
X113981738Y-53746510D01*
X113981737Y-53746503D01*
X113981735Y-53746498D01*
X113921397Y-53600827D01*
X113921390Y-53600814D01*
X113833789Y-53469711D01*
X113833786Y-53469707D01*
X113722292Y-53358213D01*
X113722288Y-53358210D01*
X113591185Y-53270609D01*
X113591172Y-53270602D01*
X113445501Y-53210264D01*
X113445489Y-53210261D01*
X113290845Y-53179500D01*
X113290842Y-53179500D01*
X113133158Y-53179500D01*
X113133155Y-53179500D01*
X112978510Y-53210261D01*
X112978498Y-53210264D01*
X112832827Y-53270602D01*
X112832814Y-53270609D01*
X112701711Y-53358210D01*
X112701707Y-53358213D01*
X112590213Y-53469707D01*
X112590210Y-53469711D01*
X112502609Y-53600814D01*
X112502602Y-53600827D01*
X112442264Y-53746498D01*
X112442261Y-53746510D01*
X112411500Y-53901153D01*
X78398500Y-53901153D01*
X78398500Y-49967153D01*
X86516500Y-49967153D01*
X86516500Y-50124846D01*
X86547261Y-50279489D01*
X86547264Y-50279501D01*
X86607602Y-50425172D01*
X86607609Y-50425185D01*
X86695210Y-50556288D01*
X86695213Y-50556292D01*
X86806707Y-50667786D01*
X86806711Y-50667789D01*
X86937814Y-50755390D01*
X86937827Y-50755397D01*
X87083498Y-50815735D01*
X87083503Y-50815737D01*
X87238153Y-50846499D01*
X87238156Y-50846500D01*
X87238158Y-50846500D01*
X87395844Y-50846500D01*
X87395845Y-50846499D01*
X87550497Y-50815737D01*
X87696179Y-50755394D01*
X87827289Y-50667789D01*
X87938789Y-50556289D01*
X88026394Y-50425179D01*
X88086737Y-50279497D01*
X88117500Y-50124842D01*
X88117500Y-49967158D01*
X88117500Y-49967155D01*
X88117499Y-49967153D01*
X88106826Y-49913499D01*
X88086737Y-49812503D01*
X88065111Y-49760292D01*
X88026397Y-49666827D01*
X88026390Y-49666814D01*
X87938789Y-49535711D01*
X87938786Y-49535707D01*
X87827292Y-49424213D01*
X87827288Y-49424210D01*
X87696185Y-49336609D01*
X87696172Y-49336602D01*
X87550501Y-49276264D01*
X87550489Y-49276261D01*
X87395845Y-49245500D01*
X87395842Y-49245500D01*
X87238158Y-49245500D01*
X87238155Y-49245500D01*
X87083510Y-49276261D01*
X87083498Y-49276264D01*
X86937827Y-49336602D01*
X86937814Y-49336609D01*
X86806711Y-49424210D01*
X86806707Y-49424213D01*
X86695213Y-49535707D01*
X86695210Y-49535711D01*
X86607609Y-49666814D01*
X86607602Y-49666827D01*
X86547264Y-49812498D01*
X86547261Y-49812510D01*
X86516500Y-49967153D01*
X78398500Y-49967153D01*
X78398500Y-49034153D01*
X91044500Y-49034153D01*
X91044500Y-49191846D01*
X91075261Y-49346489D01*
X91075264Y-49346501D01*
X91135602Y-49492172D01*
X91135609Y-49492185D01*
X91223210Y-49623288D01*
X91223213Y-49623292D01*
X91334707Y-49734786D01*
X91334711Y-49734789D01*
X91465814Y-49822390D01*
X91465827Y-49822397D01*
X91585072Y-49871789D01*
X91611503Y-49882737D01*
X91755390Y-49911358D01*
X91766153Y-49913499D01*
X91766156Y-49913500D01*
X91766158Y-49913500D01*
X91923844Y-49913500D01*
X91923845Y-49913499D01*
X92078497Y-49882737D01*
X92224179Y-49822394D01*
X92355289Y-49734789D01*
X92466789Y-49623289D01*
X92554394Y-49492179D01*
X92557994Y-49483489D01*
X92614735Y-49346501D01*
X92614737Y-49346497D01*
X92645500Y-49191842D01*
X92645500Y-49171153D01*
X112147500Y-49171153D01*
X112147500Y-49328846D01*
X112178261Y-49483489D01*
X112178264Y-49483501D01*
X112238602Y-49629172D01*
X112238609Y-49629185D01*
X112326210Y-49760288D01*
X112326213Y-49760292D01*
X112363240Y-49797319D01*
X112396725Y-49858642D01*
X112391741Y-49928334D01*
X112363240Y-49972681D01*
X112326213Y-50009707D01*
X112326210Y-50009711D01*
X112238609Y-50140814D01*
X112238602Y-50140827D01*
X112178264Y-50286498D01*
X112178261Y-50286510D01*
X112147500Y-50441153D01*
X112147500Y-50598846D01*
X112178261Y-50753489D01*
X112178264Y-50753501D01*
X112238602Y-50899172D01*
X112238609Y-50899185D01*
X112326210Y-51030288D01*
X112326213Y-51030292D01*
X112437707Y-51141786D01*
X112437711Y-51141789D01*
X112568814Y-51229390D01*
X112568827Y-51229397D01*
X112714498Y-51289735D01*
X112714503Y-51289737D01*
X112869153Y-51320499D01*
X112869156Y-51320500D01*
X112869158Y-51320500D01*
X113026844Y-51320500D01*
X113026845Y-51320499D01*
X113181497Y-51289737D01*
X113327179Y-51229394D01*
X113458289Y-51141789D01*
X113569789Y-51030289D01*
X113657394Y-50899179D01*
X113717737Y-50753497D01*
X113748500Y-50598842D01*
X113748500Y-50441158D01*
X113748500Y-50441155D01*
X113748499Y-50441153D01*
X113717738Y-50286510D01*
X113717737Y-50286503D01*
X113714832Y-50279489D01*
X113657397Y-50140827D01*
X113657390Y-50140814D01*
X113569789Y-50009711D01*
X113569786Y-50009707D01*
X113532760Y-49972681D01*
X113499275Y-49911358D01*
X113504259Y-49841666D01*
X113532760Y-49797319D01*
X113569786Y-49760292D01*
X113569789Y-49760289D01*
X113657394Y-49629179D01*
X113659833Y-49623292D01*
X113714141Y-49492179D01*
X113717737Y-49483497D01*
X113748500Y-49328842D01*
X113748500Y-49171158D01*
X113748500Y-49171155D01*
X113748499Y-49171153D01*
X113717737Y-49016503D01*
X113717735Y-49016498D01*
X113657397Y-48870827D01*
X113657390Y-48870814D01*
X113569789Y-48739711D01*
X113569786Y-48739707D01*
X113458292Y-48628213D01*
X113458288Y-48628210D01*
X113327185Y-48540609D01*
X113327172Y-48540602D01*
X113181501Y-48480264D01*
X113181489Y-48480261D01*
X113026845Y-48449500D01*
X113026842Y-48449500D01*
X112869158Y-48449500D01*
X112869155Y-48449500D01*
X112714510Y-48480261D01*
X112714498Y-48480264D01*
X112568827Y-48540602D01*
X112568814Y-48540609D01*
X112437711Y-48628210D01*
X112437707Y-48628213D01*
X112326213Y-48739707D01*
X112326210Y-48739711D01*
X112238609Y-48870814D01*
X112238602Y-48870827D01*
X112178264Y-49016498D01*
X112178261Y-49016510D01*
X112147500Y-49171153D01*
X92645500Y-49171153D01*
X92645500Y-49034158D01*
X92645500Y-49034155D01*
X92645499Y-49034153D01*
X92614738Y-48879510D01*
X92614737Y-48879503D01*
X92556834Y-48739711D01*
X92554397Y-48733827D01*
X92554390Y-48733814D01*
X92466789Y-48602711D01*
X92466786Y-48602707D01*
X92355292Y-48491213D01*
X92355288Y-48491210D01*
X92224185Y-48403609D01*
X92224172Y-48403602D01*
X92078501Y-48343264D01*
X92078489Y-48343261D01*
X91923845Y-48312500D01*
X91923842Y-48312500D01*
X91766158Y-48312500D01*
X91766155Y-48312500D01*
X91611510Y-48343261D01*
X91611498Y-48343264D01*
X91465827Y-48403602D01*
X91465814Y-48403609D01*
X91334711Y-48491210D01*
X91334707Y-48491213D01*
X91223213Y-48602707D01*
X91223210Y-48602711D01*
X91135609Y-48733814D01*
X91135602Y-48733827D01*
X91075264Y-48879498D01*
X91075261Y-48879510D01*
X91044500Y-49034153D01*
X78398500Y-49034153D01*
X78398500Y-48032583D01*
X78416683Y-47967940D01*
X78451081Y-47911632D01*
X78831386Y-47289088D01*
X78833627Y-47285556D01*
X78907834Y-47172845D01*
X78940294Y-47123543D01*
X88249499Y-47123543D01*
X88287947Y-47316829D01*
X88287950Y-47316839D01*
X88363364Y-47498907D01*
X88363371Y-47498920D01*
X88472860Y-47662781D01*
X88472863Y-47662785D01*
X88612214Y-47802136D01*
X88612218Y-47802139D01*
X88776079Y-47911628D01*
X88776092Y-47911635D01*
X88958160Y-47987049D01*
X88958165Y-47987051D01*
X88958169Y-47987051D01*
X88958170Y-47987052D01*
X89151456Y-48025500D01*
X89151459Y-48025500D01*
X89348543Y-48025500D01*
X89488274Y-47997705D01*
X89541835Y-47987051D01*
X89701404Y-47920956D01*
X89723907Y-47911635D01*
X89723907Y-47911634D01*
X89723914Y-47911632D01*
X89887782Y-47802139D01*
X90027139Y-47662782D01*
X90136632Y-47498914D01*
X90212051Y-47316835D01*
X90250500Y-47123541D01*
X90250500Y-46926459D01*
X90250500Y-46926456D01*
X90212052Y-46733170D01*
X90212051Y-46733169D01*
X90212051Y-46733165D01*
X90147382Y-46577038D01*
X90136635Y-46551092D01*
X90136628Y-46551079D01*
X90027139Y-46387218D01*
X90027136Y-46387214D01*
X89887785Y-46247863D01*
X89887781Y-46247860D01*
X89723920Y-46138371D01*
X89723907Y-46138364D01*
X89541839Y-46062950D01*
X89541829Y-46062947D01*
X89348543Y-46024500D01*
X89348541Y-46024500D01*
X89151459Y-46024500D01*
X89151457Y-46024500D01*
X88958170Y-46062947D01*
X88958160Y-46062950D01*
X88776092Y-46138364D01*
X88776079Y-46138371D01*
X88612218Y-46247860D01*
X88612214Y-46247863D01*
X88472863Y-46387214D01*
X88472860Y-46387218D01*
X88363371Y-46551079D01*
X88363364Y-46551092D01*
X88287950Y-46733160D01*
X88287947Y-46733170D01*
X88249500Y-46926456D01*
X88249500Y-46926459D01*
X88249500Y-47123541D01*
X88249500Y-47123543D01*
X88249499Y-47123543D01*
X78940294Y-47123543D01*
X79361960Y-46483084D01*
X79364283Y-46479683D01*
X79764596Y-45914304D01*
X83648500Y-45914304D01*
X83648500Y-46091695D01*
X83683103Y-46265658D01*
X83683106Y-46265667D01*
X83750983Y-46429540D01*
X83750990Y-46429553D01*
X83849535Y-46577034D01*
X83849538Y-46577038D01*
X83974961Y-46702461D01*
X83974965Y-46702464D01*
X84122446Y-46801009D01*
X84122459Y-46801016D01*
X84245363Y-46851923D01*
X84286334Y-46868894D01*
X84286336Y-46868894D01*
X84286341Y-46868896D01*
X84460304Y-46903499D01*
X84460307Y-46903500D01*
X84460309Y-46903500D01*
X84637693Y-46903500D01*
X84637694Y-46903499D01*
X84695682Y-46891964D01*
X84811658Y-46868896D01*
X84811661Y-46868894D01*
X84811666Y-46868894D01*
X84886857Y-46837749D01*
X84963977Y-46805806D01*
X84975540Y-46801016D01*
X84975540Y-46801015D01*
X84975547Y-46801013D01*
X85123035Y-46702464D01*
X85248464Y-46577035D01*
X85347013Y-46429547D01*
X85414894Y-46265666D01*
X85418436Y-46247863D01*
X85449499Y-46091695D01*
X85449500Y-46091693D01*
X85449500Y-45914306D01*
X85449499Y-45914304D01*
X85414896Y-45740341D01*
X85414893Y-45740332D01*
X85347016Y-45576459D01*
X85347009Y-45576446D01*
X85248464Y-45428965D01*
X85248461Y-45428961D01*
X85123038Y-45303538D01*
X85123034Y-45303535D01*
X84975553Y-45204990D01*
X84975540Y-45204983D01*
X84811667Y-45137106D01*
X84811658Y-45137103D01*
X84637694Y-45102500D01*
X84637691Y-45102500D01*
X84460309Y-45102500D01*
X84460306Y-45102500D01*
X84286341Y-45137103D01*
X84286332Y-45137106D01*
X84122459Y-45204983D01*
X84122446Y-45204990D01*
X83974965Y-45303535D01*
X83974961Y-45303538D01*
X83849538Y-45428961D01*
X83849535Y-45428965D01*
X83750990Y-45576446D01*
X83750983Y-45576459D01*
X83683106Y-45740332D01*
X83683103Y-45740341D01*
X83648500Y-45914304D01*
X79764596Y-45914304D01*
X79919467Y-45695574D01*
X79921945Y-45692200D01*
X80343900Y-45137103D01*
X80503346Y-44927345D01*
X80505896Y-44924107D01*
X81112887Y-44179334D01*
X81115510Y-44176224D01*
X81275939Y-43992451D01*
X81334855Y-43954895D01*
X81369351Y-43950000D01*
X124426649Y-43950000D01*
X124493688Y-43969685D01*
G37*
%TD.AperFunction*%
%TD*%
M02*
