%TF.GenerationSoftware,KiCad,Pcbnew,9.0.6*%
%TF.CreationDate,2026-03-19T22:03:28+01:00*%
%TF.ProjectId,neptune-camera-esp,6e657074-756e-4652-9d63-616d6572612d,1.0*%
%TF.SameCoordinates,Original*%
%TF.FileFunction,Legend,Bot*%
%TF.FilePolarity,Positive*%
%FSLAX46Y46*%
G04 Gerber Fmt 4.6, Leading zero omitted, Abs format (unit mm)*
G04 Created by KiCad (PCBNEW 9.0.6) date 2026-03-19 22:03:28*
%MOMM*%
%LPD*%
G01*
G04 APERTURE LIST*
%ADD10C,0.150000*%
%ADD11C,0.120000*%
%ADD12C,0.200000*%
G04 APERTURE END LIST*
D10*
X96257999Y-85562878D02*
X95900857Y-85562878D01*
X96329428Y-85777164D02*
X96079428Y-85027164D01*
X96079428Y-85027164D02*
X95829428Y-85777164D01*
X95329428Y-85384307D02*
X95579428Y-85384307D01*
X95579428Y-85777164D02*
X95579428Y-85027164D01*
X95579428Y-85027164D02*
X95222285Y-85027164D01*
D11*
%TO.C,C14*%
X104985836Y-82528000D02*
X104770164Y-82528000D01*
X104985836Y-83248000D02*
X104770164Y-83248000D01*
D12*
%TO.C,J3*%
X94698000Y-75804000D02*
X111098000Y-75804000D01*
X94698000Y-77354000D02*
X94698000Y-75804000D01*
X94698000Y-81154000D02*
X94698000Y-79954000D01*
X96548000Y-81154000D02*
X94698000Y-81154000D01*
X111098000Y-75804000D02*
X111098000Y-77354000D01*
X111098000Y-79954000D02*
X111098000Y-81154000D01*
X111098000Y-81154000D02*
X109348000Y-81154000D01*
D11*
%TO.C,C12*%
X108638580Y-83628000D02*
X108357420Y-83628000D01*
X108638580Y-84648000D02*
X108357420Y-84648000D01*
%TO.C,C18*%
X102232420Y-83628000D02*
X102513580Y-83628000D01*
X102232420Y-84648000D02*
X102513580Y-84648000D01*
%TO.C,C25*%
X82914580Y-45493000D02*
X82633420Y-45493000D01*
X82914580Y-46513000D02*
X82633420Y-46513000D01*
%TO.C,C16*%
X105588580Y-85178000D02*
X105307420Y-85178000D01*
X105588580Y-86198000D02*
X105307420Y-86198000D01*
%TO.C,C20*%
X100060164Y-82528000D02*
X100275836Y-82528000D01*
X100060164Y-83248000D02*
X100275836Y-83248000D01*
%TO.C,C13*%
X108638580Y-85178000D02*
X108357420Y-85178000D01*
X108638580Y-86198000D02*
X108357420Y-86198000D01*
%TO.C,C19*%
X102835164Y-82528000D02*
X103050836Y-82528000D01*
X102835164Y-83248000D02*
X103050836Y-83248000D01*
%TO.C,C15*%
X105588580Y-83628000D02*
X105307420Y-83628000D01*
X105588580Y-84648000D02*
X105307420Y-84648000D01*
%TO.C,C11*%
X108035836Y-82528000D02*
X107820164Y-82528000D01*
X108035836Y-83248000D02*
X107820164Y-83248000D01*
%TO.C,J5*%
X119133000Y-48613500D02*
X119133000Y-61433500D01*
X127763000Y-48613500D02*
X119133000Y-48613500D01*
X127763000Y-48613500D02*
X127763000Y-61433500D01*
X127763000Y-61433500D02*
X119133000Y-61433500D01*
%TO.C,JP1*%
X94358000Y-83388000D02*
X94358000Y-83988000D01*
X95058000Y-84688000D02*
X96458000Y-84688000D01*
X96458000Y-82688000D02*
X95058000Y-82688000D01*
X97158000Y-83988000D02*
X97158000Y-83388000D01*
X94358000Y-83388000D02*
G75*
G02*
X95058000Y-82688000I699999J1D01*
G01*
X95058000Y-84688000D02*
G75*
G02*
X94358000Y-83988000I-1J699999D01*
G01*
X96458000Y-82688000D02*
G75*
G02*
X97158000Y-83388000I0J-700000D01*
G01*
X97158000Y-83988000D02*
G75*
G02*
X96458000Y-84688000I-700000J0D01*
G01*
%TO.C,C17*%
X102232420Y-85178000D02*
X102513580Y-85178000D01*
X102232420Y-86198000D02*
X102513580Y-86198000D01*
%TD*%
M02*
