%TF.GenerationSoftware,KiCad,Pcbnew,10.0.4*%
%TF.CreationDate,2026-07-08T12:26:28+02:00*%
%TF.ProjectId,neptune-camera-esp,6e657074-756e-4652-9d63-616d6572612d,1.0*%
%TF.SameCoordinates,Original*%
%TF.FileFunction,Copper,L3,Inr*%
%TF.FilePolarity,Positive*%
%FSLAX46Y46*%
G04 Gerber Fmt 4.6, Leading zero omitted, Abs format (unit mm)*
G04 Created by KiCad (PCBNEW 10.0.4) date 2026-07-08 12:26:28*
%MOMM*%
%LPD*%
G01*
G04 APERTURE LIST*
%TA.AperFunction,ViaPad*%
%ADD10C,0.800000*%
%TD*%
%TA.AperFunction,ViaPad*%
%ADD11C,0.600000*%
%TD*%
%TA.AperFunction,ViaPad*%
%ADD12C,1.000000*%
%TD*%
G04 APERTURE END LIST*
D10*
%TO.N,+3.3VA*%
X116517000Y-40711000D03*
D11*
%TO.N,GND*%
X97858000Y-43114000D03*
D12*
X89229000Y-82799500D03*
X101698000Y-49531000D03*
D10*
X106223000Y-82888000D03*
D11*
X101318000Y-54154000D03*
X93418000Y-69884000D03*
D12*
X112048000Y-78724000D03*
D11*
X91718000Y-40834000D03*
X89718000Y-57684000D03*
X110958000Y-61519000D03*
X82628000Y-66774000D03*
D12*
X82703000Y-61554000D03*
D11*
X123008000Y-71394000D03*
D12*
X101698000Y-44131000D03*
D11*
X96548000Y-54304000D03*
X109998000Y-73384000D03*
X90338000Y-69364000D03*
X110898000Y-58684000D03*
X89718000Y-64874000D03*
X80328000Y-76354000D03*
D10*
X81999000Y-44503000D03*
D11*
X86958000Y-65814000D03*
D12*
X82703000Y-57554000D03*
D11*
X93751000Y-60164000D03*
X97398000Y-76654000D03*
X96298000Y-51494000D03*
X95078000Y-61569000D03*
X103868000Y-79674000D03*
X109308000Y-48984000D03*
D12*
X119218750Y-73625000D03*
D11*
X109358000Y-44364000D03*
X86328000Y-41104000D03*
X89718000Y-60904000D03*
X87078000Y-77314000D03*
X89898000Y-51334000D03*
X96698000Y-73524000D03*
D12*
X123700500Y-44699000D03*
D11*
X124368000Y-79134000D03*
D10*
X109273000Y-82888000D03*
D12*
X104398000Y-44131000D03*
D11*
X93108000Y-80004000D03*
X115838000Y-45264000D03*
D12*
X107098000Y-46831000D03*
D10*
X101598000Y-82888000D03*
D11*
X116978000Y-85364000D03*
X118838000Y-64114000D03*
X104103000Y-54109000D03*
X108448000Y-79234000D03*
D12*
X93748000Y-78724000D03*
X82703000Y-59554000D03*
X104398000Y-49531000D03*
D11*
X87008000Y-61794000D03*
D12*
X123200500Y-50499000D03*
D11*
X116656000Y-65167000D03*
X110208000Y-76724000D03*
D12*
X101698000Y-46831000D03*
D11*
X122138000Y-77634000D03*
D12*
X107098000Y-49531000D03*
D11*
X83588000Y-79974000D03*
X89788000Y-39294000D03*
X105538000Y-42204000D03*
X94068000Y-81684000D03*
X86658000Y-53604000D03*
X95018000Y-58734000D03*
D12*
X90729000Y-72979500D03*
D11*
X86758000Y-69474000D03*
X122028000Y-73084000D03*
D12*
X123093000Y-65554000D03*
D11*
X116768000Y-80114000D03*
X95118000Y-64404000D03*
X103918000Y-77114000D03*
X86558000Y-83744000D03*
X123008000Y-69644000D03*
D12*
X112767000Y-82799500D03*
D11*
X120598000Y-82104000D03*
D12*
X117083000Y-58836000D03*
D11*
X110548000Y-81684000D03*
X90088000Y-45404000D03*
X88698000Y-79984000D03*
X109015000Y-60339000D03*
X97368000Y-79194000D03*
X89501000Y-43010000D03*
X124238000Y-47814000D03*
D12*
X82703000Y-69554000D03*
D11*
X79668000Y-73844000D03*
X89718000Y-54574000D03*
X119298000Y-47574000D03*
X112238000Y-80034000D03*
X105783000Y-55129000D03*
X82628000Y-64014000D03*
D10*
X116517000Y-38811000D03*
D11*
X99698000Y-83594000D03*
X85348000Y-73894000D03*
X86858000Y-57274000D03*
D10*
X81999000Y-48024500D03*
D11*
X116070000Y-69269000D03*
D12*
X107098000Y-44131000D03*
D11*
X109332000Y-64382000D03*
D12*
X82703000Y-71554000D03*
D11*
X108538000Y-76724000D03*
D10*
X92848000Y-39111000D03*
D11*
X93724000Y-62929000D03*
X118788000Y-67784000D03*
X118738000Y-71454000D03*
D12*
X125018750Y-74125000D03*
X114267000Y-72979500D03*
D11*
X87968000Y-47794000D03*
D12*
X123093000Y-67554000D03*
D10*
%TO.N,1.5V_OV5640*%
X104673000Y-86588000D03*
D11*
%TO.N,/OV5640_SDA*%
X110465000Y-51811000D03*
D12*
%TO.N,VCC*%
X126218750Y-76675000D03*
X120650500Y-51499000D03*
X123093000Y-61554000D03*
D10*
%TO.N,+3.3V*%
X103148000Y-86588000D03*
D12*
X95248000Y-83659000D03*
X95688000Y-86554000D03*
D11*
%TO.N,/CAM_PWDN*%
X107343000Y-55779000D03*
%TO.N,/OV5640_SCL*%
X110465000Y-53081000D03*
%TO.N,/BOOT*%
X92948000Y-55621000D03*
%TO.N,/EN*%
X107807000Y-39926000D03*
%TO.N,/CAM_RESET*%
X104803000Y-55729000D03*
D10*
%TO.N,2.8V_OV5640*%
X107723000Y-86588000D03*
D11*
%TO.N,/I2C_OBC_SDA*%
X82703000Y-53554000D03*
%TO.N,/I2C_OBC_SCL*%
X82303000Y-55554000D03*
%TO.N,/USB_DN*%
X112748000Y-54351000D03*
%TO.N,/USB_DP*%
X112748000Y-55621000D03*
%TO.N,/LTE_PWRKEY*%
X112848000Y-50541000D03*
%TO.N,/LTE_RESET*%
X112848000Y-49271000D03*
%TO.N,/PRG_UART_RX*%
X95348000Y-44191000D03*
X115583000Y-55021000D03*
%TO.N,/PRG_UART_TX*%
X115583000Y-52478500D03*
X95348000Y-42921000D03*
%TD*%
%TA.AperFunction,Conductor*%
%TO.N,GND*%
G36*
X117484060Y-38072683D02*
G01*
X118162921Y-38487391D01*
X118166466Y-38489640D01*
X118968862Y-39017924D01*
X118972329Y-39020291D01*
X119756416Y-39575460D01*
X119759800Y-39577944D01*
X120524638Y-40159333D01*
X120527921Y-40161918D01*
X121182914Y-40695738D01*
X121272630Y-40768857D01*
X121275833Y-40771559D01*
X121864025Y-41285034D01*
X121999565Y-41403357D01*
X122002678Y-41406168D01*
X122307504Y-41691021D01*
X122704629Y-42062124D01*
X122707647Y-42065042D01*
X123386957Y-42744352D01*
X123389875Y-42747370D01*
X124045828Y-43449318D01*
X124048642Y-43452434D01*
X124680435Y-44176160D01*
X124683142Y-44179369D01*
X125270779Y-44900394D01*
X125290069Y-44924062D01*
X125292666Y-44927361D01*
X125874055Y-45692199D01*
X125876539Y-45695583D01*
X126431708Y-46479670D01*
X126434075Y-46483137D01*
X126962359Y-47285533D01*
X126964608Y-47289078D01*
X127379317Y-47967940D01*
X127397500Y-48032583D01*
X127397500Y-76282932D01*
X127377815Y-76349971D01*
X127325011Y-76395726D01*
X127255853Y-76405670D01*
X127192297Y-76376645D01*
X127158939Y-76330384D01*
X127105385Y-76201092D01*
X127105378Y-76201079D01*
X126995889Y-76037218D01*
X126995886Y-76037214D01*
X126856535Y-75897863D01*
X126856531Y-75897860D01*
X126692670Y-75788371D01*
X126692657Y-75788364D01*
X126510589Y-75712950D01*
X126510579Y-75712947D01*
X126317293Y-75674500D01*
X126317291Y-75674500D01*
X126120209Y-75674500D01*
X126120207Y-75674500D01*
X125926920Y-75712947D01*
X125926910Y-75712950D01*
X125744842Y-75788364D01*
X125744829Y-75788371D01*
X125580968Y-75897860D01*
X125580964Y-75897863D01*
X125441613Y-76037214D01*
X125441610Y-76037218D01*
X125332121Y-76201079D01*
X125332114Y-76201092D01*
X125256700Y-76383160D01*
X125256697Y-76383170D01*
X125218250Y-76576456D01*
X125218250Y-76576459D01*
X125218250Y-76773541D01*
X125218250Y-76773543D01*
X125218249Y-76773543D01*
X125256697Y-76966829D01*
X125256700Y-76966839D01*
X125332114Y-77148907D01*
X125332121Y-77148920D01*
X125441610Y-77312781D01*
X125441613Y-77312785D01*
X125580964Y-77452136D01*
X125580968Y-77452139D01*
X125744829Y-77561628D01*
X125744842Y-77561635D01*
X125926910Y-77637049D01*
X125926915Y-77637051D01*
X125926919Y-77637051D01*
X125926920Y-77637052D01*
X126120206Y-77675500D01*
X126120209Y-77675500D01*
X126317293Y-77675500D01*
X126447332Y-77649632D01*
X126510585Y-77637051D01*
X126692664Y-77561632D01*
X126856532Y-77452139D01*
X126973691Y-77334979D01*
X127035012Y-77301496D01*
X127104704Y-77306480D01*
X127160638Y-77348351D01*
X127185055Y-77413815D01*
X127170203Y-77482088D01*
X127167188Y-77487305D01*
X126964608Y-77818921D01*
X126962359Y-77822466D01*
X126434075Y-78624862D01*
X126431708Y-78628329D01*
X125876539Y-79412416D01*
X125874055Y-79415800D01*
X125292666Y-80180638D01*
X125290069Y-80183937D01*
X124683142Y-80928630D01*
X124680435Y-80931839D01*
X124048642Y-81655565D01*
X124045828Y-81658681D01*
X123389875Y-82360629D01*
X123386957Y-82363647D01*
X122707647Y-83042957D01*
X122704629Y-83045875D01*
X122002681Y-83701828D01*
X121999565Y-83704642D01*
X121275839Y-84336435D01*
X121272630Y-84339142D01*
X120527937Y-84946069D01*
X120524638Y-84948666D01*
X119759800Y-85530055D01*
X119756416Y-85532539D01*
X118972329Y-86087708D01*
X118968862Y-86090075D01*
X118166466Y-86618359D01*
X118162921Y-86620608D01*
X117484060Y-87035317D01*
X117419417Y-87053500D01*
X108690456Y-87053500D01*
X108623417Y-87033815D01*
X108577662Y-86981011D01*
X108567718Y-86911853D01*
X108575893Y-86882052D01*
X108588894Y-86850666D01*
X108589856Y-86845834D01*
X108623499Y-86676695D01*
X108623500Y-86676693D01*
X108623500Y-86499306D01*
X108623499Y-86499304D01*
X108588896Y-86325341D01*
X108588893Y-86325332D01*
X108521016Y-86161459D01*
X108521009Y-86161446D01*
X108422464Y-86013965D01*
X108422461Y-86013961D01*
X108297038Y-85888538D01*
X108297034Y-85888535D01*
X108149553Y-85789990D01*
X108149540Y-85789983D01*
X107985667Y-85722106D01*
X107985658Y-85722103D01*
X107811694Y-85687500D01*
X107811691Y-85687500D01*
X107634309Y-85687500D01*
X107634306Y-85687500D01*
X107460341Y-85722103D01*
X107460332Y-85722106D01*
X107296459Y-85789983D01*
X107296446Y-85789990D01*
X107148965Y-85888535D01*
X107148961Y-85888538D01*
X107023538Y-86013961D01*
X107023535Y-86013965D01*
X106924990Y-86161446D01*
X106924983Y-86161459D01*
X106857106Y-86325332D01*
X106857103Y-86325341D01*
X106822500Y-86499304D01*
X106822500Y-86676695D01*
X106857103Y-86850658D01*
X106857105Y-86850663D01*
X106857106Y-86850666D01*
X106870105Y-86882049D01*
X106877574Y-86951517D01*
X106846299Y-87013996D01*
X106786210Y-87049648D01*
X106755544Y-87053500D01*
X105640456Y-87053500D01*
X105573417Y-87033815D01*
X105527662Y-86981011D01*
X105517718Y-86911853D01*
X105525893Y-86882052D01*
X105538894Y-86850666D01*
X105539856Y-86845834D01*
X105573499Y-86676695D01*
X105573500Y-86676693D01*
X105573500Y-86499306D01*
X105573499Y-86499304D01*
X105538896Y-86325341D01*
X105538893Y-86325332D01*
X105471016Y-86161459D01*
X105471009Y-86161446D01*
X105372464Y-86013965D01*
X105372461Y-86013961D01*
X105247038Y-85888538D01*
X105247034Y-85888535D01*
X105099553Y-85789990D01*
X105099540Y-85789983D01*
X104935667Y-85722106D01*
X104935658Y-85722103D01*
X104761694Y-85687500D01*
X104761691Y-85687500D01*
X104584309Y-85687500D01*
X104584306Y-85687500D01*
X104410341Y-85722103D01*
X104410332Y-85722106D01*
X104246459Y-85789983D01*
X104246446Y-85789990D01*
X104098965Y-85888535D01*
X104098961Y-85888538D01*
X103998181Y-85989319D01*
X103936858Y-86022804D01*
X103867166Y-86017820D01*
X103822819Y-85989319D01*
X103722038Y-85888538D01*
X103722034Y-85888535D01*
X103574553Y-85789990D01*
X103574540Y-85789983D01*
X103410667Y-85722106D01*
X103410658Y-85722103D01*
X103236694Y-85687500D01*
X103236691Y-85687500D01*
X103059309Y-85687500D01*
X103059306Y-85687500D01*
X102885341Y-85722103D01*
X102885332Y-85722106D01*
X102721459Y-85789983D01*
X102721446Y-85789990D01*
X102573965Y-85888535D01*
X102573961Y-85888538D01*
X102448538Y-86013961D01*
X102448535Y-86013965D01*
X102349990Y-86161446D01*
X102349983Y-86161459D01*
X102282106Y-86325332D01*
X102282103Y-86325341D01*
X102247500Y-86499304D01*
X102247500Y-86676695D01*
X102282103Y-86850658D01*
X102282105Y-86850663D01*
X102282106Y-86850666D01*
X102295105Y-86882049D01*
X102302574Y-86951517D01*
X102271299Y-87013996D01*
X102211210Y-87049648D01*
X102180544Y-87053500D01*
X96749613Y-87053500D01*
X96682574Y-87033815D01*
X96636819Y-86981011D01*
X96626875Y-86911853D01*
X96635051Y-86882049D01*
X96637009Y-86877320D01*
X96650051Y-86845835D01*
X96662632Y-86782582D01*
X96688500Y-86652543D01*
X96688500Y-86455456D01*
X96650052Y-86262170D01*
X96650051Y-86262169D01*
X96650051Y-86262165D01*
X96608332Y-86161446D01*
X96574635Y-86080092D01*
X96574628Y-86080079D01*
X96465139Y-85916218D01*
X96465136Y-85916214D01*
X96325785Y-85776863D01*
X96325781Y-85776860D01*
X96161920Y-85667371D01*
X96161907Y-85667364D01*
X95979839Y-85591950D01*
X95979829Y-85591947D01*
X95786543Y-85553500D01*
X95786541Y-85553500D01*
X95589459Y-85553500D01*
X95589457Y-85553500D01*
X95396170Y-85591947D01*
X95396160Y-85591950D01*
X95214092Y-85667364D01*
X95214079Y-85667371D01*
X95050218Y-85776860D01*
X95050214Y-85776863D01*
X94910863Y-85916214D01*
X94910860Y-85916218D01*
X94801371Y-86080079D01*
X94801364Y-86080092D01*
X94725950Y-86262160D01*
X94725947Y-86262170D01*
X94687500Y-86455456D01*
X94687500Y-86455459D01*
X94687500Y-86652541D01*
X94687500Y-86652543D01*
X94687499Y-86652543D01*
X94725947Y-86845829D01*
X94725949Y-86845834D01*
X94740949Y-86882049D01*
X94748416Y-86951518D01*
X94717141Y-87013997D01*
X94657051Y-87049649D01*
X94626387Y-87053500D01*
X88376583Y-87053500D01*
X88311940Y-87035317D01*
X87633078Y-86620608D01*
X87629533Y-86618359D01*
X86827137Y-86090075D01*
X86823670Y-86087708D01*
X86039583Y-85532539D01*
X86036199Y-85530055D01*
X85271361Y-84948666D01*
X85268062Y-84946069D01*
X84523369Y-84339142D01*
X84520160Y-84336435D01*
X84474740Y-84296785D01*
X83857033Y-83757543D01*
X94247499Y-83757543D01*
X94285947Y-83950829D01*
X94285950Y-83950839D01*
X94361364Y-84132907D01*
X94361371Y-84132920D01*
X94470860Y-84296781D01*
X94470863Y-84296785D01*
X94610214Y-84436136D01*
X94610218Y-84436139D01*
X94774079Y-84545628D01*
X94774092Y-84545635D01*
X94956160Y-84621049D01*
X94956165Y-84621051D01*
X94956169Y-84621051D01*
X94956170Y-84621052D01*
X95149456Y-84659500D01*
X95149459Y-84659500D01*
X95346543Y-84659500D01*
X95476582Y-84633632D01*
X95539835Y-84621051D01*
X95721914Y-84545632D01*
X95885782Y-84436139D01*
X96025139Y-84296782D01*
X96134632Y-84132914D01*
X96210051Y-83950835D01*
X96248500Y-83757541D01*
X96248500Y-83560459D01*
X96248500Y-83560456D01*
X96210052Y-83367170D01*
X96210051Y-83367169D01*
X96210051Y-83367165D01*
X96210049Y-83367160D01*
X96134635Y-83185092D01*
X96134628Y-83185079D01*
X96025139Y-83021218D01*
X96025136Y-83021214D01*
X95885785Y-82881863D01*
X95885781Y-82881860D01*
X95721920Y-82772371D01*
X95721907Y-82772364D01*
X95539839Y-82696950D01*
X95539829Y-82696947D01*
X95346543Y-82658500D01*
X95346541Y-82658500D01*
X95149459Y-82658500D01*
X95149457Y-82658500D01*
X94956170Y-82696947D01*
X94956160Y-82696950D01*
X94774092Y-82772364D01*
X94774079Y-82772371D01*
X94610218Y-82881860D01*
X94610214Y-82881863D01*
X94470863Y-83021214D01*
X94470860Y-83021218D01*
X94361371Y-83185079D01*
X94361364Y-83185092D01*
X94285950Y-83367160D01*
X94285947Y-83367170D01*
X94247500Y-83560456D01*
X94247500Y-83560459D01*
X94247500Y-83757541D01*
X94247500Y-83757543D01*
X94247499Y-83757543D01*
X83857033Y-83757543D01*
X83796434Y-83704642D01*
X83793318Y-83701828D01*
X83732469Y-83644966D01*
X83091370Y-83045875D01*
X83088352Y-83042957D01*
X82409042Y-82363647D01*
X82406124Y-82360629D01*
X81750171Y-81658681D01*
X81747357Y-81655565D01*
X81115564Y-80931839D01*
X81112857Y-80928630D01*
X80505918Y-80183921D01*
X80503333Y-80180638D01*
X79921944Y-79415800D01*
X79919460Y-79412416D01*
X79364291Y-78628329D01*
X79361924Y-78624862D01*
X78833640Y-77822466D01*
X78831391Y-77818921D01*
X78422096Y-77148920D01*
X78416682Y-77140057D01*
X78398500Y-77075415D01*
X78398500Y-61652543D01*
X122092499Y-61652543D01*
X122130947Y-61845829D01*
X122130950Y-61845839D01*
X122206364Y-62027907D01*
X122206371Y-62027920D01*
X122315860Y-62191781D01*
X122315863Y-62191785D01*
X122455214Y-62331136D01*
X122455218Y-62331139D01*
X122619079Y-62440628D01*
X122619092Y-62440635D01*
X122801160Y-62516049D01*
X122801165Y-62516051D01*
X122801169Y-62516051D01*
X122801170Y-62516052D01*
X122994456Y-62554500D01*
X122994459Y-62554500D01*
X123191543Y-62554500D01*
X123321582Y-62528632D01*
X123384835Y-62516051D01*
X123566914Y-62440632D01*
X123730782Y-62331139D01*
X123870139Y-62191782D01*
X123979632Y-62027914D01*
X124055051Y-61845835D01*
X124093500Y-61652541D01*
X124093500Y-61455459D01*
X124093500Y-61455456D01*
X124055052Y-61262170D01*
X124055051Y-61262169D01*
X124055051Y-61262165D01*
X124055049Y-61262160D01*
X123979635Y-61080092D01*
X123979628Y-61080079D01*
X123870139Y-60916218D01*
X123870136Y-60916214D01*
X123730785Y-60776863D01*
X123730781Y-60776860D01*
X123566920Y-60667371D01*
X123566907Y-60667364D01*
X123384839Y-60591950D01*
X123384829Y-60591947D01*
X123191543Y-60553500D01*
X123191541Y-60553500D01*
X122994459Y-60553500D01*
X122994457Y-60553500D01*
X122801170Y-60591947D01*
X122801160Y-60591950D01*
X122619092Y-60667364D01*
X122619079Y-60667371D01*
X122455218Y-60776860D01*
X122455214Y-60776863D01*
X122315863Y-60916214D01*
X122315860Y-60916218D01*
X122206371Y-61080079D01*
X122206364Y-61080092D01*
X122130950Y-61262160D01*
X122130947Y-61262170D01*
X122092500Y-61455456D01*
X122092500Y-61455459D01*
X122092500Y-61652541D01*
X122092500Y-61652543D01*
X122092499Y-61652543D01*
X78398500Y-61652543D01*
X78398500Y-55475153D01*
X81502500Y-55475153D01*
X81502500Y-55632846D01*
X81533261Y-55787489D01*
X81533264Y-55787501D01*
X81593602Y-55933172D01*
X81593609Y-55933185D01*
X81681210Y-56064288D01*
X81681213Y-56064292D01*
X81792707Y-56175786D01*
X81792711Y-56175789D01*
X81923814Y-56263390D01*
X81923827Y-56263397D01*
X82069498Y-56323735D01*
X82069503Y-56323737D01*
X82205487Y-56350786D01*
X82224153Y-56354499D01*
X82224156Y-56354500D01*
X82224158Y-56354500D01*
X82381844Y-56354500D01*
X82381845Y-56354499D01*
X82536497Y-56323737D01*
X82682179Y-56263394D01*
X82813289Y-56175789D01*
X82924789Y-56064289D01*
X83012394Y-55933179D01*
X83072737Y-55787497D01*
X83103500Y-55632842D01*
X83103500Y-55542153D01*
X92147500Y-55542153D01*
X92147500Y-55699846D01*
X92178261Y-55854489D01*
X92178264Y-55854501D01*
X92238602Y-56000172D01*
X92238609Y-56000185D01*
X92326210Y-56131288D01*
X92326213Y-56131292D01*
X92437707Y-56242786D01*
X92437711Y-56242789D01*
X92568814Y-56330390D01*
X92568827Y-56330397D01*
X92627018Y-56354500D01*
X92714503Y-56390737D01*
X92869153Y-56421499D01*
X92869156Y-56421500D01*
X92869158Y-56421500D01*
X93026844Y-56421500D01*
X93026845Y-56421499D01*
X93181497Y-56390737D01*
X93327179Y-56330394D01*
X93458289Y-56242789D01*
X93569789Y-56131289D01*
X93657394Y-56000179D01*
X93717737Y-55854497D01*
X93748500Y-55699842D01*
X93748500Y-55650153D01*
X104002500Y-55650153D01*
X104002500Y-55807846D01*
X104033261Y-55962489D01*
X104033264Y-55962501D01*
X104093602Y-56108172D01*
X104093609Y-56108185D01*
X104181210Y-56239288D01*
X104181213Y-56239292D01*
X104292707Y-56350786D01*
X104292711Y-56350789D01*
X104423814Y-56438390D01*
X104423827Y-56438397D01*
X104569498Y-56498735D01*
X104569503Y-56498737D01*
X104724153Y-56529499D01*
X104724156Y-56529500D01*
X104724158Y-56529500D01*
X104881844Y-56529500D01*
X104881845Y-56529499D01*
X105036497Y-56498737D01*
X105182179Y-56438394D01*
X105313289Y-56350789D01*
X105424789Y-56239289D01*
X105512394Y-56108179D01*
X105572737Y-55962497D01*
X105603500Y-55807842D01*
X105603500Y-55700153D01*
X106542500Y-55700153D01*
X106542500Y-55857846D01*
X106573261Y-56012489D01*
X106573264Y-56012501D01*
X106633602Y-56158172D01*
X106633609Y-56158185D01*
X106721210Y-56289288D01*
X106721213Y-56289292D01*
X106832707Y-56400786D01*
X106832711Y-56400789D01*
X106963814Y-56488390D01*
X106963827Y-56488397D01*
X107063060Y-56529500D01*
X107109503Y-56548737D01*
X107264153Y-56579499D01*
X107264156Y-56579500D01*
X107264158Y-56579500D01*
X107421844Y-56579500D01*
X107421845Y-56579499D01*
X107576497Y-56548737D01*
X107722179Y-56488394D01*
X107853289Y-56400789D01*
X107964789Y-56289289D01*
X108052394Y-56158179D01*
X108112737Y-56012497D01*
X108143500Y-55857842D01*
X108143500Y-55700158D01*
X108143500Y-55700155D01*
X108143499Y-55700153D01*
X108133553Y-55650153D01*
X108112737Y-55545503D01*
X108112735Y-55545498D01*
X108052397Y-55399827D01*
X108052390Y-55399814D01*
X107964789Y-55268711D01*
X107964786Y-55268707D01*
X107853292Y-55157213D01*
X107853288Y-55157210D01*
X107722185Y-55069609D01*
X107722172Y-55069602D01*
X107576501Y-55009264D01*
X107576489Y-55009261D01*
X107421845Y-54978500D01*
X107421842Y-54978500D01*
X107264158Y-54978500D01*
X107264155Y-54978500D01*
X107109510Y-55009261D01*
X107109498Y-55009264D01*
X106963827Y-55069602D01*
X106963814Y-55069609D01*
X106832711Y-55157210D01*
X106832707Y-55157213D01*
X106721213Y-55268707D01*
X106721210Y-55268711D01*
X106633609Y-55399814D01*
X106633602Y-55399827D01*
X106573264Y-55545498D01*
X106573261Y-55545510D01*
X106542500Y-55700153D01*
X105603500Y-55700153D01*
X105603500Y-55650158D01*
X105603500Y-55650155D01*
X105603499Y-55650153D01*
X105582684Y-55545510D01*
X105572737Y-55495503D01*
X105564308Y-55475153D01*
X105512397Y-55349827D01*
X105512390Y-55349814D01*
X105424789Y-55218711D01*
X105424786Y-55218707D01*
X105313292Y-55107213D01*
X105313288Y-55107210D01*
X105182185Y-55019609D01*
X105182172Y-55019602D01*
X105036501Y-54959264D01*
X105036489Y-54959261D01*
X104881845Y-54928500D01*
X104881842Y-54928500D01*
X104724158Y-54928500D01*
X104724155Y-54928500D01*
X104569510Y-54959261D01*
X104569498Y-54959264D01*
X104423827Y-55019602D01*
X104423814Y-55019609D01*
X104292711Y-55107210D01*
X104292707Y-55107213D01*
X104181213Y-55218707D01*
X104181210Y-55218711D01*
X104093609Y-55349814D01*
X104093602Y-55349827D01*
X104033264Y-55495498D01*
X104033261Y-55495510D01*
X104002500Y-55650153D01*
X93748500Y-55650153D01*
X93748500Y-55542158D01*
X93748500Y-55542155D01*
X93748499Y-55542153D01*
X93735172Y-55475153D01*
X93717737Y-55387503D01*
X93689983Y-55320498D01*
X93657397Y-55241827D01*
X93657390Y-55241814D01*
X93569789Y-55110711D01*
X93569786Y-55110707D01*
X93458292Y-54999213D01*
X93458288Y-54999210D01*
X93327185Y-54911609D01*
X93327172Y-54911602D01*
X93181501Y-54851264D01*
X93181489Y-54851261D01*
X93026845Y-54820500D01*
X93026842Y-54820500D01*
X92869158Y-54820500D01*
X92869155Y-54820500D01*
X92714510Y-54851261D01*
X92714498Y-54851264D01*
X92568827Y-54911602D01*
X92568814Y-54911609D01*
X92437711Y-54999210D01*
X92437707Y-54999213D01*
X92326213Y-55110707D01*
X92326210Y-55110711D01*
X92238609Y-55241814D01*
X92238602Y-55241827D01*
X92178264Y-55387498D01*
X92178261Y-55387510D01*
X92147500Y-55542153D01*
X83103500Y-55542153D01*
X83103500Y-55475158D01*
X83103500Y-55475155D01*
X83103499Y-55475153D01*
X83088587Y-55400185D01*
X83072737Y-55320503D01*
X83051283Y-55268707D01*
X83012397Y-55174827D01*
X83012390Y-55174814D01*
X82924789Y-55043711D01*
X82924786Y-55043707D01*
X82813292Y-54932213D01*
X82813288Y-54932210D01*
X82682185Y-54844609D01*
X82682172Y-54844602D01*
X82536501Y-54784264D01*
X82536489Y-54784261D01*
X82381845Y-54753500D01*
X82381842Y-54753500D01*
X82224158Y-54753500D01*
X82224155Y-54753500D01*
X82069510Y-54784261D01*
X82069498Y-54784264D01*
X81923827Y-54844602D01*
X81923814Y-54844609D01*
X81792711Y-54932210D01*
X81792707Y-54932213D01*
X81681213Y-55043707D01*
X81681210Y-55043711D01*
X81593609Y-55174814D01*
X81593602Y-55174827D01*
X81533264Y-55320498D01*
X81533261Y-55320510D01*
X81502500Y-55475153D01*
X78398500Y-55475153D01*
X78398500Y-53475153D01*
X81902500Y-53475153D01*
X81902500Y-53632846D01*
X81933261Y-53787489D01*
X81933264Y-53787501D01*
X81993602Y-53933172D01*
X81993609Y-53933185D01*
X82081210Y-54064288D01*
X82081213Y-54064292D01*
X82192707Y-54175786D01*
X82192711Y-54175789D01*
X82323814Y-54263390D01*
X82323827Y-54263397D01*
X82440206Y-54311602D01*
X82469503Y-54323737D01*
X82624153Y-54354499D01*
X82624156Y-54354500D01*
X82624158Y-54354500D01*
X82781844Y-54354500D01*
X82781845Y-54354499D01*
X82936497Y-54323737D01*
X83061033Y-54272153D01*
X111947500Y-54272153D01*
X111947500Y-54429846D01*
X111978261Y-54584489D01*
X111978264Y-54584501D01*
X112038602Y-54730172D01*
X112038609Y-54730185D01*
X112126210Y-54861288D01*
X112126213Y-54861292D01*
X112163240Y-54898319D01*
X112196725Y-54959642D01*
X112191741Y-55029334D01*
X112163240Y-55073681D01*
X112126213Y-55110707D01*
X112126210Y-55110711D01*
X112038609Y-55241814D01*
X112038602Y-55241827D01*
X111978264Y-55387498D01*
X111978261Y-55387510D01*
X111947500Y-55542153D01*
X111947500Y-55699846D01*
X111978261Y-55854489D01*
X111978264Y-55854501D01*
X112038602Y-56000172D01*
X112038609Y-56000185D01*
X112126210Y-56131288D01*
X112126213Y-56131292D01*
X112237707Y-56242786D01*
X112237711Y-56242789D01*
X112368814Y-56330390D01*
X112368827Y-56330397D01*
X112427018Y-56354500D01*
X112514503Y-56390737D01*
X112669153Y-56421499D01*
X112669156Y-56421500D01*
X112669158Y-56421500D01*
X112826844Y-56421500D01*
X112826845Y-56421499D01*
X112981497Y-56390737D01*
X113127179Y-56330394D01*
X113258289Y-56242789D01*
X113369789Y-56131289D01*
X113457394Y-56000179D01*
X113517737Y-55854497D01*
X113548500Y-55699842D01*
X113548500Y-55542158D01*
X113548500Y-55542155D01*
X113548499Y-55542153D01*
X113535172Y-55475153D01*
X113517737Y-55387503D01*
X113489983Y-55320498D01*
X113457397Y-55241827D01*
X113457390Y-55241814D01*
X113369789Y-55110711D01*
X113369786Y-55110707D01*
X113332760Y-55073681D01*
X113328891Y-55066595D01*
X113322351Y-55061858D01*
X113312387Y-55036370D01*
X113299275Y-55012358D01*
X113299850Y-55004304D01*
X113296911Y-54996784D01*
X113302307Y-54969959D01*
X113304259Y-54942666D01*
X113304583Y-54942153D01*
X114782500Y-54942153D01*
X114782500Y-55099846D01*
X114813261Y-55254489D01*
X114813264Y-55254501D01*
X114873602Y-55400172D01*
X114873609Y-55400185D01*
X114961210Y-55531288D01*
X114961213Y-55531292D01*
X115072707Y-55642786D01*
X115072711Y-55642789D01*
X115203814Y-55730390D01*
X115203827Y-55730397D01*
X115349498Y-55790735D01*
X115349503Y-55790737D01*
X115504153Y-55821499D01*
X115504156Y-55821500D01*
X115504158Y-55821500D01*
X115661844Y-55821500D01*
X115661845Y-55821499D01*
X115816497Y-55790737D01*
X115962179Y-55730394D01*
X116093289Y-55642789D01*
X116204789Y-55531289D01*
X116292394Y-55400179D01*
X116352737Y-55254497D01*
X116383500Y-55099842D01*
X116383500Y-54942158D01*
X116383500Y-54942155D01*
X116383499Y-54942153D01*
X116374780Y-54898319D01*
X116352737Y-54787503D01*
X116338653Y-54753500D01*
X116292397Y-54641827D01*
X116292390Y-54641814D01*
X116204789Y-54510711D01*
X116204786Y-54510707D01*
X116093292Y-54399213D01*
X116093288Y-54399210D01*
X115962185Y-54311609D01*
X115962172Y-54311602D01*
X115816501Y-54251264D01*
X115816489Y-54251261D01*
X115661845Y-54220500D01*
X115661842Y-54220500D01*
X115504158Y-54220500D01*
X115504155Y-54220500D01*
X115349510Y-54251261D01*
X115349498Y-54251264D01*
X115203827Y-54311602D01*
X115203814Y-54311609D01*
X115072711Y-54399210D01*
X115072707Y-54399213D01*
X114961213Y-54510707D01*
X114961210Y-54510711D01*
X114873609Y-54641814D01*
X114873602Y-54641827D01*
X114813264Y-54787498D01*
X114813261Y-54787510D01*
X114782500Y-54942153D01*
X113304583Y-54942153D01*
X113309450Y-54934446D01*
X113310690Y-54928287D01*
X113329322Y-54902986D01*
X113331396Y-54899704D01*
X113332086Y-54898991D01*
X113369789Y-54861289D01*
X113376488Y-54851264D01*
X113457390Y-54730185D01*
X113457390Y-54730184D01*
X113457394Y-54730179D01*
X113517737Y-54584497D01*
X113548500Y-54429842D01*
X113548500Y-54272158D01*
X113548500Y-54272155D01*
X113548499Y-54272153D01*
X113544343Y-54251261D01*
X113517737Y-54117503D01*
X113517735Y-54117498D01*
X113457397Y-53971827D01*
X113457390Y-53971814D01*
X113369789Y-53840711D01*
X113369786Y-53840707D01*
X113258292Y-53729213D01*
X113258288Y-53729210D01*
X113127185Y-53641609D01*
X113127172Y-53641602D01*
X112981501Y-53581264D01*
X112981489Y-53581261D01*
X112826845Y-53550500D01*
X112826842Y-53550500D01*
X112669158Y-53550500D01*
X112669155Y-53550500D01*
X112514510Y-53581261D01*
X112514498Y-53581264D01*
X112368827Y-53641602D01*
X112368814Y-53641609D01*
X112237711Y-53729210D01*
X112237707Y-53729213D01*
X112126213Y-53840707D01*
X112126210Y-53840711D01*
X112038609Y-53971814D01*
X112038602Y-53971827D01*
X111978264Y-54117498D01*
X111978261Y-54117510D01*
X111947500Y-54272153D01*
X83061033Y-54272153D01*
X83082179Y-54263394D01*
X83213289Y-54175789D01*
X83324789Y-54064289D01*
X83412394Y-53933179D01*
X83472737Y-53787497D01*
X83503500Y-53632842D01*
X83503500Y-53475158D01*
X83503500Y-53475155D01*
X83503499Y-53475153D01*
X83472738Y-53320510D01*
X83472737Y-53320503D01*
X83442803Y-53248235D01*
X83412397Y-53174827D01*
X83412390Y-53174814D01*
X83324789Y-53043711D01*
X83324786Y-53043707D01*
X83213292Y-52932213D01*
X83213288Y-52932210D01*
X83082185Y-52844609D01*
X83082172Y-52844602D01*
X82936501Y-52784264D01*
X82936489Y-52784261D01*
X82781845Y-52753500D01*
X82781842Y-52753500D01*
X82624158Y-52753500D01*
X82624155Y-52753500D01*
X82469510Y-52784261D01*
X82469498Y-52784264D01*
X82323827Y-52844602D01*
X82323814Y-52844609D01*
X82192711Y-52932210D01*
X82192707Y-52932213D01*
X82081213Y-53043707D01*
X82081210Y-53043711D01*
X81993609Y-53174814D01*
X81993602Y-53174827D01*
X81933264Y-53320498D01*
X81933261Y-53320510D01*
X81902500Y-53475153D01*
X78398500Y-53475153D01*
X78398500Y-51732153D01*
X109664500Y-51732153D01*
X109664500Y-51889846D01*
X109695261Y-52044489D01*
X109695264Y-52044501D01*
X109755602Y-52190172D01*
X109755609Y-52190185D01*
X109843210Y-52321288D01*
X109843213Y-52321292D01*
X109880240Y-52358319D01*
X109913725Y-52419642D01*
X109908741Y-52489334D01*
X109880240Y-52533681D01*
X109843213Y-52570707D01*
X109843210Y-52570711D01*
X109755609Y-52701814D01*
X109755602Y-52701827D01*
X109695264Y-52847498D01*
X109695261Y-52847510D01*
X109664500Y-53002153D01*
X109664500Y-53159846D01*
X109695261Y-53314489D01*
X109695264Y-53314501D01*
X109755602Y-53460172D01*
X109755609Y-53460185D01*
X109843210Y-53591288D01*
X109843213Y-53591292D01*
X109954707Y-53702786D01*
X109954711Y-53702789D01*
X110085814Y-53790390D01*
X110085827Y-53790397D01*
X110207288Y-53840707D01*
X110231503Y-53850737D01*
X110386153Y-53881499D01*
X110386156Y-53881500D01*
X110386158Y-53881500D01*
X110543844Y-53881500D01*
X110543845Y-53881499D01*
X110698497Y-53850737D01*
X110844179Y-53790394D01*
X110975289Y-53702789D01*
X111086789Y-53591289D01*
X111174394Y-53460179D01*
X111234737Y-53314497D01*
X111265500Y-53159842D01*
X111265500Y-53002158D01*
X111265500Y-53002155D01*
X111265499Y-53002153D01*
X111262841Y-52988789D01*
X111234737Y-52847503D01*
X111208543Y-52784264D01*
X111174397Y-52701827D01*
X111174390Y-52701814D01*
X111086789Y-52570711D01*
X111086786Y-52570707D01*
X111049760Y-52533681D01*
X111046076Y-52526935D01*
X111039824Y-52522465D01*
X111029565Y-52496697D01*
X111016275Y-52472358D01*
X111016823Y-52464691D01*
X111013980Y-52457550D01*
X111019280Y-52430330D01*
X111021259Y-52402666D01*
X111023149Y-52399653D01*
X114782500Y-52399653D01*
X114782500Y-52557346D01*
X114813261Y-52711989D01*
X114813264Y-52712001D01*
X114873602Y-52857672D01*
X114873609Y-52857685D01*
X114961210Y-52988788D01*
X114961213Y-52988792D01*
X115072707Y-53100286D01*
X115072711Y-53100289D01*
X115203814Y-53187890D01*
X115203827Y-53187897D01*
X115349498Y-53248235D01*
X115349503Y-53248237D01*
X115504153Y-53278999D01*
X115504156Y-53279000D01*
X115504158Y-53279000D01*
X115661844Y-53279000D01*
X115661845Y-53278999D01*
X115816497Y-53248237D01*
X115962179Y-53187894D01*
X116093289Y-53100289D01*
X116204789Y-52988789D01*
X116292394Y-52857679D01*
X116352737Y-52711997D01*
X116383500Y-52557342D01*
X116383500Y-52399658D01*
X116383500Y-52399655D01*
X116383499Y-52399653D01*
X116358930Y-52276139D01*
X116352737Y-52245003D01*
X116330031Y-52190185D01*
X116292397Y-52099327D01*
X116292390Y-52099314D01*
X116204789Y-51968211D01*
X116204786Y-51968207D01*
X116093292Y-51856713D01*
X116093288Y-51856710D01*
X115962185Y-51769109D01*
X115962172Y-51769102D01*
X115816501Y-51708764D01*
X115816489Y-51708761D01*
X115661845Y-51678000D01*
X115661842Y-51678000D01*
X115504158Y-51678000D01*
X115504155Y-51678000D01*
X115349510Y-51708761D01*
X115349498Y-51708764D01*
X115203827Y-51769102D01*
X115203814Y-51769109D01*
X115072711Y-51856710D01*
X115072707Y-51856713D01*
X114961213Y-51968207D01*
X114961210Y-51968211D01*
X114873609Y-52099314D01*
X114873602Y-52099327D01*
X114813264Y-52244998D01*
X114813261Y-52245010D01*
X114782500Y-52399653D01*
X111023149Y-52399653D01*
X111026202Y-52394785D01*
X111027335Y-52388969D01*
X111044980Y-52364852D01*
X111047862Y-52360258D01*
X111048799Y-52359278D01*
X111086789Y-52321289D01*
X111174394Y-52190179D01*
X111234737Y-52044497D01*
X111265500Y-51889842D01*
X111265500Y-51732158D01*
X111265500Y-51732155D01*
X111265499Y-51732153D01*
X111238723Y-51597543D01*
X119649999Y-51597543D01*
X119688447Y-51790829D01*
X119688450Y-51790839D01*
X119763864Y-51972907D01*
X119763871Y-51972919D01*
X119873360Y-52136781D01*
X119873363Y-52136785D01*
X120012714Y-52276136D01*
X120012718Y-52276139D01*
X120176579Y-52385628D01*
X120176592Y-52385635D01*
X120322328Y-52446000D01*
X120358665Y-52461051D01*
X120358669Y-52461051D01*
X120358670Y-52461052D01*
X120551956Y-52499500D01*
X120551959Y-52499500D01*
X120749043Y-52499500D01*
X120879082Y-52473632D01*
X120942335Y-52461051D01*
X121124414Y-52385632D01*
X121288282Y-52276139D01*
X121427639Y-52136782D01*
X121537132Y-51972914D01*
X121612551Y-51790835D01*
X121651000Y-51597541D01*
X121651000Y-51400459D01*
X121651000Y-51400456D01*
X121612552Y-51207170D01*
X121612551Y-51207169D01*
X121612551Y-51207165D01*
X121568829Y-51101609D01*
X121537135Y-51025092D01*
X121537128Y-51025079D01*
X121427639Y-50861218D01*
X121427636Y-50861214D01*
X121288285Y-50721863D01*
X121288281Y-50721860D01*
X121124420Y-50612371D01*
X121124407Y-50612364D01*
X120942339Y-50536950D01*
X120942329Y-50536947D01*
X120749043Y-50498500D01*
X120749041Y-50498500D01*
X120551959Y-50498500D01*
X120551957Y-50498500D01*
X120358670Y-50536947D01*
X120358660Y-50536950D01*
X120176592Y-50612364D01*
X120176579Y-50612371D01*
X120012718Y-50721860D01*
X120012714Y-50721863D01*
X119873363Y-50861214D01*
X119873360Y-50861218D01*
X119763871Y-51025079D01*
X119763864Y-51025092D01*
X119688450Y-51207160D01*
X119688447Y-51207170D01*
X119650000Y-51400456D01*
X119650000Y-51400459D01*
X119650000Y-51597541D01*
X119650000Y-51597543D01*
X119649999Y-51597543D01*
X111238723Y-51597543D01*
X111234737Y-51577503D01*
X111234735Y-51577498D01*
X111174397Y-51431827D01*
X111174390Y-51431814D01*
X111086789Y-51300711D01*
X111086786Y-51300707D01*
X110975292Y-51189213D01*
X110975288Y-51189210D01*
X110844185Y-51101609D01*
X110844172Y-51101602D01*
X110698501Y-51041264D01*
X110698489Y-51041261D01*
X110543845Y-51010500D01*
X110543842Y-51010500D01*
X110386158Y-51010500D01*
X110386155Y-51010500D01*
X110231510Y-51041261D01*
X110231498Y-51041264D01*
X110085827Y-51101602D01*
X110085814Y-51101609D01*
X109954711Y-51189210D01*
X109954707Y-51189213D01*
X109843213Y-51300707D01*
X109843210Y-51300711D01*
X109755609Y-51431814D01*
X109755602Y-51431827D01*
X109695264Y-51577498D01*
X109695261Y-51577510D01*
X109664500Y-51732153D01*
X78398500Y-51732153D01*
X78398500Y-49192153D01*
X112047500Y-49192153D01*
X112047500Y-49349846D01*
X112078261Y-49504489D01*
X112078264Y-49504501D01*
X112138602Y-49650172D01*
X112138609Y-49650185D01*
X112226210Y-49781288D01*
X112226213Y-49781292D01*
X112263240Y-49818319D01*
X112296725Y-49879642D01*
X112291741Y-49949334D01*
X112263240Y-49993681D01*
X112226213Y-50030707D01*
X112226210Y-50030711D01*
X112138609Y-50161814D01*
X112138602Y-50161827D01*
X112078264Y-50307498D01*
X112078261Y-50307510D01*
X112047500Y-50462153D01*
X112047500Y-50619846D01*
X112078261Y-50774489D01*
X112078264Y-50774501D01*
X112138602Y-50920172D01*
X112138609Y-50920185D01*
X112226210Y-51051288D01*
X112226213Y-51051292D01*
X112337707Y-51162786D01*
X112337711Y-51162789D01*
X112468814Y-51250390D01*
X112468827Y-51250397D01*
X112539828Y-51279806D01*
X112614503Y-51310737D01*
X112769153Y-51341499D01*
X112769156Y-51341500D01*
X112769158Y-51341500D01*
X112926844Y-51341500D01*
X112926845Y-51341499D01*
X113081497Y-51310737D01*
X113109376Y-51299189D01*
X113156173Y-51279806D01*
X113227172Y-51250397D01*
X113227172Y-51250396D01*
X113227179Y-51250394D01*
X113358289Y-51162789D01*
X113469789Y-51051289D01*
X113557394Y-50920179D01*
X113617737Y-50774497D01*
X113648500Y-50619842D01*
X113648500Y-50462158D01*
X113648500Y-50462155D01*
X113648499Y-50462153D01*
X113617738Y-50307510D01*
X113617737Y-50307503D01*
X113617735Y-50307498D01*
X113557397Y-50161827D01*
X113557390Y-50161814D01*
X113469789Y-50030711D01*
X113469786Y-50030707D01*
X113432760Y-49993681D01*
X113399275Y-49932358D01*
X113404259Y-49862666D01*
X113432760Y-49818319D01*
X113469786Y-49781292D01*
X113469789Y-49781289D01*
X113557394Y-49650179D01*
X113617737Y-49504497D01*
X113648500Y-49349842D01*
X113648500Y-49192158D01*
X113648500Y-49192155D01*
X113648499Y-49192153D01*
X113617738Y-49037510D01*
X113617737Y-49037503D01*
X113617735Y-49037498D01*
X113557397Y-48891827D01*
X113557390Y-48891814D01*
X113469789Y-48760711D01*
X113469786Y-48760707D01*
X113358292Y-48649213D01*
X113358288Y-48649210D01*
X113227185Y-48561609D01*
X113227172Y-48561602D01*
X113081501Y-48501264D01*
X113081489Y-48501261D01*
X112926845Y-48470500D01*
X112926842Y-48470500D01*
X112769158Y-48470500D01*
X112769155Y-48470500D01*
X112614510Y-48501261D01*
X112614498Y-48501264D01*
X112468827Y-48561602D01*
X112468814Y-48561609D01*
X112337711Y-48649210D01*
X112337707Y-48649213D01*
X112226213Y-48760707D01*
X112226210Y-48760711D01*
X112138609Y-48891814D01*
X112138602Y-48891827D01*
X112078264Y-49037498D01*
X112078261Y-49037510D01*
X112047500Y-49192153D01*
X78398500Y-49192153D01*
X78398500Y-48032583D01*
X78416683Y-47967940D01*
X78604667Y-47660217D01*
X78831410Y-47289046D01*
X78833619Y-47285565D01*
X79361941Y-46483110D01*
X79364272Y-46479696D01*
X79919466Y-45695573D01*
X79921944Y-45692199D01*
X80477962Y-44960738D01*
X80503345Y-44927344D01*
X80505895Y-44924106D01*
X81112886Y-44179334D01*
X81115534Y-44176195D01*
X81747386Y-43452401D01*
X81750141Y-43449350D01*
X82317551Y-42842153D01*
X94547500Y-42842153D01*
X94547500Y-42999846D01*
X94578261Y-43154489D01*
X94578264Y-43154501D01*
X94638602Y-43300172D01*
X94638609Y-43300185D01*
X94726210Y-43431288D01*
X94726213Y-43431292D01*
X94763240Y-43468319D01*
X94796725Y-43529642D01*
X94791741Y-43599334D01*
X94763240Y-43643681D01*
X94726213Y-43680707D01*
X94726210Y-43680711D01*
X94638609Y-43811814D01*
X94638602Y-43811827D01*
X94578264Y-43957498D01*
X94578261Y-43957510D01*
X94547500Y-44112153D01*
X94547500Y-44269846D01*
X94578261Y-44424489D01*
X94578264Y-44424501D01*
X94638602Y-44570172D01*
X94638609Y-44570185D01*
X94726210Y-44701288D01*
X94726213Y-44701292D01*
X94837707Y-44812786D01*
X94837711Y-44812789D01*
X94968814Y-44900390D01*
X94968827Y-44900397D01*
X95114498Y-44960735D01*
X95114503Y-44960737D01*
X95269153Y-44991499D01*
X95269156Y-44991500D01*
X95269158Y-44991500D01*
X95426844Y-44991500D01*
X95426845Y-44991499D01*
X95581497Y-44960737D01*
X95727179Y-44900394D01*
X95858289Y-44812789D01*
X95969789Y-44701289D01*
X96057394Y-44570179D01*
X96117737Y-44424497D01*
X96148500Y-44269842D01*
X96148500Y-44112158D01*
X96148500Y-44112155D01*
X96148499Y-44112153D01*
X96117738Y-43957510D01*
X96117737Y-43957503D01*
X96099756Y-43914092D01*
X96057397Y-43811827D01*
X96057390Y-43811814D01*
X95969789Y-43680711D01*
X95969786Y-43680707D01*
X95932760Y-43643681D01*
X95899275Y-43582358D01*
X95904259Y-43512666D01*
X95932760Y-43468319D01*
X95969786Y-43431292D01*
X95969789Y-43431289D01*
X96057394Y-43300179D01*
X96117737Y-43154497D01*
X96148500Y-42999842D01*
X96148500Y-42842158D01*
X96148500Y-42842155D01*
X96148499Y-42842153D01*
X96117737Y-42687503D01*
X96117735Y-42687498D01*
X96057397Y-42541827D01*
X96057390Y-42541814D01*
X95969789Y-42410711D01*
X95969786Y-42410707D01*
X95858292Y-42299213D01*
X95858288Y-42299210D01*
X95727185Y-42211609D01*
X95727172Y-42211602D01*
X95581501Y-42151264D01*
X95581489Y-42151261D01*
X95426845Y-42120500D01*
X95426842Y-42120500D01*
X95269158Y-42120500D01*
X95269155Y-42120500D01*
X95114510Y-42151261D01*
X95114498Y-42151264D01*
X94968827Y-42211602D01*
X94968814Y-42211609D01*
X94837711Y-42299210D01*
X94837707Y-42299213D01*
X94726213Y-42410707D01*
X94726210Y-42410711D01*
X94638609Y-42541814D01*
X94638602Y-42541827D01*
X94578264Y-42687498D01*
X94578261Y-42687510D01*
X94547500Y-42842153D01*
X82317551Y-42842153D01*
X82406150Y-42747342D01*
X82409012Y-42744382D01*
X83088382Y-42065012D01*
X83091339Y-42062153D01*
X83793350Y-41406141D01*
X83796401Y-41403386D01*
X84520195Y-40771534D01*
X84523334Y-40768886D01*
X85268106Y-40161894D01*
X85271316Y-40159367D01*
X85682045Y-39847153D01*
X107006500Y-39847153D01*
X107006500Y-40004846D01*
X107037261Y-40159489D01*
X107037264Y-40159501D01*
X107097602Y-40305172D01*
X107097609Y-40305185D01*
X107185210Y-40436288D01*
X107185213Y-40436292D01*
X107296707Y-40547786D01*
X107296711Y-40547789D01*
X107427814Y-40635390D01*
X107427827Y-40635397D01*
X107573498Y-40695735D01*
X107573503Y-40695737D01*
X107728153Y-40726499D01*
X107728156Y-40726500D01*
X107728158Y-40726500D01*
X107885844Y-40726500D01*
X107885845Y-40726499D01*
X108040497Y-40695737D01*
X108186179Y-40635394D01*
X108205770Y-40622304D01*
X115616500Y-40622304D01*
X115616500Y-40799695D01*
X115651103Y-40973658D01*
X115651106Y-40973667D01*
X115718983Y-41137540D01*
X115718990Y-41137553D01*
X115817535Y-41285034D01*
X115817538Y-41285038D01*
X115942961Y-41410461D01*
X115942965Y-41410464D01*
X116090446Y-41509009D01*
X116090459Y-41509016D01*
X116213363Y-41559923D01*
X116254334Y-41576894D01*
X116254336Y-41576894D01*
X116254341Y-41576896D01*
X116428304Y-41611499D01*
X116428307Y-41611500D01*
X116428309Y-41611500D01*
X116605693Y-41611500D01*
X116605694Y-41611499D01*
X116663682Y-41599964D01*
X116779658Y-41576896D01*
X116779661Y-41576894D01*
X116779666Y-41576894D01*
X116943547Y-41509013D01*
X117091035Y-41410464D01*
X117216464Y-41285035D01*
X117315013Y-41137547D01*
X117382894Y-40973666D01*
X117417500Y-40799691D01*
X117417500Y-40622309D01*
X117417500Y-40622306D01*
X117417499Y-40622304D01*
X117382896Y-40448341D01*
X117382893Y-40448332D01*
X117315016Y-40284459D01*
X117315009Y-40284446D01*
X117216464Y-40136965D01*
X117216461Y-40136961D01*
X117091038Y-40011538D01*
X117091034Y-40011535D01*
X116943553Y-39912990D01*
X116943540Y-39912983D01*
X116779667Y-39845106D01*
X116779658Y-39845103D01*
X116605694Y-39810500D01*
X116605691Y-39810500D01*
X116428309Y-39810500D01*
X116428306Y-39810500D01*
X116254341Y-39845103D01*
X116254332Y-39845106D01*
X116090459Y-39912983D01*
X116090446Y-39912990D01*
X115942965Y-40011535D01*
X115942961Y-40011538D01*
X115817538Y-40136961D01*
X115817535Y-40136965D01*
X115718990Y-40284446D01*
X115718983Y-40284459D01*
X115651106Y-40448332D01*
X115651103Y-40448341D01*
X115616500Y-40622304D01*
X108205770Y-40622304D01*
X108317289Y-40547789D01*
X108317292Y-40547786D01*
X108336543Y-40528536D01*
X108428786Y-40436292D01*
X108428789Y-40436289D01*
X108516394Y-40305179D01*
X108576737Y-40159497D01*
X108607500Y-40004842D01*
X108607500Y-39847158D01*
X108607500Y-39847155D01*
X108607499Y-39847153D01*
X108576738Y-39692510D01*
X108576737Y-39692503D01*
X108572810Y-39683022D01*
X108516397Y-39546827D01*
X108516390Y-39546814D01*
X108428789Y-39415711D01*
X108428786Y-39415707D01*
X108317292Y-39304213D01*
X108317288Y-39304210D01*
X108186185Y-39216609D01*
X108186172Y-39216602D01*
X108040501Y-39156264D01*
X108040489Y-39156261D01*
X107885845Y-39125500D01*
X107885842Y-39125500D01*
X107728158Y-39125500D01*
X107728155Y-39125500D01*
X107573510Y-39156261D01*
X107573498Y-39156264D01*
X107427827Y-39216602D01*
X107427814Y-39216609D01*
X107296711Y-39304210D01*
X107296707Y-39304213D01*
X107185213Y-39415707D01*
X107185210Y-39415711D01*
X107097609Y-39546814D01*
X107097602Y-39546827D01*
X107037264Y-39692498D01*
X107037261Y-39692510D01*
X107006500Y-39847153D01*
X85682045Y-39847153D01*
X85897965Y-39683022D01*
X86036199Y-39577944D01*
X86039583Y-39575460D01*
X86265203Y-39415711D01*
X86823696Y-39020272D01*
X86827110Y-39017941D01*
X87629565Y-38489619D01*
X87633046Y-38487410D01*
X88311940Y-38072682D01*
X88376583Y-38054500D01*
X117419417Y-38054500D01*
X117484060Y-38072683D01*
G37*
%TD.AperFunction*%
%TD*%
M02*
