%TF.GenerationSoftware,KiCad,Pcbnew,10.0.4*%
%TF.CreationDate,2026-07-08T12:26:28+02:00*%
%TF.ProjectId,neptune-camera-esp,6e657074-756e-4652-9d63-616d6572612d,1.0*%
%TF.SameCoordinates,Original*%
%TF.FileFunction,Copper,L1,Top*%
%TF.FilePolarity,Positive*%
%FSLAX46Y46*%
G04 Gerber Fmt 4.6, Leading zero omitted, Abs format (unit mm)*
G04 Created by KiCad (PCBNEW 10.0.4) date 2026-07-08 12:26:28*
%MOMM*%
%LPD*%
G01*
G04 APERTURE LIST*
G04 Aperture macros list*
%AMRoundRect*
0 Rectangle with rounded corners*
0 $1 Rounding radius*
0 $2 $3 $4 $5 $6 $7 $8 $9 X,Y pos of 4 corners*
0 Add a 4 corners polygon primitive as box body*
4,1,4,$2,$3,$4,$5,$6,$7,$8,$9,$2,$3,0*
0 Add four circle primitives for the rounded corners*
1,1,$1+$1,$2,$3*
1,1,$1+$1,$4,$5*
1,1,$1+$1,$6,$7*
1,1,$1+$1,$8,$9*
0 Add four rect primitives between the rounded corners*
20,1,$1+$1,$2,$3,$4,$5,0*
20,1,$1+$1,$4,$5,$6,$7,0*
20,1,$1+$1,$6,$7,$8,$9,0*
20,1,$1+$1,$8,$9,$2,$3,0*%
G04 Aperture macros list end*
%TA.AperFunction,SMDPad,CuDef*%
%ADD10RoundRect,0.225000X-0.225000X-0.250000X0.225000X-0.250000X0.225000X0.250000X-0.225000X0.250000X0*%
%TD*%
%TA.AperFunction,SMDPad,CuDef*%
%ADD11RoundRect,0.225000X0.225000X0.250000X-0.225000X0.250000X-0.225000X-0.250000X0.225000X-0.250000X0*%
%TD*%
%TA.AperFunction,SMDPad,CuDef*%
%ADD12RoundRect,0.150000X0.512500X0.150000X-0.512500X0.150000X-0.512500X-0.150000X0.512500X-0.150000X0*%
%TD*%
%TA.AperFunction,SMDPad,CuDef*%
%ADD13RoundRect,0.135000X0.135000X0.185000X-0.135000X0.185000X-0.135000X-0.185000X0.135000X-0.185000X0*%
%TD*%
%TA.AperFunction,SMDPad,CuDef*%
%ADD14R,1.300000X1.700000*%
%TD*%
%TA.AperFunction,SMDPad,CuDef*%
%ADD15RoundRect,0.140000X-0.140000X-0.170000X0.140000X-0.170000X0.140000X0.170000X-0.140000X0.170000X0*%
%TD*%
%TA.AperFunction,SMDPad,CuDef*%
%ADD16RoundRect,0.135000X0.185000X-0.135000X0.185000X0.135000X-0.185000X0.135000X-0.185000X-0.135000X0*%
%TD*%
%TA.AperFunction,SMDPad,CuDef*%
%ADD17RoundRect,0.225000X-0.250000X0.225000X-0.250000X-0.225000X0.250000X-0.225000X0.250000X0.225000X0*%
%TD*%
%TA.AperFunction,SMDPad,CuDef*%
%ADD18RoundRect,0.150000X-0.150000X0.512500X-0.150000X-0.512500X0.150000X-0.512500X0.150000X0.512500X0*%
%TD*%
%TA.AperFunction,SMDPad,CuDef*%
%ADD19RoundRect,0.150000X0.150000X-0.512500X0.150000X0.512500X-0.150000X0.512500X-0.150000X-0.512500X0*%
%TD*%
%TA.AperFunction,SMDPad,CuDef*%
%ADD20RoundRect,0.140000X0.140000X0.170000X-0.140000X0.170000X-0.140000X-0.170000X0.140000X-0.170000X0*%
%TD*%
%TA.AperFunction,SMDPad,CuDef*%
%ADD21R,2.580000X1.000000*%
%TD*%
%TA.AperFunction,SMDPad,CuDef*%
%ADD22RoundRect,0.135000X-0.135000X-0.185000X0.135000X-0.185000X0.135000X0.185000X-0.135000X0.185000X0*%
%TD*%
%TA.AperFunction,SMDPad,CuDef*%
%ADD23RoundRect,0.225000X0.250000X-0.225000X0.250000X0.225000X-0.250000X0.225000X-0.250000X-0.225000X0*%
%TD*%
%TA.AperFunction,ViaPad*%
%ADD24C,0.800000*%
%TD*%
%TA.AperFunction,ViaPad*%
%ADD25C,0.600000*%
%TD*%
%TA.AperFunction,ViaPad*%
%ADD26C,1.000000*%
%TD*%
%TA.AperFunction,Conductor*%
%ADD27C,0.500000*%
%TD*%
%TA.AperFunction,Conductor*%
%ADD28C,0.800000*%
%TD*%
%TA.AperFunction,Conductor*%
%ADD29C,1.000000*%
%TD*%
%TA.AperFunction,Conductor*%
%ADD30C,0.200000*%
%TD*%
%TA.AperFunction,Conductor*%
%ADD31C,0.158200*%
%TD*%
G04 APERTURE END LIST*
D10*
%TO.P,C26,1*%
%TO.N,+3.3VA*%
X121150500Y-44699000D03*
%TO.P,C26,2*%
%TO.N,GND*%
X122700500Y-44699000D03*
%TD*%
D11*
%TO.P,C7,1*%
%TO.N,1.5V_OV5640*%
X91779000Y-82799500D03*
%TO.P,C7,2*%
%TO.N,GND*%
X90229000Y-82799500D03*
%TD*%
D12*
%TO.P,U4,1,VIN_1*%
%TO.N,VCC*%
X123256250Y-76350000D03*
%TO.P,U4,2,GND_2*%
%TO.N,GND*%
X123256250Y-75400000D03*
%TO.P,U4,3,EN_3*%
%TO.N,VCC*%
X123256250Y-74450000D03*
%TO.P,U4,4,NC_4*%
%TO.N,unconnected-(U4-NC-Pad4)*%
X120981250Y-74450000D03*
%TO.P,U4,5,VOUT_5*%
%TO.N,+3.3V*%
X120981250Y-76350000D03*
%TD*%
D13*
%TO.P,R1,1*%
%TO.N,/CAM_PWDN*%
X107343000Y-54109000D03*
%TO.P,R1,2*%
%TO.N,+3.3VA*%
X106323000Y-54109000D03*
%TD*%
D14*
%TO.P,SW2,1,1_1*%
%TO.N,/BOOT*%
X86317000Y-50046000D03*
%TO.P,SW2,2,2_2*%
%TO.N,GND*%
X81999000Y-50046000D03*
%TD*%
D10*
%TO.P,C5,1*%
%TO.N,GND*%
X114267000Y-73979500D03*
%TO.P,C5,2*%
%TO.N,+3.3V*%
X115817000Y-73979500D03*
%TD*%
D13*
%TO.P,R6,1*%
%TO.N,/OV5640_SCL*%
X109678000Y-53081000D03*
%TO.P,R6,2*%
%TO.N,+3.3VA*%
X108658000Y-53081000D03*
%TD*%
D15*
%TO.P,C24,1*%
%TO.N,/EN*%
X87841000Y-43010000D03*
%TO.P,C24,2*%
%TO.N,GND*%
X88801000Y-43010000D03*
%TD*%
D16*
%TO.P,R4,1*%
%TO.N,Net-(C25-Pad1)*%
X87811000Y-46003000D03*
%TO.P,R4,2*%
%TO.N,/EN*%
X87811000Y-44983000D03*
%TD*%
D10*
%TO.P,C4,1*%
%TO.N,GND*%
X114267000Y-75529500D03*
%TO.P,C4,2*%
%TO.N,+3.3V*%
X115817000Y-75529500D03*
%TD*%
D11*
%TO.P,C25,1*%
%TO.N,Net-(C25-Pad1)*%
X84933000Y-43086000D03*
%TO.P,C25,2*%
%TO.N,GND*%
X83383000Y-43086000D03*
%TD*%
D17*
%TO.P,C9,1*%
%TO.N,GND*%
X125018750Y-75125000D03*
%TO.P,C9,2*%
%TO.N,VCC*%
X125018750Y-76675000D03*
%TD*%
D16*
%TO.P,R2,1*%
%TO.N,/CAM_RESET*%
X104803000Y-55129000D03*
%TO.P,R2,2*%
%TO.N,GND*%
X104803000Y-54109000D03*
%TD*%
D18*
%TO.P,U2,1,IN_1*%
%TO.N,+3.3V*%
X91954000Y-78792000D03*
%TO.P,U2,2,GND_2*%
%TO.N,GND*%
X91004000Y-78792000D03*
%TO.P,U2,3,EN_3*%
%TO.N,+3.3V*%
X90054000Y-78792000D03*
%TO.P,U2,4,NC_4*%
%TO.N,unconnected-(U2-NC-Pad4)*%
X90054000Y-81067000D03*
%TO.P,U2,5,Vout_5*%
%TO.N,1.5V_OV5640*%
X91954000Y-81067000D03*
%TD*%
D13*
%TO.P,R3,1*%
%TO.N,+3.3VA*%
X88831000Y-44001000D03*
%TO.P,R3,2*%
%TO.N,/EN*%
X87811000Y-44001000D03*
%TD*%
D10*
%TO.P,C6,1*%
%TO.N,GND*%
X114267000Y-77079500D03*
%TO.P,C6,2*%
%TO.N,+3.3V*%
X115817000Y-77079500D03*
%TD*%
D19*
%TO.P,U5,1,VIN_1*%
%TO.N,VCC*%
X120975500Y-48736500D03*
%TO.P,U5,2,GND_2*%
%TO.N,GND*%
X121925500Y-48736500D03*
%TO.P,U5,3,EN_3*%
%TO.N,VCC*%
X122875500Y-48736500D03*
%TO.P,U5,4,NC_4*%
%TO.N,unconnected-(U5-NC-Pad4)*%
X122875500Y-46461500D03*
%TO.P,U5,5,VOUT_5*%
%TO.N,+3.3VA*%
X120975500Y-46461500D03*
%TD*%
D10*
%TO.P,C1,1*%
%TO.N,GND*%
X90729000Y-77079500D03*
%TO.P,C1,2*%
%TO.N,+3.3V*%
X92279000Y-77079500D03*
%TD*%
%TO.P,C3,1*%
%TO.N,GND*%
X90729000Y-73979500D03*
%TO.P,C3,2*%
%TO.N,+3.3V*%
X92279000Y-73979500D03*
%TD*%
D20*
%TO.P,C21,1*%
%TO.N,/CAM_PWDN*%
X107343000Y-55129000D03*
%TO.P,C21,2*%
%TO.N,GND*%
X106383000Y-55129000D03*
%TD*%
D11*
%TO.P,C8,1*%
%TO.N,2.8V_OV5640*%
X115317000Y-82799500D03*
%TO.P,C8,2*%
%TO.N,GND*%
X113767000Y-82799500D03*
%TD*%
D21*
%TO.P,J1,1,Pin_1_1*%
%TO.N,/I2C_OBC_SDA*%
X80618000Y-53554000D03*
%TO.P,J1,2,Pin_2_2*%
%TO.N,unconnected-(J1-Pin_2-Pad2)*%
X84788000Y-53554000D03*
%TO.P,J1,3,Pin_3_3*%
%TO.N,/I2C_OBC_SCL*%
X80618000Y-55554000D03*
%TO.P,J1,4,Pin_4_4*%
%TO.N,unconnected-(J1-Pin_4-Pad4)*%
X84788000Y-55554000D03*
%TO.P,J1,5,Pin_5_5*%
%TO.N,unconnected-(J1-Pin_5-Pad5)*%
X80618000Y-57554000D03*
%TO.P,J1,6,Pin_6_6*%
%TO.N,GND*%
X84788000Y-57554000D03*
%TO.P,J1,7,Pin_7_7*%
%TO.N,unconnected-(J1-Pin_7-Pad7)*%
X80618000Y-59554000D03*
%TO.P,J1,8,Pin_8_8*%
%TO.N,GND*%
X84788000Y-59554000D03*
%TO.P,J1,9,Pin_9_9*%
X80618000Y-61554000D03*
%TO.P,J1,10,Pin_10_10*%
X84788000Y-61554000D03*
%TO.P,J1,11,Pin_11_11*%
%TO.N,unconnected-(J1-Pin_11-Pad11)*%
X80618000Y-63554000D03*
%TO.P,J1,12,Pin_12_12*%
%TO.N,unconnected-(J1-Pin_12-Pad12)*%
X84788000Y-63554000D03*
%TO.P,J1,13,Pin_13_13*%
%TO.N,unconnected-(J1-Pin_13-Pad13)*%
X80618000Y-65554000D03*
%TO.P,J1,14,Pin_14_14*%
%TO.N,unconnected-(J1-Pin_14-Pad14)*%
X84788000Y-65554000D03*
%TO.P,J1,15,Pin_15_15*%
%TO.N,/USB_DN*%
X80618000Y-67554000D03*
%TO.P,J1,16,Pin_16_16*%
%TO.N,/USB_DP*%
X84788000Y-67554000D03*
%TO.P,J1,17,Pin_17_17*%
%TO.N,GND*%
X80618000Y-69554000D03*
%TO.P,J1,18,Pin_18_18*%
X84788000Y-69554000D03*
%TO.P,J1,19,Pin_19_19*%
X80618000Y-71554000D03*
%TO.P,J1,20,Pin_20_20*%
X84788000Y-71554000D03*
%TD*%
D22*
%TO.P,R5,1*%
%TO.N,+3.3VA*%
X108658000Y-51811000D03*
%TO.P,R5,2*%
%TO.N,/OV5640_SDA*%
X109678000Y-51811000D03*
%TD*%
D14*
%TO.P,SW1,1,1_1*%
%TO.N,GND*%
X81999000Y-46003000D03*
%TO.P,SW1,2,2_2*%
%TO.N,Net-(C25-Pad1)*%
X86317000Y-46003000D03*
%TD*%
D18*
%TO.P,U3,1,IN_1*%
%TO.N,+3.3V*%
X115492000Y-78792000D03*
%TO.P,U3,2,GND_2*%
%TO.N,GND*%
X114542000Y-78792000D03*
%TO.P,U3,3,EN_3*%
%TO.N,+3.3V*%
X113592000Y-78792000D03*
%TO.P,U3,4,NC_4*%
%TO.N,unconnected-(U3-NC-Pad4)*%
X113592000Y-81067000D03*
%TO.P,U3,5,Vout_5*%
%TO.N,2.8V_OV5640*%
X115492000Y-81067000D03*
%TD*%
D11*
%TO.P,C20,1*%
%TO.N,GND*%
X122200500Y-50499000D03*
%TO.P,C20,2*%
%TO.N,VCC*%
X120650500Y-50499000D03*
%TD*%
D10*
%TO.P,C2,1*%
%TO.N,GND*%
X90729000Y-75529500D03*
%TO.P,C2,2*%
%TO.N,+3.3V*%
X92279000Y-75529500D03*
%TD*%
D23*
%TO.P,C10,1*%
%TO.N,+3.3V*%
X119218750Y-76175000D03*
%TO.P,C10,2*%
%TO.N,GND*%
X119218750Y-74625000D03*
%TD*%
D21*
%TO.P,J2,1,Pin_1_1*%
%TO.N,unconnected-(J2-Pin_1-Pad1)*%
X121008000Y-53554000D03*
%TO.P,J2,2,Pin_2_2*%
%TO.N,unconnected-(J2-Pin_2-Pad2)*%
X125178000Y-53554000D03*
%TO.P,J2,3,Pin_3_3*%
%TO.N,unconnected-(J2-Pin_3-Pad3)*%
X121008000Y-55554000D03*
%TO.P,J2,4,Pin_4_4*%
%TO.N,unconnected-(J2-Pin_4-Pad4)*%
X125178000Y-55554000D03*
%TO.P,J2,5,Pin_5_5*%
%TO.N,unconnected-(J2-Pin_5-Pad5)*%
X121008000Y-57554000D03*
%TO.P,J2,6,Pin_6_6*%
%TO.N,unconnected-(J2-Pin_6-Pad6)*%
X125178000Y-57554000D03*
%TO.P,J2,7,Pin_7_7*%
%TO.N,unconnected-(J2-Pin_7-Pad7)*%
X121008000Y-59554000D03*
%TO.P,J2,8,Pin_8_8*%
%TO.N,unconnected-(J2-Pin_8-Pad8)*%
X125178000Y-59554000D03*
%TO.P,J2,9,Pin_9_9*%
%TO.N,VCC*%
X121008000Y-61554000D03*
%TO.P,J2,10,Pin_10_10*%
X125178000Y-61554000D03*
%TO.P,J2,11,Pin_11_11*%
%TO.N,/LTE_PWRKEY*%
X121008000Y-63554000D03*
%TO.P,J2,12,Pin_12_12*%
%TO.N,/LTE_RESET*%
X125178000Y-63554000D03*
%TO.P,J2,13,Pin_13_13*%
%TO.N,GND*%
X121008000Y-65554000D03*
%TO.P,J2,14,Pin_14_14*%
X125178000Y-65554000D03*
%TO.P,J2,15,Pin_15_15*%
X121008000Y-67554000D03*
%TO.P,J2,16,Pin_16_16*%
X125178000Y-67554000D03*
%TO.P,J2,17,Pin_17_17*%
%TO.N,unconnected-(J2-Pin_17-Pad17)*%
X121008000Y-69554000D03*
%TO.P,J2,18,Pin_18_18*%
%TO.N,unconnected-(J2-Pin_18-Pad18)*%
X125178000Y-69554000D03*
%TO.P,J2,19,Pin_19_19*%
%TO.N,unconnected-(J2-Pin_19-Pad19)*%
X121008000Y-71554000D03*
%TO.P,J2,20,Pin_20_20*%
%TO.N,unconnected-(J2-Pin_20-Pad20)*%
X125178000Y-71554000D03*
%TD*%
D24*
%TO.N,+3.3VA*%
X116517000Y-40711000D03*
D25*
%TO.N,GND*%
X97858000Y-43114000D03*
D26*
X89229000Y-82799500D03*
X101698000Y-49531000D03*
D24*
X106223000Y-82888000D03*
D25*
X101318000Y-54154000D03*
X93418000Y-69884000D03*
D26*
X112048000Y-78724000D03*
D25*
X91718000Y-40834000D03*
X89718000Y-57684000D03*
X110958000Y-61519000D03*
X82628000Y-66774000D03*
D26*
X82703000Y-61554000D03*
D25*
X123008000Y-71394000D03*
D26*
X101698000Y-44131000D03*
D25*
X96548000Y-54304000D03*
X109998000Y-73384000D03*
X90338000Y-69364000D03*
X110898000Y-58684000D03*
X89718000Y-64874000D03*
X80328000Y-76354000D03*
D24*
X81999000Y-44503000D03*
D25*
X86958000Y-65814000D03*
D26*
X82703000Y-57554000D03*
D25*
X93751000Y-60164000D03*
X97398000Y-76654000D03*
X96298000Y-51494000D03*
X95078000Y-61569000D03*
X103868000Y-79674000D03*
X109308000Y-48984000D03*
D26*
X119218750Y-73625000D03*
D25*
X109358000Y-44364000D03*
X86328000Y-41104000D03*
X89718000Y-60904000D03*
X87078000Y-77314000D03*
X89898000Y-51334000D03*
X96698000Y-73524000D03*
D26*
X123700500Y-44699000D03*
D25*
X124368000Y-79134000D03*
D24*
X109273000Y-82888000D03*
D26*
X104398000Y-44131000D03*
D25*
X93108000Y-80004000D03*
X115838000Y-45264000D03*
D26*
X107098000Y-46831000D03*
D24*
X101598000Y-82888000D03*
D25*
X116978000Y-85364000D03*
X118838000Y-64114000D03*
X104103000Y-54109000D03*
X108448000Y-79234000D03*
D26*
X93748000Y-78724000D03*
X82703000Y-59554000D03*
X104398000Y-49531000D03*
D25*
X87008000Y-61794000D03*
D26*
X123200500Y-50499000D03*
D25*
X116656000Y-65167000D03*
X110208000Y-76724000D03*
D26*
X101698000Y-46831000D03*
D25*
X122138000Y-77634000D03*
D26*
X107098000Y-49531000D03*
D25*
X83588000Y-79974000D03*
X89788000Y-39294000D03*
X105538000Y-42204000D03*
X94068000Y-81684000D03*
X86658000Y-53604000D03*
X95018000Y-58734000D03*
D26*
X90729000Y-72979500D03*
D25*
X86758000Y-69474000D03*
X122028000Y-73084000D03*
D26*
X123093000Y-65554000D03*
D25*
X116768000Y-80114000D03*
X95118000Y-64404000D03*
X103918000Y-77114000D03*
X86558000Y-83744000D03*
X123008000Y-69644000D03*
D26*
X112767000Y-82799500D03*
D25*
X120598000Y-82104000D03*
D26*
X117083000Y-58836000D03*
D25*
X110548000Y-81684000D03*
X90088000Y-45404000D03*
X88698000Y-79984000D03*
X109015000Y-60339000D03*
X97368000Y-79194000D03*
X89501000Y-43010000D03*
X124238000Y-47814000D03*
D26*
X82703000Y-69554000D03*
D25*
X79668000Y-73844000D03*
X89718000Y-54574000D03*
X119298000Y-47574000D03*
X112238000Y-80034000D03*
X105783000Y-55129000D03*
X82628000Y-64014000D03*
D24*
X116517000Y-38811000D03*
D25*
X99698000Y-83594000D03*
X85348000Y-73894000D03*
X86858000Y-57274000D03*
D24*
X81999000Y-48024500D03*
D25*
X116070000Y-69269000D03*
D26*
X107098000Y-44131000D03*
D25*
X109332000Y-64382000D03*
D26*
X82703000Y-71554000D03*
D25*
X108538000Y-76724000D03*
D24*
X92848000Y-39111000D03*
D25*
X93724000Y-62929000D03*
X118788000Y-67784000D03*
X118738000Y-71454000D03*
D26*
X125018750Y-74125000D03*
X114267000Y-72979500D03*
D25*
X87968000Y-47794000D03*
D26*
X123093000Y-67554000D03*
D24*
%TO.N,1.5V_OV5640*%
X104673000Y-86588000D03*
D25*
%TO.N,/OV5640_SDA*%
X110465000Y-51811000D03*
D26*
%TO.N,VCC*%
X126218750Y-76675000D03*
X120650500Y-51499000D03*
X123093000Y-61554000D03*
D24*
%TO.N,+3.3V*%
X103148000Y-86588000D03*
D26*
X95248000Y-83659000D03*
X95688000Y-86554000D03*
D25*
%TO.N,/CAM_PWDN*%
X107343000Y-55779000D03*
%TO.N,/OV5640_SCL*%
X110465000Y-53081000D03*
%TO.N,/BOOT*%
X92948000Y-55621000D03*
%TO.N,/EN*%
X107807000Y-39926000D03*
%TO.N,/CAM_RESET*%
X104803000Y-55729000D03*
D24*
%TO.N,2.8V_OV5640*%
X107723000Y-86588000D03*
D25*
%TO.N,/I2C_OBC_SDA*%
X82703000Y-53554000D03*
%TO.N,/I2C_OBC_SCL*%
X82303000Y-55554000D03*
%TO.N,/USB_DN*%
X112748000Y-54351000D03*
%TO.N,/USB_DP*%
X112748000Y-55621000D03*
%TO.N,/LTE_PWRKEY*%
X112848000Y-50541000D03*
%TO.N,/LTE_RESET*%
X112848000Y-49271000D03*
%TO.N,/PRG_UART_RX*%
X95348000Y-44191000D03*
X115583000Y-55021000D03*
%TO.N,/PRG_UART_TX*%
X115583000Y-52478500D03*
X95348000Y-42921000D03*
%TD*%
%TO.N,+3.3VA*%
D27*
X94579000Y-40711000D02*
X116517000Y-40711000D01*
X106323000Y-53173000D02*
X106415000Y-53081000D01*
X91289000Y-44001000D02*
X94579000Y-40711000D01*
X100369000Y-53081000D02*
X91289000Y-44001000D01*
X88831000Y-44001000D02*
X91289000Y-44001000D01*
D28*
X116517000Y-40711000D02*
X117162500Y-40711000D01*
D27*
X120975500Y-44874000D02*
X121150500Y-44699000D01*
X108658000Y-53081000D02*
X106415000Y-53081000D01*
D28*
X117162500Y-40711000D02*
X121150500Y-44699000D01*
D27*
X120975500Y-46461500D02*
X120975500Y-44874000D01*
X108658000Y-53081000D02*
X108658000Y-51811000D01*
X106323000Y-54109000D02*
X106323000Y-53173000D01*
X106415000Y-53081000D02*
X100369000Y-53081000D01*
%TO.N,GND*%
D28*
X114267000Y-72979500D02*
X114267000Y-73979500D01*
D29*
X121008000Y-67554000D02*
X123093000Y-67554000D01*
D27*
X91004000Y-78792000D02*
X91004000Y-77354500D01*
D29*
X121008000Y-65554000D02*
X123093000Y-65554000D01*
X80618000Y-69554000D02*
X82703000Y-69554000D01*
X125178000Y-67554000D02*
X123093000Y-67554000D01*
D27*
X105783000Y-55129000D02*
X106383000Y-55129000D01*
D28*
X113767000Y-82799500D02*
X112767000Y-82799500D01*
X90729000Y-77079500D02*
X90729000Y-75529500D01*
D27*
X81999000Y-44503000D02*
X81999000Y-46003000D01*
D29*
X84788000Y-61554000D02*
X82703000Y-61554000D01*
D28*
X90229000Y-82799500D02*
X89229000Y-82799500D01*
D27*
X121925500Y-48736500D02*
X121925500Y-50224000D01*
X83383000Y-43086000D02*
X83383000Y-43119000D01*
D28*
X90729000Y-75529500D02*
X90729000Y-73979500D01*
D29*
X84788000Y-71554000D02*
X82703000Y-71554000D01*
D28*
X114267000Y-77079500D02*
X114267000Y-75529500D01*
X122700500Y-44699000D02*
X123700500Y-44699000D01*
D27*
X91004000Y-77354500D02*
X90729000Y-77079500D01*
D28*
X123200500Y-50499000D02*
X122200500Y-50499000D01*
D29*
X80618000Y-61554000D02*
X82703000Y-61554000D01*
X80618000Y-71554000D02*
X82703000Y-71554000D01*
D28*
X125018750Y-75125000D02*
X125018750Y-74125000D01*
X90729000Y-72979500D02*
X90729000Y-73979500D01*
D27*
X114542000Y-78792000D02*
X114542000Y-77354500D01*
X124743750Y-75400000D02*
X125018750Y-75125000D01*
X83383000Y-43119000D02*
X81999000Y-44503000D01*
X81999000Y-48024500D02*
X81999000Y-46003000D01*
X114542000Y-77354500D02*
X114267000Y-77079500D01*
X104103000Y-54109000D02*
X104803000Y-54109000D01*
D29*
X125178000Y-65554000D02*
X123093000Y-65554000D01*
X84788000Y-59554000D02*
X82703000Y-59554000D01*
D28*
X114267000Y-75529500D02*
X114267000Y-73979500D01*
D27*
X81999000Y-48024500D02*
X81999000Y-50046000D01*
D29*
X84788000Y-57554000D02*
X82703000Y-57554000D01*
D27*
X88801000Y-43010000D02*
X89501000Y-43010000D01*
X123256250Y-75400000D02*
X124743750Y-75400000D01*
D28*
X119218750Y-74625000D02*
X119218750Y-73625000D01*
D27*
X121925500Y-50224000D02*
X122200500Y-50499000D01*
D29*
X84788000Y-69554000D02*
X82703000Y-69554000D01*
%TO.N,1.5V_OV5640*%
D28*
X103900000Y-85264000D02*
X92806000Y-85264000D01*
D27*
X91954000Y-82624500D02*
X91779000Y-82799500D01*
D28*
X92806000Y-85264000D02*
X91779000Y-84237000D01*
X104673000Y-86588000D02*
X104673000Y-86037000D01*
X91779000Y-84237000D02*
X91779000Y-82799500D01*
D27*
X91954000Y-81067000D02*
X91954000Y-82624500D01*
D28*
X104673000Y-86037000D02*
X103900000Y-85264000D01*
%TO.N,/OV5640_SDA*%
D30*
X110465000Y-51811000D02*
X109678000Y-51811000D01*
%TO.N,VCC*%
D28*
X123093000Y-61554000D02*
X121008000Y-61554000D01*
D27*
X121394500Y-47560000D02*
X120975500Y-47979000D01*
X120975500Y-47979000D02*
X120975500Y-48736500D01*
X122505000Y-74450000D02*
X123256250Y-74450000D01*
X122463500Y-47560000D02*
X121394500Y-47560000D01*
X120975500Y-48736500D02*
X120975500Y-50174000D01*
D28*
X126218750Y-76675000D02*
X125018750Y-76675000D01*
D27*
X120975500Y-50174000D02*
X120650500Y-50499000D01*
D28*
X123093000Y-61554000D02*
X125178000Y-61554000D01*
D27*
X122875500Y-47972000D02*
X122463500Y-47560000D01*
X122505000Y-76350000D02*
X122090000Y-75935000D01*
X123256250Y-76350000D02*
X124693750Y-76350000D01*
X122090000Y-74865000D02*
X122505000Y-74450000D01*
X122875500Y-48736500D02*
X122875500Y-47972000D01*
X122090000Y-75935000D02*
X122090000Y-74865000D01*
D28*
X120650500Y-51499000D02*
X120650500Y-50499000D01*
D27*
X123256250Y-76350000D02*
X122505000Y-76350000D01*
X124693750Y-76350000D02*
X125018750Y-76675000D01*
%TO.N,+3.3V*%
X115639000Y-78645000D02*
X115639000Y-77257500D01*
D28*
X95722000Y-86588000D02*
X95688000Y-86554000D01*
D27*
X92107000Y-77251500D02*
X92107000Y-78639000D01*
X92279000Y-77079500D02*
X92107000Y-77251500D01*
X90532000Y-80031000D02*
X91477000Y-80031000D01*
D28*
X115817000Y-73979500D02*
X116866500Y-73979500D01*
D27*
X115066000Y-79984000D02*
X115492000Y-79558000D01*
X91954000Y-79554000D02*
X91954000Y-78792000D01*
D28*
X92279000Y-72258000D02*
X93180000Y-71357000D01*
D27*
X115492000Y-78792000D02*
X115639000Y-78645000D01*
D28*
X93180000Y-71357000D02*
X95426000Y-71357000D01*
D27*
X115639000Y-77257500D02*
X115817000Y-77079500D01*
X90054000Y-79553000D02*
X90532000Y-80031000D01*
D28*
X114906000Y-71357000D02*
X115817000Y-72268000D01*
X115817000Y-72268000D02*
X115817000Y-73979500D01*
D27*
X92107000Y-78639000D02*
X91954000Y-78792000D01*
D28*
X92279000Y-73979500D02*
X92279000Y-72258000D01*
X118032000Y-76175000D02*
X119218750Y-76175000D01*
D27*
X119393750Y-76350000D02*
X119218750Y-76175000D01*
X115492000Y-79558000D02*
X115492000Y-78792000D01*
X90054000Y-78792000D02*
X90054000Y-79553000D01*
D28*
X95248000Y-71535000D02*
X95426000Y-71357000D01*
X95248000Y-83659000D02*
X95248000Y-71535000D01*
D27*
X91477000Y-80031000D02*
X91954000Y-79554000D01*
X113592000Y-79561000D02*
X114015000Y-79984000D01*
X114015000Y-79984000D02*
X115066000Y-79984000D01*
D28*
X115817000Y-77079500D02*
X115817000Y-75529500D01*
X117444000Y-74557000D02*
X117444000Y-75587000D01*
D27*
X120981250Y-76350000D02*
X119393750Y-76350000D01*
D28*
X117444000Y-75587000D02*
X118032000Y-76175000D01*
X95426000Y-71357000D02*
X114906000Y-71357000D01*
X115817000Y-75529500D02*
X115817000Y-73979500D01*
X92279000Y-73979500D02*
X92279000Y-75529500D01*
D27*
X113592000Y-78792000D02*
X113592000Y-79561000D01*
D28*
X103148000Y-86588000D02*
X95722000Y-86588000D01*
X92279000Y-75529500D02*
X92279000Y-77079500D01*
X116866500Y-73979500D02*
X117444000Y-74557000D01*
%TO.N,/CAM_PWDN*%
D30*
X107343000Y-54109000D02*
X107343000Y-55129000D01*
X107343000Y-55129000D02*
X107343000Y-55779000D01*
%TO.N,/OV5640_SCL*%
X110465000Y-53081000D02*
X109678000Y-53081000D01*
%TO.N,/BOOT*%
X87373000Y-50046000D02*
X86317000Y-50046000D01*
X92948000Y-55621000D02*
X87373000Y-50046000D01*
%TO.N,/EN*%
X90925000Y-39926000D02*
X107807000Y-39926000D01*
X87841000Y-43971000D02*
X87811000Y-44001000D01*
X87841000Y-43010000D02*
X90925000Y-39926000D01*
X87811000Y-44983000D02*
X87811000Y-44001000D01*
X87841000Y-43010000D02*
X87841000Y-43971000D01*
%TO.N,Net-(C25-Pad1)*%
X86317000Y-46003000D02*
X86317000Y-44470000D01*
X86317000Y-44470000D02*
X84933000Y-43086000D01*
X86317000Y-46003000D02*
X87811000Y-46003000D01*
%TO.N,/CAM_RESET*%
X104803000Y-55129000D02*
X104803000Y-55729000D01*
%TO.N,2.8V_OV5640*%
D28*
X115317000Y-84043000D02*
X112772000Y-86588000D01*
X115317000Y-82799500D02*
X115317000Y-84043000D01*
D27*
X115492000Y-81067000D02*
X115492000Y-82624500D01*
D28*
X112772000Y-86588000D02*
X107723000Y-86588000D01*
D27*
X115492000Y-82624500D02*
X115317000Y-82799500D01*
%TO.N,/I2C_OBC_SDA*%
D30*
X80618000Y-53554000D02*
X82703000Y-53554000D01*
%TO.N,/I2C_OBC_SCL*%
X80618000Y-55554000D02*
X82303000Y-55554000D01*
%TO.N,/USB_DN*%
D31*
X81417000Y-67554000D02*
X80618000Y-67554000D01*
X113518850Y-54805300D02*
X114025700Y-55312150D01*
X113202300Y-54805300D02*
X113518850Y-54805300D01*
X112748000Y-54351000D02*
X113202300Y-54805300D01*
X108498850Y-68387700D02*
X82250700Y-68387700D01*
X82250700Y-68387700D02*
X81417000Y-67554000D01*
X114025700Y-62860850D02*
X108498850Y-68387700D01*
X114025700Y-55312150D02*
X114025700Y-62860850D01*
%TO.N,/USB_DP*%
X87712079Y-67130818D02*
X87832079Y-67130818D01*
X88672079Y-67786300D02*
X88672079Y-67370793D01*
X113664300Y-62711150D02*
X113664300Y-55461850D01*
X89872079Y-67786300D02*
X89872079Y-67370818D01*
X84788000Y-67554000D02*
X85260300Y-68026300D01*
X90712079Y-68026300D02*
X90832079Y-68026300D01*
X88912079Y-67130793D02*
X89032079Y-67130793D01*
X91912079Y-68026300D02*
X92032079Y-68026300D01*
X91072079Y-67786300D02*
X91072079Y-67370793D01*
X89272079Y-67370793D02*
X89272079Y-67786300D01*
X85260300Y-68026300D02*
X87232079Y-68026300D01*
X87472079Y-67786300D02*
X87472079Y-67370818D01*
X88312079Y-68026300D02*
X88432079Y-68026300D01*
X94162502Y-68026300D02*
X108349150Y-68026300D01*
X92032079Y-68026300D02*
X94162502Y-68026300D01*
X89512079Y-68026300D02*
X89632079Y-68026300D01*
X91672079Y-67370793D02*
X91672079Y-67786300D01*
X88072079Y-67370818D02*
X88072079Y-67786300D01*
X91312079Y-67130793D02*
X91432079Y-67130793D01*
X90472079Y-67370818D02*
X90472079Y-67786300D01*
X113664300Y-55461850D02*
X113369150Y-55166700D01*
X90112079Y-67130818D02*
X90232079Y-67130818D01*
X113202300Y-55166700D02*
X112748000Y-55621000D01*
X108349150Y-68026300D02*
X113664300Y-62711150D01*
X113369150Y-55166700D02*
X113202300Y-55166700D01*
X90472079Y-67786300D02*
G75*
G03*
X90712079Y-68026321I240021J0D01*
G01*
X89632079Y-68026300D02*
G75*
G03*
X89872100Y-67786300I21J240000D01*
G01*
X90832079Y-68026300D02*
G75*
G03*
X91072100Y-67786300I21J240000D01*
G01*
X89872079Y-67370818D02*
G75*
G02*
X90112079Y-67130779I240021J18D01*
G01*
X87832079Y-67130818D02*
G75*
G02*
X88072082Y-67370818I21J-239982D01*
G01*
X87232079Y-68026300D02*
G75*
G03*
X87472100Y-67786300I21J240000D01*
G01*
X91072079Y-67370793D02*
G75*
G02*
X91312079Y-67130779I240021J-7D01*
G01*
X91432079Y-67130793D02*
G75*
G02*
X91672107Y-67370793I21J-240007D01*
G01*
X90232079Y-67130818D02*
G75*
G02*
X90472082Y-67370818I21J-239982D01*
G01*
X89272079Y-67786300D02*
G75*
G03*
X89512079Y-68026321I240021J0D01*
G01*
X88672079Y-67370793D02*
G75*
G02*
X88912079Y-67130779I240021J-7D01*
G01*
X88072079Y-67786300D02*
G75*
G03*
X88312079Y-68026321I240021J0D01*
G01*
X91672079Y-67786300D02*
G75*
G03*
X91912079Y-68026321I240021J0D01*
G01*
X89032079Y-67130793D02*
G75*
G02*
X89272107Y-67370793I21J-240007D01*
G01*
X87472079Y-67370818D02*
G75*
G02*
X87712079Y-67130779I240021J18D01*
G01*
X88432079Y-68026300D02*
G75*
G03*
X88672100Y-67786300I21J240000D01*
G01*
%TO.N,/LTE_PWRKEY*%
D30*
X118302000Y-61638000D02*
X120218000Y-63554000D01*
X118302000Y-53530000D02*
X118302000Y-61638000D01*
X115313000Y-50541000D02*
X118302000Y-53530000D01*
X120218000Y-63554000D02*
X121008000Y-63554000D01*
X112848000Y-50541000D02*
X115313000Y-50541000D01*
%TO.N,/LTE_RESET*%
X112848000Y-49271000D02*
X114608686Y-49271000D01*
X119983686Y-62754000D02*
X123582000Y-62754000D01*
X118702000Y-61472314D02*
X119983686Y-62754000D01*
X124382000Y-63554000D02*
X125178000Y-63554000D01*
X123582000Y-62754000D02*
X124382000Y-63554000D01*
X118702000Y-53364315D02*
X118702000Y-61472314D01*
X114608686Y-49271000D02*
X118702000Y-53364315D01*
%TO.N,/PRG_UART_RX*%
X115529314Y-55021000D02*
X115583000Y-55021000D01*
X99080000Y-47923000D02*
X99080000Y-49750686D01*
X99080000Y-49750686D02*
X100145315Y-50816000D01*
X95348000Y-44191000D02*
X99080000Y-47923000D01*
X100145315Y-50816000D02*
X111324314Y-50816000D01*
X111324314Y-50816000D02*
X115529314Y-55021000D01*
%TO.N,/PRG_UART_TX*%
X111490000Y-50416000D02*
X113552500Y-52478500D01*
X99480000Y-49585000D02*
X100311000Y-50416000D01*
X99480000Y-47053000D02*
X99480000Y-49585000D01*
X95348000Y-42921000D02*
X99480000Y-47053000D01*
X113552500Y-52478500D02*
X115583000Y-52478500D01*
X100311000Y-50416000D02*
X111490000Y-50416000D01*
%TD*%
M02*
