M48
; DRILL file {KiCad 9.0.6} date 2026-03-19T22:03:30+0100
; FORMAT={-:-/ absolute / metric / decimal}
; #@! TF.CreationDate,2026-03-19T22:03:30+01:00
; #@! TF.GenerationSoftware,Kicad,Pcbnew,9.0.6
; #@! TF.FileFunction,Plated,1,4,PTH
FMAT,2
METRIC
; #@! TA.AperFunction,Plated,PTH,ViaDrill
T1C0.300
; #@! TA.AperFunction,Plated,PTH,ViaDrill
T2C0.400
; #@! TA.AperFunction,Plated,PTH,ViaDrill
T3C0.500
%
G90
G05
T1
X87.317Y-50.046
X89.078Y-49.083
X91.845Y-49.113
X95.913Y-64.7
X97.183Y-64.7
X98.453Y-64.7
X99.723Y-64.7
X100.993Y-64.7
X101.198Y-78.069
X101.923Y-77.019
X102.263Y-64.7
X102.648Y-79.8
X103.533Y-64.7
X104.558Y-75.95
X104.588Y-77.0
X104.648Y-79.488
X104.803Y-64.7
X106.073Y-64.7
X106.148Y-77.7
X107.343Y-64.7
X108.613Y-64.7
X112.948Y-49.25
X112.948Y-50.52
X112.948Y-61.95
X113.212Y-53.98
X113.212Y-58.49
X113.912Y-55.6
X113.912Y-56.87
T2
X81.999Y-48.024
X84.549Y-46.003
X98.988Y-82.888
X101.598Y-82.888
X103.148Y-86.588
X104.673Y-86.588
X106.223Y-82.888
X107.723Y-86.588
X109.273Y-82.888
X112.848Y-45.44
X121.916Y-74.323
T3
X82.703Y-57.554
X82.703Y-59.554
X82.703Y-61.554
X82.703Y-69.554
X82.703Y-71.554
X89.229Y-82.799
X89.25Y-45.125
X89.25Y-47.025
X90.729Y-72.98
X92.279Y-72.98
X93.608Y-83.688
X93.748Y-78.724
X98.898Y-53.16
X101.398Y-50.66
X101.398Y-55.66
X103.898Y-53.16
X112.048Y-78.724
X112.767Y-82.799
X114.267Y-72.98
X115.817Y-72.98
X117.083Y-58.836
X118.866Y-81.108
X119.366Y-75.308
X121.416Y-82.108
X123.093Y-61.554
X123.093Y-65.554
X123.093Y-67.554
M30
