%TF.GenerationSoftware,KiCad,Pcbnew,10.0.4*%
%TF.CreationDate,2026-07-08T12:26:28+02:00*%
%TF.ProjectId,neptune-camera-esp,6e657074-756e-4652-9d63-616d6572612d,1.0*%
%TF.SameCoordinates,Original*%
%TF.FileFunction,Soldermask,Bot*%
%TF.FilePolarity,Negative*%
%FSLAX46Y46*%
G04 Gerber Fmt 4.6, Leading zero omitted, Abs format (unit mm)*
G04 Created by KiCad (PCBNEW 10.0.4) date 2026-07-08 12:26:28*
%MOMM*%
%LPD*%
G01*
G04 APERTURE LIST*
G04 Aperture macros list*
%AMRoundRect*
0 Rectangle with rounded corners*
0 $1 Rounding radius*
0 $2 $3 $4 $5 $6 $7 $8 $9 X,Y pos of 4 corners*
0 Add a 4 corners polygon primitive as box body*
4,1,4,$2,$3,$4,$5,$6,$7,$8,$9,$2,$3,0*
0 Add four circle primitives for the rounded corners*
1,1,$1+$1,$2,$3*
1,1,$1+$1,$4,$5*
1,1,$1+$1,$6,$7*
1,1,$1+$1,$8,$9*
0 Add four rect primitives between the rounded corners*
20,1,$1+$1,$2,$3,$4,$5,0*
20,1,$1+$1,$4,$5,$6,$7,0*
20,1,$1+$1,$6,$7,$8,$9,0*
20,1,$1+$1,$8,$9,$2,$3,0*%
%AMFreePoly0*
4,1,23,0.500000,-0.750000,0.000000,-0.750000,0.000000,-0.745722,-0.065263,-0.745722,-0.191342,-0.711940,-0.304381,-0.646677,-0.396677,-0.554381,-0.461940,-0.441342,-0.495722,-0.315263,-0.495722,-0.250000,-0.500000,-0.250000,-0.500000,0.250000,-0.495722,0.250000,-0.495722,0.315263,-0.461940,0.441342,-0.396677,0.554381,-0.304381,0.646677,-0.191342,0.711940,-0.065263,0.745722,0.000000,0.745722,
0.000000,0.750000,0.500000,0.750000,0.500000,-0.750000,0.500000,-0.750000,$1*%
%AMFreePoly1*
4,1,23,0.000000,0.745722,0.065263,0.745722,0.191342,0.711940,0.304381,0.646677,0.396677,0.554381,0.461940,0.441342,0.495722,0.315263,0.495722,0.250000,0.500000,0.250000,0.500000,-0.250000,0.495722,-0.250000,0.495722,-0.315263,0.461940,-0.441342,0.396677,-0.554381,0.304381,-0.646677,0.191342,-0.711940,0.065263,-0.745722,0.000000,-0.745722,0.000000,-0.750000,-0.500000,-0.750000,
-0.500000,0.750000,0.000000,0.750000,0.000000,0.745722,0.000000,0.745722,$1*%
G04 Aperture macros list end*
%ADD10R,2.000000X1.600000*%
%ADD11R,0.300000X1.300000*%
%ADD12RoundRect,0.140000X-0.140000X-0.170000X0.140000X-0.170000X0.140000X0.170000X-0.140000X0.170000X0*%
%ADD13RoundRect,0.140000X0.140000X0.170000X-0.140000X0.170000X-0.140000X-0.170000X0.140000X-0.170000X0*%
%ADD14RoundRect,0.225000X-0.250000X0.225000X-0.250000X-0.225000X0.250000X-0.225000X0.250000X0.225000X0*%
%ADD15RoundRect,0.225000X0.225000X0.250000X-0.225000X0.250000X-0.225000X-0.250000X0.225000X-0.250000X0*%
%ADD16RoundRect,0.225000X-0.225000X-0.250000X0.225000X-0.250000X0.225000X0.250000X-0.225000X0.250000X0*%
%ADD17RoundRect,0.250000X-0.475000X0.250000X-0.475000X-0.250000X0.475000X-0.250000X0.475000X0.250000X0*%
%ADD18R,1.500000X0.900000*%
%ADD19R,0.900000X1.500000*%
%ADD20R,3.900000X3.900000*%
%ADD21RoundRect,0.147059X0.852941X0.352941X-0.852941X0.352941X-0.852941X-0.352941X0.852941X-0.352941X0*%
%ADD22FreePoly0,0.000000*%
%ADD23FreePoly1,0.000000*%
G04 APERTURE END LIST*
%TO.C,JP1*%
G36*
X96848000Y-82909000D02*
G01*
X97148000Y-82909000D01*
X97148000Y-84409000D01*
X96848000Y-84409000D01*
X96848000Y-82909000D01*
G37*
%TD*%
D10*
%TO.C,J3*%
X110348000Y-78724000D03*
X95448000Y-78724000D03*
D11*
X97148000Y-81404000D03*
X97648000Y-81404000D03*
X98148000Y-81404000D03*
X98648000Y-81404000D03*
X99148000Y-81404000D03*
X99648000Y-81404000D03*
X100148000Y-81404000D03*
X100648000Y-81404000D03*
X101148000Y-81404000D03*
X101648000Y-81404000D03*
X102148000Y-81404000D03*
X102648000Y-81404000D03*
X103148000Y-81404000D03*
X103648000Y-81404000D03*
X104148000Y-81404000D03*
X104648000Y-81404000D03*
X105148000Y-81404000D03*
X105648000Y-81404000D03*
X106148000Y-81404000D03*
X106648000Y-81404000D03*
X107148000Y-81404000D03*
X107648000Y-81404000D03*
X108148000Y-81404000D03*
X108648000Y-81404000D03*
%TD*%
D12*
%TO.C,C27*%
X96070896Y-65559745D03*
X95110896Y-65559745D03*
%TD*%
D13*
%TO.C,C14*%
X105358000Y-82888000D03*
X104398000Y-82888000D03*
%TD*%
D14*
%TO.C,C22*%
X113443000Y-38986000D03*
X113443000Y-40536000D03*
%TD*%
D15*
%TO.C,C12*%
X109273000Y-84138000D03*
X107723000Y-84138000D03*
%TD*%
D16*
%TO.C,C18*%
X101598000Y-84138000D03*
X103148000Y-84138000D03*
%TD*%
D15*
%TO.C,C16*%
X106223000Y-85688000D03*
X104673000Y-85688000D03*
%TD*%
D17*
%TO.C,C23*%
X115217000Y-38811000D03*
X115217000Y-40711000D03*
%TD*%
D18*
%TO.C,U1*%
X111648000Y-39111000D03*
X111648000Y-40381000D03*
X111648000Y-41651000D03*
X111648000Y-42921000D03*
X111648000Y-44191000D03*
X111648000Y-45461000D03*
X111648000Y-46731000D03*
X111648000Y-48001000D03*
X111648000Y-49271000D03*
X111648000Y-50541000D03*
X111648000Y-51811000D03*
X111648000Y-53081000D03*
X111648000Y-54351000D03*
X111648000Y-55621000D03*
D19*
X109883000Y-56871000D03*
X108613000Y-56871000D03*
X107343000Y-56871000D03*
X106073000Y-56871000D03*
X104803000Y-56871000D03*
X103533000Y-56871000D03*
X102263000Y-56871000D03*
X100993000Y-56871000D03*
X99723000Y-56871000D03*
X98453000Y-56871000D03*
X97183000Y-56871000D03*
X95913000Y-56871000D03*
D18*
X94148000Y-55621000D03*
X94148000Y-54351000D03*
X94148000Y-53081000D03*
X94148000Y-51811000D03*
X94148000Y-50541000D03*
X94148000Y-49271000D03*
X94148000Y-48001000D03*
X94148000Y-46731000D03*
X94148000Y-45461000D03*
X94148000Y-44191000D03*
X94148000Y-42921000D03*
X94148000Y-41651000D03*
X94148000Y-40381000D03*
X94148000Y-39111000D03*
D20*
X104398000Y-46831000D03*
%TD*%
D15*
%TO.C,C13*%
X109273000Y-85688000D03*
X107723000Y-85688000D03*
%TD*%
D12*
%TO.C,C19*%
X102463000Y-82888000D03*
X103423000Y-82888000D03*
%TD*%
D15*
%TO.C,C15*%
X106223000Y-84138000D03*
X104673000Y-84138000D03*
%TD*%
D13*
%TO.C,C11*%
X108408000Y-82888000D03*
X107448000Y-82888000D03*
%TD*%
D21*
%TO.C,J5*%
X117083000Y-49936000D03*
X117083000Y-52478500D03*
X117083000Y-55021000D03*
X117083000Y-57563500D03*
X117083000Y-60106000D03*
%TD*%
D22*
%TO.C,JP1*%
X96348000Y-83659000D03*
D23*
X97648000Y-83659000D03*
%TD*%
D16*
%TO.C,C17*%
X101598000Y-85688000D03*
X103148000Y-85688000D03*
%TD*%
M02*
