ISO-10303-21;
HEADER;
/* Generated by software containing ST-Developer
 * from STEP Tools, Inc. (www.steptools.com) 
 */

FILE_DESCRIPTION(
/* description */ (''),
/* implementation_level */ '2;1');

FILE_NAME(
/* name */ 'ov5640.step',
/* time_stamp */ '2026-07-07T11:35:40+02:00',
/* author */ (''),
/* organization */ (''),
/* preprocessor_version */ 'ST-DEVELOPER v20.1',
/* originating_system */ 'Autodesk Translation Framework v15.8.0.0',
/* authorisation */ '');

FILE_SCHEMA (('AUTOMOTIVE_DESIGN { 1 0 10303 214 3 1 1 }'));
ENDSEC;

DATA;
#10=MECHANICAL_DESIGN_GEOMETRIC_PRESENTATION_REPRESENTATION('',(#20,#21,
#22,#23,#24),#735);
#11=SHAPE_REPRESENTATION_RELATIONSHIP('SRR','None',#742,#12);
#12=ADVANCED_BREP_SHAPE_REPRESENTATION('',(#25,#26,#27,#28,#29),#734);
#13=FACE_BOUND('',#72,.T.);
#14=CIRCLE('',#468,3.);
#15=CIRCLE('',#469,3.);
#16=CIRCLE('',#478,3.);
#17=CIRCLE('',#479,3.);
#18=CYLINDRICAL_SURFACE('',#467,3.);
#19=CYLINDRICAL_SURFACE('',#477,3.);
#20=STYLED_ITEM('',(#752),#25);
#21=STYLED_ITEM('',(#753),#26);
#22=STYLED_ITEM('',(#752),#27);
#23=STYLED_ITEM('',(#754),#28);
#24=STYLED_ITEM('',(#752),#29);
#25=MANIFOLD_SOLID_BREP('Body1',#443);
#26=MANIFOLD_SOLID_BREP('Body2',#444);
#27=MANIFOLD_SOLID_BREP('Body3',#445);
#28=MANIFOLD_SOLID_BREP('Body4',#446);
#29=MANIFOLD_SOLID_BREP('Body5',#447);
#30=FACE_OUTER_BOUND('',#59,.T.);
#31=FACE_OUTER_BOUND('',#60,.T.);
#32=FACE_OUTER_BOUND('',#61,.T.);
#33=FACE_OUTER_BOUND('',#62,.T.);
#34=FACE_OUTER_BOUND('',#63,.T.);
#35=FACE_OUTER_BOUND('',#64,.T.);
#36=FACE_OUTER_BOUND('',#65,.T.);
#37=FACE_OUTER_BOUND('',#66,.T.);
#38=FACE_OUTER_BOUND('',#67,.T.);
#39=FACE_OUTER_BOUND('',#68,.T.);
#40=FACE_OUTER_BOUND('',#69,.T.);
#41=FACE_OUTER_BOUND('',#70,.T.);
#42=FACE_OUTER_BOUND('',#71,.T.);
#43=FACE_OUTER_BOUND('',#73,.T.);
#44=FACE_OUTER_BOUND('',#74,.T.);
#45=FACE_OUTER_BOUND('',#75,.T.);
#46=FACE_OUTER_BOUND('',#76,.T.);
#47=FACE_OUTER_BOUND('',#77,.T.);
#48=FACE_OUTER_BOUND('',#78,.T.);
#49=FACE_OUTER_BOUND('',#79,.T.);
#50=FACE_OUTER_BOUND('',#80,.T.);
#51=FACE_OUTER_BOUND('',#81,.T.);
#52=FACE_OUTER_BOUND('',#82,.T.);
#53=FACE_OUTER_BOUND('',#83,.T.);
#54=FACE_OUTER_BOUND('',#84,.T.);
#55=FACE_OUTER_BOUND('',#85,.T.);
#56=FACE_OUTER_BOUND('',#86,.T.);
#57=FACE_OUTER_BOUND('',#87,.T.);
#58=FACE_OUTER_BOUND('',#88,.T.);
#59=EDGE_LOOP('',(#279,#280,#281,#282));
#60=EDGE_LOOP('',(#283,#284,#285,#286));
#61=EDGE_LOOP('',(#287,#288,#289,#290));
#62=EDGE_LOOP('',(#291,#292,#293,#294));
#63=EDGE_LOOP('',(#295,#296,#297,#298));
#64=EDGE_LOOP('',(#299,#300,#301,#302));
#65=EDGE_LOOP('',(#303,#304,#305,#306));
#66=EDGE_LOOP('',(#307));
#67=EDGE_LOOP('',(#308,#309,#310,#311));
#68=EDGE_LOOP('',(#312,#313,#314,#315));
#69=EDGE_LOOP('',(#316,#317,#318,#319));
#70=EDGE_LOOP('',(#320,#321,#322,#323));
#71=EDGE_LOOP('',(#324,#325,#326,#327));
#72=EDGE_LOOP('',(#328));
#73=EDGE_LOOP('',(#329,#330,#331,#332));
#74=EDGE_LOOP('',(#333,#334,#335,#336));
#75=EDGE_LOOP('',(#337));
#76=EDGE_LOOP('',(#338));
#77=EDGE_LOOP('',(#339,#340,#341,#342));
#78=EDGE_LOOP('',(#343,#344,#345,#346));
#79=EDGE_LOOP('',(#347,#348,#349,#350));
#80=EDGE_LOOP('',(#351,#352,#353,#354));
#81=EDGE_LOOP('',(#355,#356,#357,#358));
#82=EDGE_LOOP('',(#359,#360,#361,#362));
#83=EDGE_LOOP('',(#363,#364,#365,#366));
#84=EDGE_LOOP('',(#367,#368,#369,#370));
#85=EDGE_LOOP('',(#371,#372,#373,#374));
#86=EDGE_LOOP('',(#375,#376,#377,#378));
#87=EDGE_LOOP('',(#379,#380,#381,#382));
#88=EDGE_LOOP('',(#383,#384,#385,#386));
#89=LINE('',#616,#139);
#90=LINE('',#618,#140);
#91=LINE('',#620,#141);
#92=LINE('',#621,#142);
#93=LINE('',#624,#143);
#94=LINE('',#626,#144);
#95=LINE('',#627,#145);
#96=LINE('',#630,#146);
#97=LINE('',#632,#147);
#98=LINE('',#633,#148);
#99=LINE('',#635,#149);
#100=LINE('',#636,#150);
#101=LINE('',#643,#151);
#102=LINE('',#649,#152);
#103=LINE('',#651,#153);
#104=LINE('',#653,#154);
#105=LINE('',#654,#155);
#106=LINE('',#657,#156);
#107=LINE('',#659,#157);
#108=LINE('',#660,#158);
#109=LINE('',#663,#159);
#110=LINE('',#665,#160);
#111=LINE('',#666,#161);
#112=LINE('',#668,#162);
#113=LINE('',#669,#163);
#114=LINE('',#676,#164);
#115=LINE('',#683,#165);
#116=LINE('',#685,#166);
#117=LINE('',#687,#167);
#118=LINE('',#688,#168);
#119=LINE('',#691,#169);
#120=LINE('',#693,#170);
#121=LINE('',#694,#171);
#122=LINE('',#697,#172);
#123=LINE('',#699,#173);
#124=LINE('',#700,#174);
#125=LINE('',#702,#175);
#126=LINE('',#703,#176);
#127=LINE('',#709,#177);
#128=LINE('',#711,#178);
#129=LINE('',#713,#179);
#130=LINE('',#714,#180);
#131=LINE('',#717,#181);
#132=LINE('',#719,#182);
#133=LINE('',#720,#183);
#134=LINE('',#723,#184);
#135=LINE('',#725,#185);
#136=LINE('',#726,#186);
#137=LINE('',#728,#187);
#138=LINE('',#729,#188);
#139=VECTOR('',#498,10.);
#140=VECTOR('',#499,10.);
#141=VECTOR('',#500,10.);
#142=VECTOR('',#501,10.);
#143=VECTOR('',#504,10.);
#144=VECTOR('',#505,10.);
#145=VECTOR('',#506,10.);
#146=VECTOR('',#509,10.);
#147=VECTOR('',#510,10.);
#148=VECTOR('',#511,10.);
#149=VECTOR('',#514,10.);
#150=VECTOR('',#515,10.);
#151=VECTOR('',#524,3.);
#152=VECTOR('',#531,10.);
#153=VECTOR('',#532,10.);
#154=VECTOR('',#533,10.);
#155=VECTOR('',#534,10.);
#156=VECTOR('',#537,10.);
#157=VECTOR('',#538,10.);
#158=VECTOR('',#539,10.);
#159=VECTOR('',#542,10.);
#160=VECTOR('',#543,10.);
#161=VECTOR('',#544,10.);
#162=VECTOR('',#547,10.);
#163=VECTOR('',#548,10.);
#164=VECTOR('',#557,3.);
#165=VECTOR('',#566,10.);
#166=VECTOR('',#567,10.);
#167=VECTOR('',#568,10.);
#168=VECTOR('',#569,10.);
#169=VECTOR('',#572,10.);
#170=VECTOR('',#573,10.);
#171=VECTOR('',#574,10.);
#172=VECTOR('',#577,10.);
#173=VECTOR('',#578,10.);
#174=VECTOR('',#579,10.);
#175=VECTOR('',#582,10.);
#176=VECTOR('',#583,10.);
#177=VECTOR('',#590,10.);
#178=VECTOR('',#591,10.);
#179=VECTOR('',#592,10.);
#180=VECTOR('',#593,10.);
#181=VECTOR('',#596,10.);
#182=VECTOR('',#597,10.);
#183=VECTOR('',#598,10.);
#184=VECTOR('',#601,10.);
#185=VECTOR('',#602,10.);
#186=VECTOR('',#603,10.);
#187=VECTOR('',#606,10.);
#188=VECTOR('',#607,10.);
#189=VERTEX_POINT('',#614);
#190=VERTEX_POINT('',#615);
#191=VERTEX_POINT('',#617);
#192=VERTEX_POINT('',#619);
#193=VERTEX_POINT('',#623);
#194=VERTEX_POINT('',#625);
#195=VERTEX_POINT('',#629);
#196=VERTEX_POINT('',#631);
#197=VERTEX_POINT('',#640);
#198=VERTEX_POINT('',#642);
#199=VERTEX_POINT('',#647);
#200=VERTEX_POINT('',#648);
#201=VERTEX_POINT('',#650);
#202=VERTEX_POINT('',#652);
#203=VERTEX_POINT('',#656);
#204=VERTEX_POINT('',#658);
#205=VERTEX_POINT('',#662);
#206=VERTEX_POINT('',#664);
#207=VERTEX_POINT('',#673);
#208=VERTEX_POINT('',#675);
#209=VERTEX_POINT('',#681);
#210=VERTEX_POINT('',#682);
#211=VERTEX_POINT('',#684);
#212=VERTEX_POINT('',#686);
#213=VERTEX_POINT('',#690);
#214=VERTEX_POINT('',#692);
#215=VERTEX_POINT('',#696);
#216=VERTEX_POINT('',#698);
#217=VERTEX_POINT('',#707);
#218=VERTEX_POINT('',#708);
#219=VERTEX_POINT('',#710);
#220=VERTEX_POINT('',#712);
#221=VERTEX_POINT('',#716);
#222=VERTEX_POINT('',#718);
#223=VERTEX_POINT('',#722);
#224=VERTEX_POINT('',#724);
#225=EDGE_CURVE('',#189,#190,#89,.T.);
#226=EDGE_CURVE('',#190,#191,#90,.T.);
#227=EDGE_CURVE('',#192,#191,#91,.T.);
#228=EDGE_CURVE('',#189,#192,#92,.T.);
#229=EDGE_CURVE('',#193,#189,#93,.T.);
#230=EDGE_CURVE('',#194,#192,#94,.T.);
#231=EDGE_CURVE('',#193,#194,#95,.T.);
#232=EDGE_CURVE('',#195,#193,#96,.T.);
#233=EDGE_CURVE('',#196,#194,#97,.T.);
#234=EDGE_CURVE('',#195,#196,#98,.T.);
#235=EDGE_CURVE('',#190,#195,#99,.T.);
#236=EDGE_CURVE('',#191,#196,#100,.T.);
#237=EDGE_CURVE('',#197,#197,#14,.T.);
#238=EDGE_CURVE('',#197,#198,#101,.T.);
#239=EDGE_CURVE('',#198,#198,#15,.T.);
#240=EDGE_CURVE('',#199,#200,#102,.T.);
#241=EDGE_CURVE('',#200,#201,#103,.T.);
#242=EDGE_CURVE('',#202,#201,#104,.T.);
#243=EDGE_CURVE('',#199,#202,#105,.T.);
#244=EDGE_CURVE('',#203,#199,#106,.T.);
#245=EDGE_CURVE('',#204,#202,#107,.T.);
#246=EDGE_CURVE('',#203,#204,#108,.T.);
#247=EDGE_CURVE('',#205,#203,#109,.T.);
#248=EDGE_CURVE('',#206,#204,#110,.T.);
#249=EDGE_CURVE('',#205,#206,#111,.T.);
#250=EDGE_CURVE('',#200,#205,#112,.T.);
#251=EDGE_CURVE('',#201,#206,#113,.T.);
#252=EDGE_CURVE('',#207,#207,#16,.T.);
#253=EDGE_CURVE('',#207,#208,#114,.T.);
#254=EDGE_CURVE('',#208,#208,#17,.T.);
#255=EDGE_CURVE('',#209,#210,#115,.T.);
#256=EDGE_CURVE('',#210,#211,#116,.T.);
#257=EDGE_CURVE('',#212,#211,#117,.T.);
#258=EDGE_CURVE('',#209,#212,#118,.T.);
#259=EDGE_CURVE('',#213,#209,#119,.T.);
#260=EDGE_CURVE('',#214,#212,#120,.T.);
#261=EDGE_CURVE('',#213,#214,#121,.T.);
#262=EDGE_CURVE('',#215,#213,#122,.T.);
#263=EDGE_CURVE('',#216,#214,#123,.T.);
#264=EDGE_CURVE('',#215,#216,#124,.T.);
#265=EDGE_CURVE('',#210,#215,#125,.T.);
#266=EDGE_CURVE('',#211,#216,#126,.T.);
#267=EDGE_CURVE('',#217,#218,#127,.T.);
#268=EDGE_CURVE('',#218,#219,#128,.T.);
#269=EDGE_CURVE('',#220,#219,#129,.T.);
#270=EDGE_CURVE('',#217,#220,#130,.T.);
#271=EDGE_CURVE('',#221,#217,#131,.T.);
#272=EDGE_CURVE('',#222,#220,#132,.T.);
#273=EDGE_CURVE('',#221,#222,#133,.T.);
#274=EDGE_CURVE('',#223,#221,#134,.T.);
#275=EDGE_CURVE('',#224,#222,#135,.T.);
#276=EDGE_CURVE('',#223,#224,#136,.T.);
#277=EDGE_CURVE('',#218,#223,#137,.T.);
#278=EDGE_CURVE('',#219,#224,#138,.T.);
#279=ORIENTED_EDGE('',*,*,#225,.T.);
#280=ORIENTED_EDGE('',*,*,#226,.T.);
#281=ORIENTED_EDGE('',*,*,#227,.F.);
#282=ORIENTED_EDGE('',*,*,#228,.F.);
#283=ORIENTED_EDGE('',*,*,#229,.T.);
#284=ORIENTED_EDGE('',*,*,#228,.T.);
#285=ORIENTED_EDGE('',*,*,#230,.F.);
#286=ORIENTED_EDGE('',*,*,#231,.F.);
#287=ORIENTED_EDGE('',*,*,#232,.T.);
#288=ORIENTED_EDGE('',*,*,#231,.T.);
#289=ORIENTED_EDGE('',*,*,#233,.F.);
#290=ORIENTED_EDGE('',*,*,#234,.F.);
#291=ORIENTED_EDGE('',*,*,#235,.T.);
#292=ORIENTED_EDGE('',*,*,#234,.T.);
#293=ORIENTED_EDGE('',*,*,#236,.F.);
#294=ORIENTED_EDGE('',*,*,#226,.F.);
#295=ORIENTED_EDGE('',*,*,#236,.T.);
#296=ORIENTED_EDGE('',*,*,#233,.T.);
#297=ORIENTED_EDGE('',*,*,#230,.T.);
#298=ORIENTED_EDGE('',*,*,#227,.T.);
#299=ORIENTED_EDGE('',*,*,#235,.F.);
#300=ORIENTED_EDGE('',*,*,#225,.F.);
#301=ORIENTED_EDGE('',*,*,#229,.F.);
#302=ORIENTED_EDGE('',*,*,#232,.F.);
#303=ORIENTED_EDGE('',*,*,#237,.F.);
#304=ORIENTED_EDGE('',*,*,#238,.T.);
#305=ORIENTED_EDGE('',*,*,#239,.T.);
#306=ORIENTED_EDGE('',*,*,#238,.F.);
#307=ORIENTED_EDGE('',*,*,#239,.F.);
#308=ORIENTED_EDGE('',*,*,#240,.T.);
#309=ORIENTED_EDGE('',*,*,#241,.T.);
#310=ORIENTED_EDGE('',*,*,#242,.F.);
#311=ORIENTED_EDGE('',*,*,#243,.F.);
#312=ORIENTED_EDGE('',*,*,#244,.T.);
#313=ORIENTED_EDGE('',*,*,#243,.T.);
#314=ORIENTED_EDGE('',*,*,#245,.F.);
#315=ORIENTED_EDGE('',*,*,#246,.F.);
#316=ORIENTED_EDGE('',*,*,#247,.T.);
#317=ORIENTED_EDGE('',*,*,#246,.T.);
#318=ORIENTED_EDGE('',*,*,#248,.F.);
#319=ORIENTED_EDGE('',*,*,#249,.F.);
#320=ORIENTED_EDGE('',*,*,#250,.T.);
#321=ORIENTED_EDGE('',*,*,#249,.T.);
#322=ORIENTED_EDGE('',*,*,#251,.F.);
#323=ORIENTED_EDGE('',*,*,#241,.F.);
#324=ORIENTED_EDGE('',*,*,#251,.T.);
#325=ORIENTED_EDGE('',*,*,#248,.T.);
#326=ORIENTED_EDGE('',*,*,#245,.T.);
#327=ORIENTED_EDGE('',*,*,#242,.T.);
#328=ORIENTED_EDGE('',*,*,#237,.T.);
#329=ORIENTED_EDGE('',*,*,#250,.F.);
#330=ORIENTED_EDGE('',*,*,#240,.F.);
#331=ORIENTED_EDGE('',*,*,#244,.F.);
#332=ORIENTED_EDGE('',*,*,#247,.F.);
#333=ORIENTED_EDGE('',*,*,#252,.F.);
#334=ORIENTED_EDGE('',*,*,#253,.T.);
#335=ORIENTED_EDGE('',*,*,#254,.F.);
#336=ORIENTED_EDGE('',*,*,#253,.F.);
#337=ORIENTED_EDGE('',*,*,#252,.T.);
#338=ORIENTED_EDGE('',*,*,#254,.T.);
#339=ORIENTED_EDGE('',*,*,#255,.T.);
#340=ORIENTED_EDGE('',*,*,#256,.T.);
#341=ORIENTED_EDGE('',*,*,#257,.F.);
#342=ORIENTED_EDGE('',*,*,#258,.F.);
#343=ORIENTED_EDGE('',*,*,#259,.T.);
#344=ORIENTED_EDGE('',*,*,#258,.T.);
#345=ORIENTED_EDGE('',*,*,#260,.F.);
#346=ORIENTED_EDGE('',*,*,#261,.F.);
#347=ORIENTED_EDGE('',*,*,#262,.T.);
#348=ORIENTED_EDGE('',*,*,#261,.T.);
#349=ORIENTED_EDGE('',*,*,#263,.F.);
#350=ORIENTED_EDGE('',*,*,#264,.F.);
#351=ORIENTED_EDGE('',*,*,#265,.T.);
#352=ORIENTED_EDGE('',*,*,#264,.T.);
#353=ORIENTED_EDGE('',*,*,#266,.F.);
#354=ORIENTED_EDGE('',*,*,#256,.F.);
#355=ORIENTED_EDGE('',*,*,#266,.T.);
#356=ORIENTED_EDGE('',*,*,#263,.T.);
#357=ORIENTED_EDGE('',*,*,#260,.T.);
#358=ORIENTED_EDGE('',*,*,#257,.T.);
#359=ORIENTED_EDGE('',*,*,#265,.F.);
#360=ORIENTED_EDGE('',*,*,#255,.F.);
#361=ORIENTED_EDGE('',*,*,#259,.F.);
#362=ORIENTED_EDGE('',*,*,#262,.F.);
#363=ORIENTED_EDGE('',*,*,#267,.T.);
#364=ORIENTED_EDGE('',*,*,#268,.T.);
#365=ORIENTED_EDGE('',*,*,#269,.F.);
#366=ORIENTED_EDGE('',*,*,#270,.F.);
#367=ORIENTED_EDGE('',*,*,#271,.T.);
#368=ORIENTED_EDGE('',*,*,#270,.T.);
#369=ORIENTED_EDGE('',*,*,#272,.F.);
#370=ORIENTED_EDGE('',*,*,#273,.F.);
#371=ORIENTED_EDGE('',*,*,#274,.T.);
#372=ORIENTED_EDGE('',*,*,#273,.T.);
#373=ORIENTED_EDGE('',*,*,#275,.F.);
#374=ORIENTED_EDGE('',*,*,#276,.F.);
#375=ORIENTED_EDGE('',*,*,#277,.T.);
#376=ORIENTED_EDGE('',*,*,#276,.T.);
#377=ORIENTED_EDGE('',*,*,#278,.F.);
#378=ORIENTED_EDGE('',*,*,#268,.F.);
#379=ORIENTED_EDGE('',*,*,#277,.F.);
#380=ORIENTED_EDGE('',*,*,#267,.F.);
#381=ORIENTED_EDGE('',*,*,#271,.F.);
#382=ORIENTED_EDGE('',*,*,#274,.F.);
#383=ORIENTED_EDGE('',*,*,#278,.T.);
#384=ORIENTED_EDGE('',*,*,#275,.T.);
#385=ORIENTED_EDGE('',*,*,#272,.T.);
#386=ORIENTED_EDGE('',*,*,#269,.T.);
#387=PLANE('',#461);
#388=PLANE('',#462);
#389=PLANE('',#463);
#390=PLANE('',#464);
#391=PLANE('',#465);
#392=PLANE('',#466);
#393=PLANE('',#470);
#394=PLANE('',#471);
#395=PLANE('',#472);
#396=PLANE('',#473);
#397=PLANE('',#474);
#398=PLANE('',#475);
#399=PLANE('',#476);
#400=PLANE('',#480);
#401=PLANE('',#481);
#402=PLANE('',#482);
#403=PLANE('',#483);
#404=PLANE('',#484);
#405=PLANE('',#485);
#406=PLANE('',#486);
#407=PLANE('',#487);
#408=PLANE('',#488);
#409=PLANE('',#489);
#410=PLANE('',#490);
#411=PLANE('',#491);
#412=PLANE('',#492);
#413=PLANE('',#493);
#414=ADVANCED_FACE('',(#30),#387,.T.);
#415=ADVANCED_FACE('',(#31),#388,.T.);
#416=ADVANCED_FACE('',(#32),#389,.T.);
#417=ADVANCED_FACE('',(#33),#390,.T.);
#418=ADVANCED_FACE('',(#34),#391,.T.);
#419=ADVANCED_FACE('',(#35),#392,.F.);
#420=ADVANCED_FACE('',(#36),#18,.F.);
#421=ADVANCED_FACE('',(#37),#393,.T.);
#422=ADVANCED_FACE('',(#38),#394,.T.);
#423=ADVANCED_FACE('',(#39),#395,.T.);
#424=ADVANCED_FACE('',(#40),#396,.T.);
#425=ADVANCED_FACE('',(#41),#397,.T.);
#426=ADVANCED_FACE('',(#42,#13),#398,.T.);
#427=ADVANCED_FACE('',(#43),#399,.F.);
#428=ADVANCED_FACE('',(#44),#19,.T.);
#429=ADVANCED_FACE('',(#45),#400,.T.);
#430=ADVANCED_FACE('',(#46),#401,.F.);
#431=ADVANCED_FACE('',(#47),#402,.T.);
#432=ADVANCED_FACE('',(#48),#403,.T.);
#433=ADVANCED_FACE('',(#49),#404,.T.);
#434=ADVANCED_FACE('',(#50),#405,.T.);
#435=ADVANCED_FACE('',(#51),#406,.T.);
#436=ADVANCED_FACE('',(#52),#407,.F.);
#437=ADVANCED_FACE('',(#53),#408,.T.);
#438=ADVANCED_FACE('',(#54),#409,.T.);
#439=ADVANCED_FACE('',(#55),#410,.T.);
#440=ADVANCED_FACE('',(#56),#411,.T.);
#441=ADVANCED_FACE('',(#57),#412,.T.);
#442=ADVANCED_FACE('',(#58),#413,.T.);
#443=CLOSED_SHELL('',(#414,#415,#416,#417,#418,#419));
#444=CLOSED_SHELL('',(#420,#421,#422,#423,#424,#425,#426,#427));
#445=CLOSED_SHELL('',(#428,#429,#430));
#446=CLOSED_SHELL('',(#431,#432,#433,#434,#435,#436));
#447=CLOSED_SHELL('',(#437,#438,#439,#440,#441,#442));
#448=DERIVED_UNIT_ELEMENT(#450,1.);
#449=DERIVED_UNIT_ELEMENT(#737,-3.);
#450=(
MASS_UNIT()
NAMED_UNIT(*)
SI_UNIT(.KILO.,.GRAM.)
);
#451=DERIVED_UNIT((#448,#449));
#452=MEASURE_REPRESENTATION_ITEM('density measure',
POSITIVE_RATIO_MEASURE(7850.),#451);
#453=PROPERTY_DEFINITION_REPRESENTATION(#458,#455);
#454=PROPERTY_DEFINITION_REPRESENTATION(#459,#456);
#455=REPRESENTATION('material name',(#457),#734);
#456=REPRESENTATION('density',(#452),#734);
#457=DESCRIPTIVE_REPRESENTATION_ITEM('Steel','Steel');
#458=PROPERTY_DEFINITION('material property','material name',#744);
#459=PROPERTY_DEFINITION('material property','density of part',#744);
#460=AXIS2_PLACEMENT_3D('',#612,#494,#495);
#461=AXIS2_PLACEMENT_3D('',#613,#496,#497);
#462=AXIS2_PLACEMENT_3D('',#622,#502,#503);
#463=AXIS2_PLACEMENT_3D('',#628,#507,#508);
#464=AXIS2_PLACEMENT_3D('',#634,#512,#513);
#465=AXIS2_PLACEMENT_3D('',#637,#516,#517);
#466=AXIS2_PLACEMENT_3D('',#638,#518,#519);
#467=AXIS2_PLACEMENT_3D('',#639,#520,#521);
#468=AXIS2_PLACEMENT_3D('',#641,#522,#523);
#469=AXIS2_PLACEMENT_3D('',#644,#525,#526);
#470=AXIS2_PLACEMENT_3D('',#645,#527,#528);
#471=AXIS2_PLACEMENT_3D('',#646,#529,#530);
#472=AXIS2_PLACEMENT_3D('',#655,#535,#536);
#473=AXIS2_PLACEMENT_3D('',#661,#540,#541);
#474=AXIS2_PLACEMENT_3D('',#667,#545,#546);
#475=AXIS2_PLACEMENT_3D('',#670,#549,#550);
#476=AXIS2_PLACEMENT_3D('',#671,#551,#552);
#477=AXIS2_PLACEMENT_3D('',#672,#553,#554);
#478=AXIS2_PLACEMENT_3D('',#674,#555,#556);
#479=AXIS2_PLACEMENT_3D('',#677,#558,#559);
#480=AXIS2_PLACEMENT_3D('',#678,#560,#561);
#481=AXIS2_PLACEMENT_3D('',#679,#562,#563);
#482=AXIS2_PLACEMENT_3D('',#680,#564,#565);
#483=AXIS2_PLACEMENT_3D('',#689,#570,#571);
#484=AXIS2_PLACEMENT_3D('',#695,#575,#576);
#485=AXIS2_PLACEMENT_3D('',#701,#580,#581);
#486=AXIS2_PLACEMENT_3D('',#704,#584,#585);
#487=AXIS2_PLACEMENT_3D('',#705,#586,#587);
#488=AXIS2_PLACEMENT_3D('',#706,#588,#589);
#489=AXIS2_PLACEMENT_3D('',#715,#594,#595);
#490=AXIS2_PLACEMENT_3D('',#721,#599,#600);
#491=AXIS2_PLACEMENT_3D('',#727,#604,#605);
#492=AXIS2_PLACEMENT_3D('',#730,#608,#609);
#493=AXIS2_PLACEMENT_3D('',#731,#610,#611);
#494=DIRECTION('axis',(0.,0.,1.));
#495=DIRECTION('refdir',(1.,0.,0.));
#496=DIRECTION('center_axis',(0.,-1.,0.));
#497=DIRECTION('ref_axis',(1.,0.,0.));
#498=DIRECTION('',(1.,0.,0.));
#499=DIRECTION('',(0.,0.,1.));
#500=DIRECTION('',(1.,0.,0.));
#501=DIRECTION('',(0.,0.,1.));
#502=DIRECTION('center_axis',(-1.,0.,0.));
#503=DIRECTION('ref_axis',(0.,-1.,0.));
#504=DIRECTION('',(0.,-1.,0.));
#505=DIRECTION('',(0.,-1.,0.));
#506=DIRECTION('',(0.,0.,1.));
#507=DIRECTION('center_axis',(0.,1.,0.));
#508=DIRECTION('ref_axis',(-1.,0.,0.));
#509=DIRECTION('',(-1.,0.,0.));
#510=DIRECTION('',(-1.,0.,0.));
#511=DIRECTION('',(0.,0.,1.));
#512=DIRECTION('center_axis',(1.,0.,0.));
#513=DIRECTION('ref_axis',(0.,1.,0.));
#514=DIRECTION('',(0.,1.,0.));
#515=DIRECTION('',(0.,1.,0.));
#516=DIRECTION('center_axis',(0.,0.,1.));
#517=DIRECTION('ref_axis',(1.,0.,0.));
#518=DIRECTION('center_axis',(0.,0.,1.));
#519=DIRECTION('ref_axis',(1.,0.,0.));
#520=DIRECTION('center_axis',(0.,0.,-1.));
#521=DIRECTION('ref_axis',(-1.,0.,0.));
#522=DIRECTION('center_axis',(0.,0.,-1.));
#523=DIRECTION('ref_axis',(-1.,0.,0.));
#524=DIRECTION('',(0.,0.,-1.));
#525=DIRECTION('center_axis',(0.,0.,-1.));
#526=DIRECTION('ref_axis',(-1.,0.,0.));
#527=DIRECTION('center_axis',(0.,0.,1.));
#528=DIRECTION('ref_axis',(-1.,0.,0.));
#529=DIRECTION('center_axis',(0.,-1.,0.));
#530=DIRECTION('ref_axis',(1.,0.,0.));
#531=DIRECTION('',(1.,0.,0.));
#532=DIRECTION('',(0.,0.,1.));
#533=DIRECTION('',(1.,0.,0.));
#534=DIRECTION('',(0.,0.,1.));
#535=DIRECTION('center_axis',(-1.,0.,0.));
#536=DIRECTION('ref_axis',(0.,-1.,0.));
#537=DIRECTION('',(0.,-1.,0.));
#538=DIRECTION('',(0.,-1.,0.));
#539=DIRECTION('',(0.,0.,1.));
#540=DIRECTION('center_axis',(0.,1.,0.));
#541=DIRECTION('ref_axis',(-1.,0.,0.));
#542=DIRECTION('',(-1.,0.,0.));
#543=DIRECTION('',(-1.,0.,0.));
#544=DIRECTION('',(0.,0.,1.));
#545=DIRECTION('center_axis',(1.,0.,0.));
#546=DIRECTION('ref_axis',(0.,1.,0.));
#547=DIRECTION('',(0.,1.,0.));
#548=DIRECTION('',(0.,1.,0.));
#549=DIRECTION('center_axis',(0.,0.,1.));
#550=DIRECTION('ref_axis',(1.,0.,0.));
#551=DIRECTION('center_axis',(0.,0.,1.));
#552=DIRECTION('ref_axis',(1.,0.,0.));
#553=DIRECTION('center_axis',(0.,0.,1.));
#554=DIRECTION('ref_axis',(-1.,0.,0.));
#555=DIRECTION('center_axis',(0.,0.,1.));
#556=DIRECTION('ref_axis',(-1.,0.,0.));
#557=DIRECTION('',(0.,0.,-1.));
#558=DIRECTION('center_axis',(0.,0.,-1.));
#559=DIRECTION('ref_axis',(-1.,0.,0.));
#560=DIRECTION('center_axis',(0.,0.,1.));
#561=DIRECTION('ref_axis',(-1.,0.,0.));
#562=DIRECTION('center_axis',(0.,0.,1.));
#563=DIRECTION('ref_axis',(-1.,0.,0.));
#564=DIRECTION('center_axis',(0.,0.,1.));
#565=DIRECTION('ref_axis',(0.,-1.,0.));
#566=DIRECTION('',(0.,-1.,0.));
#567=DIRECTION('',(1.,0.,0.));
#568=DIRECTION('',(0.,-1.,0.));
#569=DIRECTION('',(1.,0.,0.));
#570=DIRECTION('center_axis',(0.,1.,0.));
#571=DIRECTION('ref_axis',(0.,0.,1.));
#572=DIRECTION('',(0.,0.,1.));
#573=DIRECTION('',(0.,0.,1.));
#574=DIRECTION('',(1.,0.,0.));
#575=DIRECTION('center_axis',(0.,0.,-1.));
#576=DIRECTION('ref_axis',(0.,1.,0.));
#577=DIRECTION('',(0.,1.,0.));
#578=DIRECTION('',(0.,1.,0.));
#579=DIRECTION('',(1.,0.,0.));
#580=DIRECTION('center_axis',(0.,-1.,0.));
#581=DIRECTION('ref_axis',(0.,0.,-1.));
#582=DIRECTION('',(0.,0.,-1.));
#583=DIRECTION('',(0.,0.,-1.));
#584=DIRECTION('center_axis',(1.,0.,0.));
#585=DIRECTION('ref_axis',(0.,0.,-1.));
#586=DIRECTION('center_axis',(1.,0.,0.));
#587=DIRECTION('ref_axis',(0.,1.,0.));
#588=DIRECTION('center_axis',(1.,0.,0.));
#589=DIRECTION('ref_axis',(0.,1.,0.));
#590=DIRECTION('',(0.,1.,0.));
#591=DIRECTION('',(0.,0.,1.));
#592=DIRECTION('',(0.,1.,0.));
#593=DIRECTION('',(0.,0.,1.));
#594=DIRECTION('center_axis',(0.,-1.,0.));
#595=DIRECTION('ref_axis',(1.,0.,0.));
#596=DIRECTION('',(1.,0.,0.));
#597=DIRECTION('',(1.,0.,0.));
#598=DIRECTION('',(0.,0.,1.));
#599=DIRECTION('center_axis',(-1.,0.,0.));
#600=DIRECTION('ref_axis',(0.,-1.,0.));
#601=DIRECTION('',(0.,-1.,0.));
#602=DIRECTION('',(0.,-1.,0.));
#603=DIRECTION('',(0.,0.,1.));
#604=DIRECTION('center_axis',(0.,1.,0.));
#605=DIRECTION('ref_axis',(-1.,0.,0.));
#606=DIRECTION('',(-1.,0.,0.));
#607=DIRECTION('',(-1.,0.,0.));
#608=DIRECTION('center_axis',(0.,0.,-1.));
#609=DIRECTION('ref_axis',(1.,0.,0.));
#610=DIRECTION('center_axis',(0.,0.,1.));
#611=DIRECTION('ref_axis',(1.,0.,0.));
#612=CARTESIAN_POINT('',(0.,0.,0.));
#613=CARTESIAN_POINT('Origin',(-4.25,-4.25,0.));
#614=CARTESIAN_POINT('',(-4.25,-4.25,0.));
#615=CARTESIAN_POINT('',(4.25,-4.25,0.));
#616=CARTESIAN_POINT('',(-4.25,-4.25,0.));
#617=CARTESIAN_POINT('',(4.25,-4.25,1.));
#618=CARTESIAN_POINT('',(4.25,-4.25,0.));
#619=CARTESIAN_POINT('',(-4.25,-4.25,1.));
#620=CARTESIAN_POINT('',(-4.25,-4.25,1.));
#621=CARTESIAN_POINT('',(-4.25,-4.25,0.));
#622=CARTESIAN_POINT('Origin',(-4.25,4.25,0.));
#623=CARTESIAN_POINT('',(-4.25,4.25,0.));
#624=CARTESIAN_POINT('',(-4.25,4.25,0.));
#625=CARTESIAN_POINT('',(-4.25,4.25,1.));
#626=CARTESIAN_POINT('',(-4.25,4.25,1.));
#627=CARTESIAN_POINT('',(-4.25,4.25,0.));
#628=CARTESIAN_POINT('Origin',(4.25,4.25,0.));
#629=CARTESIAN_POINT('',(4.25,4.25,0.));
#630=CARTESIAN_POINT('',(4.25,4.25,0.));
#631=CARTESIAN_POINT('',(4.25,4.25,1.));
#632=CARTESIAN_POINT('',(4.25,4.25,1.));
#633=CARTESIAN_POINT('',(4.25,4.25,0.));
#634=CARTESIAN_POINT('Origin',(4.25,-4.25,0.));
#635=CARTESIAN_POINT('',(4.25,-4.25,0.));
#636=CARTESIAN_POINT('',(4.25,-4.25,1.));
#637=CARTESIAN_POINT('Origin',(0.,0.,1.));
#638=CARTESIAN_POINT('Origin',(0.,0.,0.));
#639=CARTESIAN_POINT('Origin',(0.,0.,5.));
#640=CARTESIAN_POINT('',(3.,3.67394039744206E-16,5.));
#641=CARTESIAN_POINT('Origin',(0.,0.,5.));
#642=CARTESIAN_POINT('',(3.,3.67394039744206E-16,4.));
#643=CARTESIAN_POINT('',(3.,-3.67394039744206E-16,5.));
#644=CARTESIAN_POINT('Origin',(0.,0.,4.));
#645=CARTESIAN_POINT('Origin',(0.,0.,4.));
#646=CARTESIAN_POINT('Origin',(-4.25,-4.25,1.));
#647=CARTESIAN_POINT('',(-4.25,-4.25,1.));
#648=CARTESIAN_POINT('',(4.25,-4.25,1.));
#649=CARTESIAN_POINT('',(-4.25,-4.25,1.));
#650=CARTESIAN_POINT('',(4.25,-4.25,5.));
#651=CARTESIAN_POINT('',(4.25,-4.25,1.));
#652=CARTESIAN_POINT('',(-4.25,-4.25,5.));
#653=CARTESIAN_POINT('',(-4.25,-4.25,5.));
#654=CARTESIAN_POINT('',(-4.25,-4.25,1.));
#655=CARTESIAN_POINT('Origin',(-4.25,4.25,1.));
#656=CARTESIAN_POINT('',(-4.25,4.25,1.));
#657=CARTESIAN_POINT('',(-4.25,4.25,1.));
#658=CARTESIAN_POINT('',(-4.25,4.25,5.));
#659=CARTESIAN_POINT('',(-4.25,4.25,5.));
#660=CARTESIAN_POINT('',(-4.25,4.25,1.));
#661=CARTESIAN_POINT('Origin',(4.25,4.25,1.));
#662=CARTESIAN_POINT('',(4.25,4.25,1.));
#663=CARTESIAN_POINT('',(4.25,4.25,1.));
#664=CARTESIAN_POINT('',(4.25,4.25,5.));
#665=CARTESIAN_POINT('',(4.25,4.25,5.));
#666=CARTESIAN_POINT('',(4.25,4.25,1.));
#667=CARTESIAN_POINT('Origin',(4.25,-4.25,1.));
#668=CARTESIAN_POINT('',(4.25,-4.25,1.));
#669=CARTESIAN_POINT('',(4.25,-4.25,5.));
#670=CARTESIAN_POINT('Origin',(0.,0.,5.));
#671=CARTESIAN_POINT('Origin',(0.,0.,1.));
#672=CARTESIAN_POINT('Origin',(0.,0.,4.));
#673=CARTESIAN_POINT('',(3.,3.67394039744206E-16,5.));
#674=CARTESIAN_POINT('Origin',(0.,0.,5.));
#675=CARTESIAN_POINT('',(3.,3.67394039744206E-16,4.));
#676=CARTESIAN_POINT('',(3.,3.67394039744206E-16,4.));
#677=CARTESIAN_POINT('Origin',(0.,0.,4.));
#678=CARTESIAN_POINT('Origin',(0.,0.,5.));
#679=CARTESIAN_POINT('Origin',(0.,0.,4.));
#680=CARTESIAN_POINT('Origin',(4.25,3.5,0.0999999999999996));
#681=CARTESIAN_POINT('',(4.25,3.5,0.0999999999999996));
#682=CARTESIAN_POINT('',(4.25,-3.5,0.0999999999999996));
#683=CARTESIAN_POINT('',(4.25,3.5,0.0999999999999996));
#684=CARTESIAN_POINT('',(12.75,-3.5,0.0999999999999996));
#685=CARTESIAN_POINT('',(4.25,-3.5,0.0999999999999996));
#686=CARTESIAN_POINT('',(12.75,3.5,0.0999999999999996));
#687=CARTESIAN_POINT('',(12.75,3.5,0.0999999999999996));
#688=CARTESIAN_POINT('',(4.25,3.5,0.0999999999999996));
#689=CARTESIAN_POINT('Origin',(4.25,3.5,-4.28626379701574E-16));
#690=CARTESIAN_POINT('',(4.25,3.5,-4.28626379701574E-16));
#691=CARTESIAN_POINT('',(4.25,3.5,-4.28626379701574E-16));
#692=CARTESIAN_POINT('',(12.75,3.5,-4.33680868994202E-16));
#693=CARTESIAN_POINT('',(12.75,3.5,-4.28626379701574E-16));
#694=CARTESIAN_POINT('',(4.25,3.5,-4.28626379701574E-16));
#695=CARTESIAN_POINT('Origin',(4.25,-3.5,-4.28626379701574E-16));
#696=CARTESIAN_POINT('',(4.25,-3.5,-4.33680868994202E-16));
#697=CARTESIAN_POINT('',(4.25,-3.5,-4.28626379701574E-16));
#698=CARTESIAN_POINT('',(12.75,-3.5,-4.33680868994202E-16));
#699=CARTESIAN_POINT('',(12.75,-3.5,-4.28626379701574E-16));
#700=CARTESIAN_POINT('',(4.25,-3.5,-4.33680868994202E-16));
#701=CARTESIAN_POINT('Origin',(4.25,-3.5,0.0999999999999996));
#702=CARTESIAN_POINT('',(4.25,-3.5,0.0999999999999996));
#703=CARTESIAN_POINT('',(12.75,-3.5,0.0999999999999996));
#704=CARTESIAN_POINT('Origin',(12.75,0.,0.0499999999999996));
#705=CARTESIAN_POINT('Origin',(4.25,0.,0.0499999999999996));
#706=CARTESIAN_POINT('Origin',(17.75,-6.,-4.28626379701574E-16));
#707=CARTESIAN_POINT('',(17.75,-6.,-4.28626379701574E-16));
#708=CARTESIAN_POINT('',(17.75,6.,-4.28626379701574E-16));
#709=CARTESIAN_POINT('',(17.75,-6.,-4.28626379701574E-16));
#710=CARTESIAN_POINT('',(17.75,6.,0.3));
#711=CARTESIAN_POINT('',(17.75,6.,-4.28626379701574E-16));
#712=CARTESIAN_POINT('',(17.75,-6.,0.3));
#713=CARTESIAN_POINT('',(17.75,-6.,0.3));
#714=CARTESIAN_POINT('',(17.75,-6.,-4.28626379701574E-16));
#715=CARTESIAN_POINT('Origin',(12.75,-6.,-4.28626379701574E-16));
#716=CARTESIAN_POINT('',(12.75,-6.,-4.28626379701574E-16));
#717=CARTESIAN_POINT('',(12.75,-6.,-4.28626379701574E-16));
#718=CARTESIAN_POINT('',(12.75,-6.,0.3));
#719=CARTESIAN_POINT('',(12.75,-6.,0.3));
#720=CARTESIAN_POINT('',(12.75,-6.,-4.28626379701574E-16));
#721=CARTESIAN_POINT('Origin',(12.75,6.,-4.28626379701574E-16));
#722=CARTESIAN_POINT('',(12.75,6.,-4.28626379701574E-16));
#723=CARTESIAN_POINT('',(12.75,6.,-4.28626379701574E-16));
#724=CARTESIAN_POINT('',(12.75,6.,0.3));
#725=CARTESIAN_POINT('',(12.75,6.,0.3));
#726=CARTESIAN_POINT('',(12.75,6.,-4.28626379701574E-16));
#727=CARTESIAN_POINT('Origin',(17.75,6.,-4.28626379701574E-16));
#728=CARTESIAN_POINT('',(17.75,6.,-4.28626379701574E-16));
#729=CARTESIAN_POINT('',(17.75,6.,0.3));
#730=CARTESIAN_POINT('Origin',(15.25,0.,-4.28626379701574E-16));
#731=CARTESIAN_POINT('Origin',(15.25,0.,0.3));
#732=UNCERTAINTY_MEASURE_WITH_UNIT(LENGTH_MEASURE(0.01),#736,
'DISTANCE_ACCURACY_VALUE',
'Maximum model space distance between geometric entities at asserted c
onnectivities');
#733=UNCERTAINTY_MEASURE_WITH_UNIT(LENGTH_MEASURE(0.01),#736,
'DISTANCE_ACCURACY_VALUE',
'Maximum model space distance between geometric entities at asserted c
onnectivities');
#734=(
GEOMETRIC_REPRESENTATION_CONTEXT(3)
GLOBAL_UNCERTAINTY_ASSIGNED_CONTEXT((#732))
GLOBAL_UNIT_ASSIGNED_CONTEXT((#736,#738,#739))
REPRESENTATION_CONTEXT('','3D')
);
#735=(
GEOMETRIC_REPRESENTATION_CONTEXT(3)
GLOBAL_UNCERTAINTY_ASSIGNED_CONTEXT((#733))
GLOBAL_UNIT_ASSIGNED_CONTEXT((#736,#738,#739))
REPRESENTATION_CONTEXT('','3D')
);
#736=(
LENGTH_UNIT()
NAMED_UNIT(*)
SI_UNIT(.MILLI.,.METRE.)
);
#737=(
LENGTH_UNIT()
NAMED_UNIT(*)
SI_UNIT($,.METRE.)
);
#738=(
NAMED_UNIT(*)
PLANE_ANGLE_UNIT()
SI_UNIT($,.RADIAN.)
);
#739=(
NAMED_UNIT(*)
SI_UNIT($,.STERADIAN.)
SOLID_ANGLE_UNIT()
);
#740=SHAPE_DEFINITION_REPRESENTATION(#741,#742);
#741=PRODUCT_DEFINITION_SHAPE('',$,#744);
#742=SHAPE_REPRESENTATION('',(#460),#734);
#743=PRODUCT_DEFINITION_CONTEXT('part definition',#748,'design');
#744=PRODUCT_DEFINITION('ov5640','ov5640 v1',#745,#743);
#745=PRODUCT_DEFINITION_FORMATION('',$,#750);
#746=PRODUCT_RELATED_PRODUCT_CATEGORY('ov5640 v1','ov5640 v1',(#750));
#747=APPLICATION_PROTOCOL_DEFINITION('international standard',
'automotive_design',2009,#748);
#748=APPLICATION_CONTEXT(
'Core Data for Automotive Mechanical Design Process');
#749=PRODUCT_CONTEXT('part definition',#748,'mechanical');
#750=PRODUCT('ov5640','ov5640 v1',$,(#749));
#751=PRESENTATION_STYLE_ASSIGNMENT((#755));
#752=PRESENTATION_STYLE_ASSIGNMENT((#756));
#753=PRESENTATION_STYLE_ASSIGNMENT((#757));
#754=PRESENTATION_STYLE_ASSIGNMENT((#758));
#755=SURFACE_STYLE_USAGE(.BOTH.,#759);
#756=SURFACE_STYLE_USAGE(.BOTH.,#760);
#757=SURFACE_STYLE_USAGE(.BOTH.,#761);
#758=SURFACE_STYLE_USAGE(.BOTH.,#762);
#759=SURFACE_SIDE_STYLE('',(#763));
#760=SURFACE_SIDE_STYLE('',(#764));
#761=SURFACE_SIDE_STYLE('',(#765));
#762=SURFACE_SIDE_STYLE('',(#766));
#763=SURFACE_STYLE_FILL_AREA(#767);
#764=SURFACE_STYLE_FILL_AREA(#768);
#765=SURFACE_STYLE_FILL_AREA(#769);
#766=SURFACE_STYLE_FILL_AREA(#770);
#767=FILL_AREA_STYLE('Steel - Satin',(#771));
#768=FILL_AREA_STYLE('Plastic - Matte (Black)',(#772));
#769=FILL_AREA_STYLE('Nickel - Satin',(#773));
#770=FILL_AREA_STYLE('Stainless Steel - Polished',(#774));
#771=FILL_AREA_STYLE_COLOUR('Steel - Satin',#775);
#772=FILL_AREA_STYLE_COLOUR('Plastic - Matte (Black)',#776);
#773=FILL_AREA_STYLE_COLOUR('Nickel - Satin',#777);
#774=FILL_AREA_STYLE_COLOUR('Stainless Steel - Polished',#778);
#775=COLOUR_RGB('Steel - Satin',0.627450980392157,0.627450980392157,0.627450980392157);
#776=COLOUR_RGB('Plastic - Matte (Black)',0.0980392156862745,0.0980392156862745,
0.0980392156862745);
#777=COLOUR_RGB('Nickel - Satin',0.819607843137255,0.8,0.752941176470588);
#778=COLOUR_RGB('Stainless Steel - Polished',0.733333333333333,0.545098039215686,
0.113725490196078);
ENDSEC;
END-ISO-10303-21;
